{
.appVersion = "911";
copyright = "Copyright (c) 2014, The Muli Project Authors (vern@newtypography.co.uk)";
customParameters = (
{
name = licenseURL;
value = "http://scripts.sil.org/OFL";
},
{
name = vendorID;
value = NeWT;
},
{
name = fsType;
value = 0;
},
{
name = "Use Typo Metrics";
value = 1;
},
{
name = license;
value = "This Font Software is licensed under the SIL Open Font License, Version 1.1. This license is available with a FAQ at: http://scripts.sil.org/OFL";
}
);
date = "2016-08-22 10:29:05 +0000";
designer = "Vernon Adams";
designerURL = newtypography.co.uk;
familyName = Muli;
featurePrefixes = (
{
automatic = 1;
code = "languagesystem DFLT dflt;\012languagesystem latn dflt;\012languagesystem latn CAT;\012languagesystem latn ROM;\012languagesystem latn MOL;\012languagesystem latn KAZ;\012languagesystem latn TAT;\012languagesystem latn TRK;\012languagesystem latn CRT;\012languagesystem latn AZE;\012";
name = Languagesystems;
}
);
features = (
{
automatic = 1;
code = "feature locl;\012feature sups;\012feature frac;\012feature ordn;\012";
name = aalt;
},
{
automatic = 1;
code = "script latn;\012language CAT;\012sub  l' periodcentered' l by ldot;\012sub  L' periodcentered' L by Ldot;\012language ROM;\012sub Scedilla by Scommaaccent;\012sub scedilla by scommaaccent;\012language MOL;\012sub Scedilla by Scommaaccent;\012sub scedilla by scommaaccent;\012language KAZ;\012sub i by i.loclTRK;\012language TAT;\012sub i by i.loclTRK;\012language TRK;\012sub i by i.loclTRK;\012sub i by i.loclTRK;\012language CRT;\012sub i by i.loclTRK;\012language AZE;\012sub i by i.loclTRK;\012";
name = locl;
},
{
automatic = 1;
code = "sub one by onesuperior;\012sub two by twosuperior;\012sub three by threesuperior;\012sub four by foursuperior;\012";
name = sups;
},
{
automatic = 1;
code = "sub one slash four by onequarter;\012sub one slash two by onehalf;\012sub three slash four by threequarters;\012";
name = frac;
},
{
automatic = 1;

glyphs = (
{
glyphname = A;
lastChange = "2016-08-22 12:06:28 +0000";
layers = (
{
anchors = (
{
name = ogonek;
position = "{581, 0}";
},
{
name = top;
position = "{385, 711}";
}
);
layerId = "CAA31E91-2985-420A-82BA-6B4D8404D924";
paths = (
{
closed = 1;
nodes = (
"73 0 LINE",
"168 190 LINE",
"473 190 LINE",
"522 0 LINE",
"625 0 LINE",
"434 711 LINE",
"334 711 LINE",
"-28 0 LINE"
);
},
{
closed = 1;
nodes = (
"288 440 LINE",
"372 613 LINE",
"413 440 LINE",
"454 266 LINE",
"203 266 LINE"
);
}
);
width = 683;
},
{
anchors = (
{
name = ogonek;
position = "{542, 0}";
},
{
name = top;
position = "{369, 711}";
}
);
layerId = "A678A55B-4A26-4A39-BA40-1A26897903D3";
paths = (
{
closed = 1;
nodes = (
"49 0 LINE",
"143 195 LINE",
"472 195 LINE",
"518 0 LINE",
"572 0 LINE",
"401 711 LINE",
"335 711 LINE",
"-10 0 LINE"
);
},
{
closed = 1;
nodes = (
"364 667 LINE",
"414 449 LINE",
"462 231 LINE",
"160 231 LINE"
);
}
);
width = 649;
},
{
anchors = (
{
name = ogonek;
position = "{582, 0}";
},
{
name = top;
position = "{403, 711}";
}
);
layerId = "1FAC414F-D5EA-4BC8-A215-096CEB3A41C8";
paths = (
{
closed = 1;
nodes = (
"99 0 LINE",
"187 173 LINE",
"474 173 LINE",
"522 0 LINE",
"662 0 LINE",
"461 711 LINE",
"335 711 LINE",
"-38 0 LINE"
);
},
{
closed = 1;
nodes = (
"313 428 LINE",
"377 566 LINE",
"408 428 LINE",
"438 289 LINE",
"248 289 LINE"
);
}
);
width = 712;
}
);
unicode = 0041;
userData = {
com.typemytype.robofont.layerData = {
};
org.robofab.postScriptHintData = {
};
};
},
{
glyphname = AE;
lastChange = "2016-08-22 12:06:28 +0000";
layers = (
{
anchors = (
{
name = top;
position = "{703, 711}";
}
);
layerId = "CAA31E91-2985-420A-82BA-6B4D8404D924";
paths = (
{
closed = 1;
nodes = (
"75 0 LINE",
"210 196 LINE",
"509 196 LINE",
"502 0 LINE",
"890 0 LINE",
"900 80 LINE",
"601 80 LINE",
"609 328 LINE",
"902 328 LINE",
"912 405 LINE",
"610 405 LINE",
"619 630 LINE",
"955 630 LINE",
"965 711 LINE",
"468 711 LINE",
"-31 0 LINE"
);
},
{
closed = 1;
nodes = (
"506 630 LINE",
"529 630 LINE",
"511 268 LINE",
"256 268 LINE"
);
}
);
width = 1007;
},
{
associatedMasterId = "CAA31E91-2985-420A-82BA-6B4D8404D924";
layerId = "8E127200-F5D8-49CC-9C3F-9C6E8413109D";
name = b;
width = 1012;
},
{
anchors = (
{
name = top;
position = "{661, 711}";
}
);
layerId = "A678A55B-4A26-4A39-BA40-1A26897903D3";
paths = (
{
closed = 1;
nodes = (
"17 0 LINE",
"173 224 LINE",
"490 224 LINE",
"484 0 LINE",
"836 0 LINE",
"841 41 LINE",
"521 41 LINE",
"532 351 LINE",
"833 351 LINE",
"837 389 LINE",
"537 389 LINE",
"548 668 LINE",
"906 668 LINE",
"911 711 LINE",
"468 711 LINE",
"-26 0 LINE"
);
},
{
closed = 1;
nodes = (
"476 668 LINE",
"508 668 LINE",
"490 262 LINE",
"194 262 LINE"
);
}
);
width = 908;
},
{
anchors = (
{
name = top;
position = "{682, 711}";
}
);
layerId = "1FAC414F-D5EA-4BC8-A215-096CEB3A41C8";
paths = (
{
closed = 1;
nodes = (
"119 0 LINE",
"239 173 LINE",
"524 173 LINE",
"517 0 LINE",
"931 0 LINE",
"945 110 LINE",
"661 110 LINE",
"666 310 LINE",
"955 310 LINE",
"968 417 LINE",
"666 417 LINE",
"671 601 LINE",
"992 601 LINE",
"1005 711 LINE",
"476 711 LINE",
"-34 0 LINE"
);
},
{
closed = 1;
nodes = (
"528 601 LINE",
"544 601 LINE",
"527 272 LINE",
"300 272 LINE"
);
}
);
width = 1082;
}
);
unicode = 00C6;
userData = {
com.typemytype.robofont.layerData = {
b = {
anchors = (
);
components = (
);
contours = (
);
lib = {
};
name = AE;
unicodes = (
);
width = 2073.5500;
};
};
org.robofab.postScriptHintData = {
};
};
},
{
glyphname = B;
lastChange = "2016-08-22 12:06:28 +0000";
layers = (
{
anchors = (
{
name = top;
position = "{359, 711}";
}
);
layerId = "CAA31E91-2985-420A-82BA-6B4D8404D924";
paths = (
{
closed = 1;
nodes = (
"308 0 LINE SMOOTH",
"478 0 OFFCURVE",
"572 91 OFFCURVE",
"586 202 CURVE SMOOTH",
"598 297 OFFCURVE",
"551 363 OFFCURVE",
"457 379 CURVE",
"539 401 OFFCURVE",
"583 461 OFFCURVE",
"593 538 CURVE SMOOTH",
"612 688 OFFCURVE",
"466 711 OFFCURVE",
"330 711 CURVE SMOOTH",
"142 711 LINE",
"55 0 LINE"
);
},
{
closed = 1;
nodes = (
"189 333 LINE",
"320 333 LINE SMOOTH",
"451 333 OFFCURVE",
"500 300 OFFCURVE",
"487 205 CURVE SMOOTH",
"478 124 OFFCURVE",
"413 80 OFFCURVE",
"302 80 CURVE SMOOTH",
"158 80 LINE"
);
},
{
closed = 1;
nodes = (
"226 632 LINE",
"333 632 LINE SMOOTH",
"441 632 OFFCURVE",
"504 611 OFFCURVE",
"494 526 CURVE SMOOTH",
"483 438 OFFCURVE",
"411 410 OFFCURVE",
"322 410 CURVE SMOOTH",
"199 410 LINE"
);
}
);
width = 662;
},
{
associatedMasterId = "CAA31E91-2985-420A-82BA-6B4D8404D924";
layerId = "4DDE5E86-87DD-45BD-8101-E8ECF1B575E1";
name = b;
width = 657;
},
{
anchors = (
{
name = top;
position = "{360, 711}";
}
);
layerId = "A678A55B-4A26-4A39-BA40-1A26897903D3";
paths = (
{
closed = 1;
nodes = (
"310 0 LINE SMOOTH",
"469 0 OFFCURVE",
"562 65 OFFCURVE",
"577 188 CURVE SMOOTH",
"590 299 OFFCURVE",
"531 361 OFFCURVE",
"425 370 CURVE",
"515 379 OFFCURVE",
"571 433 OFFCURVE",
"584 537 CURVE SMOOTH",
"598 651 OFFCURVE",
"523 711 OFFCURVE",
"354 711 CURVE SMOOTH",
"153 711 LINE",
"66 0 LINE"
);
},
{
closed = 1;
nodes = (
"161 346 LINE",
"333 346 LINE SMOOTH",
"487 346 OFFCURVE",
"536 292 OFFCURVE",
"523 188 CURVE SMOOTH",
"511 92 OFFCURVE",
"439 42 OFFCURVE",
"315 42 CURVE SMOOTH",
"124 42 LINE"
);
},
{
closed = 1;
nodes = (
"202 669 LINE",
"350 669 LINE SMOOTH",
"483 669 OFFCURVE",
"542 623 OFFCURVE",
"531 537 CURVE SMOOTH",
"519 439 OFFCURVE",
"467 388 OFFCURVE",
"337 388 CURVE SMOOTH",
"167 388 LINE"
);
}
);
width = 660;
},
{
anchors = (
{
name = top;
position = "{362, 711}";
}
);
layerId = "1FAC414F-D5EA-4BC8-A215-096CEB3A41C8";
paths = (
{
closed = 1;
nodes = (
"309 0 LINE SMOOTH",
"487 0 OFFCURVE",
"582 95 OFFCURVE",
"594 201 CURVE SMOOTH",
"604 283 OFFCURVE",
"574 354 OFFCURVE",
"489 377 CURVE",
"563 411 OFFCURVE",
"594 467 OFFCURVE",
"602 529 CURVE SMOOTH",
"623 698 OFFCURVE",
"456 711 OFFCURVE",
"333 711 CURVE SMOOTH",
"136 711 LINE",
"49 0 LINE"
);
},
{
closed = 1;
nodes = (
"213 315 LINE",
"322 315 LINE SMOOTH",
"436 315 OFFCURVE",
"473 291 OFFCURVE",
"462 206 CURVE SMOOTH",
"454 139 OFFCURVE",
"396 106 OFFCURVE",
"299 106 CURVE SMOOTH",
"188 106 LINE"
);
},
{
closed = 1;
nodes = (
"248 604 LINE",
"328 604 LINE SMOOTH",
"424 604 OFFCURVE",
"478 587 OFFCURVE",
"468 513 CURVE SMOOTH",
"459 438 OFFCURVE",
"392 416 OFFCURVE",
"330 416 CURVE SMOOTH",
"224 416 LINE"
);
}
);
width = 667;
}
);
unicode = 0042;
userData = {
com.typemytype.robofont.layerData = {
b = {
anchors = (
);
components = (
);
contours = (
);
lib = {
};
name = B;
unicodes = (
);
width = 1346.4500;
};
};
org.robofab.postScriptHintData = {
};
};
},
{
glyphname = C;
lastChange = "2016-08-22 12:06:28 +0000";
layers = (
{
anchors = (
{
name = bot;
position = "{351, 0}";
},
{
name = top;
position = "{441, 711}";
}
);
layerId = "CAA31E91-2985-420A-82BA-6B4D8404D924";
paths = (
{
closed = 1;
nodes = (
"441 -11 OFFCURVE",
"526 12 OFFCURVE",
"604 64 CURVE",
"581 138 LINE",
"510 89 OFFCURVE",
"439 68 OFFCURVE",
"372 68 CURVE SMOOTH",
"222 68 OFFCURVE",
"128 175 OFFCURVE",
"150 351 CURVE SMOOTH",
"170 517 OFFCURVE",
"285 645 OFFCURVE",
"441 645 CURVE SMOOTH",
"504 645 OFFCURVE",
"563 628 OFFCURVE",
"614 587 CURVE",
"659 650 LINE",
"601 703 OFFCURVE",
"528 724 OFFCURVE",
"444 724 CURVE SMOOTH",
"247 724 OFFCURVE",
"79 576 OFFCURVE",
"51 350 CURVE SMOOTH",
"22 114 OFFCURVE",
"170 -11 OFFCURVE",
"357 -11 CURVE SMOOTH"
);
}
);
width = 683;
},
{
associatedMasterId = "CAA31E91-2985-420A-82BA-6B4D8404D924";
layerId = "5DA67924-3E3D-4D39-B63F-62305E39670D";
name = b;
paths = (
{
closed = 1;
nodes = (
"383 -11 CURVE SMOOTH",
"169 -11 OFFCURVE",
"53 151 OFFCURVE",
"53 348 CURVE SMOOTH",
"53 549 OFFCURVE",
"181 724 OFFCURVE",
"397 724 CURVE SMOOTH",
"486 724 OFFCURVE",
"559 702 OFFCURVE",
"618 649 CURVE",
"586 595 LINE",
"537 632 OFFCURVE",
"473 651 OFFCURVE",
"407 651 CURVE SMOOTH",
"227 651 OFFCURVE",
"142 499 OFFCURVE",
"142 348 CURVE SMOOTH",
"142 194 OFFCURVE",
"221 61 OFFCURVE",
"396 61 CURVE SMOOTH",
"476 61 OFFCURVE",
"554 84 OFFCURVE",
"607 131 CURVE",
"635 62 LINE",
"575 14 OFFCURVE",
"486 -11 OFFCURVE"
);
}
);
width = 681;
},
{
anchors = (
{
name = bot;
position = "{351, 0}";
},
{
name = top;
position = "{438, 711}";
}
);
layerId = "A678A55B-4A26-4A39-BA40-1A26897903D3";
paths = (
{
closed = 1;
nodes = (
"431 -11 OFFCURVE",
"512 12 OFFCURVE",
"585 56 CURVE",
"572 93 LINE",
"507 53 OFFCURVE",
"432 32 OFFCURVE",
"355 32 CURVE SMOOTH",
"180 32 OFFCURVE",
"83 153 OFFCURVE",
"106 342 CURVE SMOOTH",
"131 548 OFFCURVE",
"263 681 OFFCURVE",
"442 681 CURVE SMOOTH",
"513 681 OFFCURVE",
"574 661 OFFCURVE",
"618 622 CURVE",
"644 655 LINE",
"597 700 OFFCURVE",
"529 723 OFFCURVE",
"447 723 CURVE SMOOTH",
"235 723 OFFCURVE",
"81 574 OFFCURVE",
"52 342 CURVE SMOOTH",
"25 127 OFFCURVE",
"143 -11 OFFCURVE",
"351 -11 CURVE SMOOTH"
);
}
);
width = 678;
},
{
anchors = (
{
name = bot;
position = "{366, 0}";
},
{
name = top;
position = "{450, 711}";
}
);
layerId = "1FAC414F-D5EA-4BC8-A215-096CEB3A41C8";
paths = (
{
closed = 1;
nodes = (
"449 -11 OFFCURVE",
"535 10 OFFCURVE",
"619 70 CURVE",
"589 168 LINE",
"516 114 OFFCURVE",
"446 96 OFFCURVE",
"384 96 CURVE SMOOTH",
"251 96 OFFCURVE",
"162 196 OFFCURVE",
"182 356 CURVE SMOOTH",
"202 520 OFFCURVE",
"320 617 OFFCURVE",
"440 617 CURVE SMOOTH",
"495 617 OFFCURVE",
"551 607 OFFCURVE",
"612 561 CURVE",
"671 647 LINE",
"604 706 OFFCURVE",
"524 724 OFFCURVE",
"443 724 CURVE SMOOTH",
"274 724 OFFCURVE",
"82 604 OFFCURVE",
"51 355 CURVE SMOOTH",
"22 118 OFFCURVE",
"178 -11 OFFCURVE",
"363 -11 CURVE SMOOTH"
);
}
);
width = 701;
}
);
unicode = 0043;
userData = {
com.typemytype.robofont.guides = (
);
com.typemytype.robofont.layerData = {
b = {
anchors = (
);
components = (
);
contours = (
{
points = (
{
segmentType = curve;
smooth = 1;
x = 785;
y = -23;
},
{
smooth = 0;
x = 346;
y = -23;
},
{
smooth = 0;
x = 108;
y = 309;
},
{
segmentType = curve;
smooth = 1;
x = 108;
y = 713;
},
{
smooth = 0;
x = 108;
y = 1125;
},
{
smooth = 0;
x = 371;
y = 1483;
},
{
segmentType = curve;
smooth = 1;
x = 814;
y = 1483;
},
{
smooth = 0;
x = 995;
y = 1483;
},
{
smooth = 0;
x = 1144;
y = 1437;
},
{
segmentType = curve;
smooth = 0;
x = 1265;
y = 1329;
},
{
segmentType = line;
smooth = 0;
x = 1200;
y = 1219;
},
{
smooth = 0;
x = 1099;
y = 1295;
},
{
smooth = 0;
x = 969;
y = 1334;
},
{
segmentType = curve;
smooth = 1;
x = 833;
y = 1334;
},
{
smooth = 0;
x = 464;
y = 1334;
},
{
smooth = 0;
x = 291;
y = 1022;
},
{
segmentType = curve;
smooth = 1;
x = 291;
y = 712;
},
{
smooth = 0;
x = 291;
y = 398;
},
{
smooth = 0;
x = 453;
y = 125;
},
{
segmentType = curve;
smooth = 1;
x = 811;
y = 125;
},
{
smooth = 0;
x = 974;
y = 125;
},
{
smooth = 0;
x = 1134;
y = 172;
},
{
segmentType = curve;
smooth = 0;
x = 1243;
y = 268;
},
{
segmentType = line;
smooth = 0;
x = 1301;
y = 127;
},
{
smooth = 0;
x = 1178;
y = 28;
},
{
smooth = 0;
x = 996;
y = -23;
}
);
}
);
lib = {
};
name = C;
unicodes = (
);
width = 1394.1500;
};
};
org.robofab.postScriptHintData = {
};
};
},
{
glyphname = D;
lastChange = "2016-08-22 12:06:28 +0000";
layers = (
{
anchors = (
{
name = mid;
position = "{163, 377}";
},
{
name = top;
position = "{384, 711}";
}
);
layerId = "CAA31E91-2985-420A-82BA-6B4D8404D924";
paths = (
{
closed = 1;
nodes = (
"262 0 LINE SMOOTH",
"516 0 OFFCURVE",
"669 129 OFFCURVE",
"697 354 CURVE SMOOTH",
"728 602 OFFCURVE",
"584 711 OFFCURVE",
"317 711 CURVE SMOOTH",
"142 711 LINE",
"55 0 LINE"
);
},
{
closed = 1;
nodes = (
"226 632 LINE",
"316 632 LINE SMOOTH",
"529 632 OFFCURVE",
"622 544 OFFCURVE",
"598 354 CURVE SMOOTH",
"577 182 OFFCURVE",
"469 79 OFFCURVE",
"276 79 CURVE SMOOTH",
"158 79 LINE"
);
}
);
width = 751;
},
{
associatedMasterId = "CAA31E91-2985-420A-82BA-6B4D8404D924";
layerId = "AF60C1F9-B62F-4F6B-B597-2342CAC6E33D";
name = b;
width = 745;
},
{
anchors = (
{
name = mid;
position = "{148, 369}";
},
{
name = top;
position = "{404, 711}";
}
);
layerId = "A678A55B-4A26-4A39-BA40-1A26897903D3";
paths = (
{
closed = 1;
nodes = (
"259 0 LINE SMOOTH",
"504 0 OFFCURVE",
"648 120 OFFCURVE",
"676 348 CURVE SMOOTH",
"706 585 OFFCURVE",
"587 711 OFFCURVE",
"335 711 CURVE SMOOTH",
"153 711 LINE",
"66 0 LINE"
);
},
{
closed = 1;
nodes = (
"201 669 LINE",
"331 669 LINE SMOOTH",
"547 669 OFFCURVE",
"648 558 OFFCURVE",
"623 348 CURVE SMOOTH",
"598 147 OFFCURVE",
"474 42 OFFCURVE",
"264 42 CURVE SMOOTH",
"124 42 LINE"
);
}
);
width = 744;
},
{
anchors = (
{
name = mid;
position = "{158, 361}";
},
{
name = top;
position = "{407, 711}";
}
);
layerId = "1FAC414F-D5EA-4BC8-A215-096CEB3A41C8";
paths = (
{
closed = 1;
nodes = (
"268 0 LINE SMOOTH",
"531 0 OFFCURVE",
"687 125 OFFCURVE",
"716 360 CURVE SMOOTH",
"743 582 OFFCURVE",
"625 711 OFFCURVE",
"334 711 CURVE SMOOTH",
"136 711 LINE",
"49 0 LINE"
);
},
{
closed = 1;
nodes = (
"248 604 LINE",
"333 604 LINE SMOOTH",
"527 604 OFFCURVE",
"604 516 OFFCURVE",
"585 360 CURVE SMOOTH",
"564 192 OFFCURVE",
"458 106 OFFCURVE",
"287 106 CURVE SMOOTH",
"187 106 LINE"
);
}
);
width = 767;
}
);
unicode = 0044;
userData = {
com.typemytype.robofont.layerData = {
b = {
anchors = (
);
components = (
);
contours = (
);
lib = {
};
name = D;
unicodes = (
);
width = 1526.6000;
};
};
org.robofab.postScriptHintData = {
};
};
},
{
glyphname = E;
lastChange = "2016-08-22 12:06:28 +0000";
layers = (
{
anchors = (
{
name = bot;
position = "{280, 0}";
},
{
name = ogonek;
position = "{382, 0}";
},
{
name = top;
position = "{358, 711}";
}
);
layerId = "CAA31E91-2985-420A-82BA-6B4D8404D924";
paths = (
{
closed = 1;
nodes = (
"495 0 LINE",
"505 79 LINE",
"158 79 LINE",
"189 330 LINE",
"503 330 LINE",
"512 409 LINE",
"198 409 LINE",
"226 632 LINE",
"558 632 LINE",
"568 711 LINE",
"142 711 LINE",
"55 0 LINE"
);
}
);
width = 588;
},
{
anchors = (
{
name = bot;
position = "{289, 0}";
},
{
name = ogonek;
position = "{367, 0}";
},
{
name = top;
position = "{355, 711}";
}
);
layerId = "A678A55B-4A26-4A39-BA40-1A26897903D3";
paths = (
{
closed = 1;
nodes = (
"476 0 LINE",
"481 42 LINE",
"123 42 LINE",
"160 342 LINE",
"484 342 LINE",
"489 384 LINE",
"166 384 LINE",
"201 669 LINE",
"543 669 LINE",
"548 711 LINE",
"153 711 LINE",
"66 0 LINE"
);
}
);
width = 595;
},
{
anchors = (
{
name = bot;
position = "{278, 0}";
},
{
name = ogonek;
position = "{350, 0}";
},
{
name = top;
position = "{373, 711}";
}
);
layerId = "1FAC414F-D5EA-4BC8-A215-096CEB3A41C8";
paths = (
{
closed = 1;
nodes = (
"512 0 LINE",
"525 106 LINE",
"188 106 LINE",
"212 308 LINE",
"518 308 LINE",
"531 415 LINE",
"224 415 LINE",
"248 604 LINE",
"572 604 LINE",
"585 711 LINE",
"136 711 LINE",
"49 0 LINE"
);
}
);
width = 610;
}
);
unicode = 0045;
userData = {
com.typemytype.robofont.layerData = {
};
org.robofab.postScriptHintData = {
};
};
},
{
glyphname = F;
lastChange = "2016-08-22 12:06:28 +0000";
layers = (
{
anchors = (
{
name = top;
position = "{355, 711}";
}
);
layerId = "CAA31E91-2985-420A-82BA-6B4D8404D924";
paths = (
{
closed = 1;
nodes = (
"148 0 LINE",
"188 330 LINE",
"483 330 LINE",
"493 409 LINE",
"198 409 LINE",
"226 632 LINE",
"542 632 LINE",
"552 711 LINE",
"142 711 LINE",
"55 0 LINE"
);
}
);
width = 545;
},
{
anchors = (
{
name = top;
position = "{351, 711}";
}
);
layerId = "A678A55B-4A26-4A39-BA40-1A26897903D3";
paths = (
{
closed = 1;
nodes = (
"119 0 LINE",
"160 338 LINE",
"459 338 LINE",
"464 380 LINE",
"165 380 LINE",
"201 669 LINE",
"527 669 LINE",
"532 711 LINE",
"153 711 LINE",
"66 0 LINE"
);
}
);
width = 532;
},
{
anchors = (
{
name = top;
position = "{362, 711}";
}
);
layerId = "1FAC414F-D5EA-4BC8-A215-096CEB3A41C8";
paths = (
{
closed = 1;
nodes = (
"173 0 LINE",
"211 304 LINE",
"503 304 LINE",
"516 411 LINE",
"224 411 LINE",
"248 604 LINE",
"557 604 LINE",
"570 711 LINE",
"136 711 LINE",
"49 0 LINE"
);
}
);
width = 559;
}
);
unicode = 0046;
userData = {
com.typemytype.robofont.layerData = {
};
org.robofab.postScriptHintData = {
};
};
},
{
glyphname = G;
lastChange = "2016-08-22 12:06:28 +0000";
layers = (
{
anchors = (
{
name = bot;
position = "{354, 0}";
},
{
name = top;
position = "{450, 711}";
}
);
layerId = "CAA31E91-2985-420A-82BA-6B4D8404D924";
paths = (
{
closed = 1;
nodes = (
"450 -11 OFFCURVE",
"540 4 OFFCURVE",
"625 41 CURVE",
"667 374 LINE",
"394 374 LINE",
"384 294 LINE",
"563 294 LINE",
"539 93 LINE",
"492 76 OFFCURVE",
"432 68 OFFCURVE",
"380 68 CURVE SMOOTH",
"203 68 OFFCURVE",
"128 182 OFFCURVE",
"148 348 CURVE SMOOTH",
"169 519 OFFCURVE",
"292 645 OFFCURVE",
"458 645 CURVE SMOOTH",
"532 645 OFFCURVE",
"593 626 OFFCURVE",
"645 587 CURVE",
"691 652 LINE",
"633 700 OFFCURVE",
"560 724 OFFCURVE",
"465 724 CURVE SMOOTH",
"247 724 OFFCURVE",
"79 564 OFFCURVE",
"51 344 CURVE SMOOTH",
"25 130 OFFCURVE",
"134 -11 OFFCURVE",
"367 -11 CURVE SMOOTH"
);
}
);
width = 746;
},
{
associatedMasterId = "CAA31E91-2985-420A-82BA-6B4D8404D924";
layerId = "7A30980C-9EFB-4626-9D35-A69CF16BB093";
name = b;
paths = (
{
closed = 1;
nodes = (
"411 -11 CURVE SMOOTH",
"176 -11 OFFCURVE",
"53 130 OFFCURVE",
"53 342 CURVE SMOOTH",
"53 551 OFFCURVE",
"187 724 OFFCURVE",
"416 724 CURVE SMOOTH",
"517 724 OFFCURVE",
"602 691 OFFCURVE",
"651 639 CURVE",
"616 584 LINE",
"568 630 OFFCURVE",
"505 651 OFFCURVE",
"414 651 CURVE SMOOTH",
"233 651 OFFCURVE",
"140 504 OFFCURVE",
"140 349 CURVE SMOOTH",
"140 178 OFFCURVE",
"230 61 OFFCURVE",
"417 61 CURVE SMOOTH",
"473 61 OFFCURVE",
"531 70 OFFCURVE",
"578 89 CURVE",
"578 297 LINE",
"396 297 LINE",
"396 370 LINE",
"662 370 LINE",
"662 40 LINE",
"583 3 OFFCURVE",
"494 -11 OFFCURVE"
);
}
);
width = 746;
},
{
anchors = (
{
name = bot;
position = "{371, 0}";
},
{
name = top;
position = "{462, 711}";
}
);
layerId = "A678A55B-4A26-4A39-BA40-1A26897903D3";
paths = (
{
closed = 1;
nodes = (
"447 -10 OFFCURVE",
"543 5 OFFCURVE",
"618 39 CURVE",
"657 357 LINE",
"410 357 LINE",
"405 315 LINE",
"605 315 LINE",
"574 66 LINE",
"519 42 OFFCURVE",
"434 32 OFFCURVE",
"368 32 CURVE SMOOTH",
"182 32 OFFCURVE",
"83 155 OFFCURVE",
"106 345 CURVE SMOOTH",
"131 549 OFFCURVE",
"267 681 OFFCURVE",
"451 681 CURVE SMOOTH",
"492 681 OFFCURVE",
"564 675 OFFCURVE",
"648 614 CURVE",
"675 651 LINE",
"578 729 OFFCURVE",
"484 723 OFFCURVE",
"456 723 CURVE SMOOTH",
"238 723 OFFCURVE",
"81 575 OFFCURVE",
"52 345 CURVE SMOOTH",
"26 129 OFFCURVE",
"143 -10 OFFCURVE",
"362 -10 CURVE SMOOTH"
);
}
);
width = 739;
},
{
anchors = (
{
name = bot;
position = "{379, 0}";
},
{
name = top;
position = "{455, 711}";
}
);
layerId = "1FAC414F-D5EA-4BC8-A215-096CEB3A41C8";
paths = (
{
closed = 1;
nodes = (
"453 -11 OFFCURVE",
"536 3 OFFCURVE",
"630 43 CURVE",
"672 387 LINE",
"380 387 LINE",
"368 281 LINE",
"534 281 LINE",
"513 113 LINE",
"472 102 OFFCURVE",
"429 95 OFFCURVE",
"389 95 CURVE SMOOTH",
"228 95 OFFCURVE",
"162 201 OFFCURVE",
"180 349 CURVE SMOOTH",
"196 482 OFFCURVE",
"290 617 OFFCURVE",
"461 617 CURVE SMOOTH",
"561 617 OFFCURVE",
"613 588 OFFCURVE",
"641 566 CURVE",
"702 653 LINE",
"674 677 OFFCURVE",
"617 724 OFFCURVE",
"473 724 CURVE SMOOTH",
"229 724 OFFCURVE",
"75 547 OFFCURVE",
"50 344 CURVE SMOOTH",
"23 130 OFFCURVE",
"132 -11 OFFCURVE",
"371 -11 CURVE SMOOTH"
);
}
);
width = 751;
}
);
unicode = 0047;
userData = {
com.typemytype.robofont.layerData = {
b = {
anchors = (
);
components = (
);
contours = (
{
points = (
{
segmentType = curve;
smooth = 1;
x = 841;
y = -23;
},
{
smooth = 0;
x = 361;
y = -23;
},
{
smooth = 0;
x = 108;
y = 267;
},
{
segmentType = curve;
smooth = 1;
x = 108;
y = 701;
},
{
smooth = 0;
x = 108;
y = 1129;
},
{
smooth = 0;
x = 382;
y = 1483;
},
{
segmentType = curve;
smooth = 1;
x = 852;
y = 1483;
},
{
smooth = 0;
x = 1059;
y = 1483;
},
{
smooth = 0;
x = 1233;
y = 1415;
},
{
segmentType = curve;
smooth = 0;
x = 1334;
y = 1308;
},
{
segmentType = line;
smooth = 0;
x = 1262;
y = 1196;
},
{
smooth = 0;
x = 1164;
y = 1291;
},
{
smooth = 0;
x = 1034;
y = 1334;
},
{
segmentType = curve;
smooth = 1;
x = 848;
y = 1334;
},
{
smooth = 0;
x = 477;
y = 1334;
},
{
smooth = 0;
x = 286;
y = 1033;
},
{
segmentType = curve;
smooth = 1;
x = 286;
y = 714;
},
{
smooth = 0;
x = 286;
y = 365;
},
{
smooth = 0;
x = 472;
y = 125;
},
{
segmentType = curve;
smooth = 1;
x = 855;
y = 125;
},
{
smooth = 0;
x = 968;
y = 125;
},
{
smooth = 0;
x = 1088;
y = 143;
},
{
segmentType = curve;
smooth = 0;
x = 1184;
y = 182;
},
{
segmentType = line;
smooth = 0;
x = 1184;
y = 608;
},
{
segmentType = line;
smooth = 0;
x = 811;
y = 608;
},
{
segmentType = line;
smooth = 0;
x = 811;
y = 757;
},
{
segmentType = line;
smooth = 0;
x = 1356;
y = 757;
},
{
segmentType = line;
smooth = 0;
x = 1356;
y = 81;
},
{
smooth = 0;
x = 1195;
y = 6;
},
{
smooth = 0;
x = 1012;
y = -23;
}
);
}
);
lib = {
};
name = G;
unicodes = (
);
width = 1528.2000;
};
};
org.robofab.postScriptHintData = {
};
};
},
{
glyphname = H;
lastChange = "2016-08-22 12:06:28 +0000";
layers = (
{
anchors = (
{
name = top;
position = "{424, 711}";
}
);
layerId = "CAA31E91-2985-420A-82BA-6B4D8404D924";
paths = (
{
closed = 1;
nodes = (
"149 0 LINE",
"189 325 LINE",
"566 325 LINE",
"527 0 LINE",
"619 0 LINE",
"706 711 LINE",
"613 711 LINE",
"576 404 LINE",
"198 404 LINE",
"236 711 LINE",
"142 711 LINE",
"55 0 LINE"
);
}
);
width = 761;
},
{
associatedMasterId = "CAA31E91-2985-420A-82BA-6B4D8404D924";
layerId = "816F9C16-BF1B-41C2-9994-5CE462EA8107";
name = b;
width = 770;
},
{
anchors = (
{
name = top;
position = "{429, 711}";
}
);
layerId = "A678A55B-4A26-4A39-BA40-1A26897903D3";
paths = (
{
closed = 1;
nodes = (
"119 0 LINE",
"161 342 LINE",
"597 342 LINE",
"555 0 LINE",
"608 0 LINE",
"695 711 LINE",
"644 711 LINE",
"604 384 LINE",
"167 384 LINE",
"208 711 LINE",
"153 711 LINE",
"66 0 LINE"
);
}
);
width = 761;
},
{
anchors = (
{
name = top;
position = "{423, 711}";
}
);
layerId = "1FAC414F-D5EA-4BC8-A215-096CEB3A41C8";
paths = (
{
closed = 1;
nodes = (
"176 0 LINE",
"214 311 LINE",
"548 311 LINE",
"509 0 LINE",
"631 0 LINE",
"718 711 LINE",
"594 711 LINE",
"558 418 LINE",
"225 418 LINE",
"260 711 LINE",
"136 711 LINE",
"49 0 LINE"
);
}
);
width = 768;
}
);
unicode = 0048;
userData = {
com.typemytype.robofont.layerData = {
b = {
anchors = (
);
components = (
);
contours = (
);
lib = {
};
name = H;
unicodes = (
);
width = 1576.4500;
};
};
org.robofab.postScriptHintData = {
};
};
},
{
glyphname = Hbar;
lastChange = "2016-08-22 12:06:28 +0000";
layers = (
{
components = (
{
name = H;
}
);
layerId = "CAA31E91-2985-420A-82BA-6B4D8404D924";
paths = (
{
closed = 1;
nodes = (
"740 567 LINE",
"746 620 LINE",
"80 620 LINE",
"74 567 LINE"
);
}
);
width = 765;
},
{
associatedMasterId = "CAA31E91-2985-420A-82BA-6B4D8404D924";
layerId = "95F9EA6D-AC7D-4F85-908F-863B503228F6";
name = b;
width = 748;
},
{
components = (
{
name = H;
}
);
layerId = "A678A55B-4A26-4A39-BA40-1A26897903D3";
paths = (
{
closed = 1;
nodes = (
"739 597 LINE",
"742 625 LINE",
"99 625 LINE",
"97 597 LINE"
);
}
);
width = 778;
},
{
components = (
{
name = H;
}
);
layerId = "1FAC414F-D5EA-4BC8-A215-096CEB3A41C8";
paths = (
{
closed = 1;
nodes = (
"733 519 LINE",
"742 592 LINE",
"75 592 LINE",
"66 519 LINE"
);
}
);
width = 768;
}
);
unicode = 0126;
userData = {
com.typemytype.robofont.layerData = {
b = {
anchors = (
);
components = (
);
contours = (
);
lib = {
};
name = Hbar;
unicodes = (
);
width = 1532.5500;
};
};
org.robofab.postScriptHintData = {
};
};
},
{
glyphname = I;
lastChange = "2016-08-22 12:06:28 +0000";
layers = (
{
anchors = (
{
name = top;
position = "{200, 711}";
}
);
layerId = "CAA31E91-2985-420A-82BA-6B4D8404D924";
paths = (
{
closed = 1;
nodes = (
"156 0 LINE",
"243 711 LINE",
"150 711 LINE",
"63 0 LINE"
);
}
);
width = 294;
},
{
anchors = (
{
name = top;
position = "{189, 711}";
}
);
layerId = "A678A55B-4A26-4A39-BA40-1A26897903D3";
paths = (
{
closed = 1;
nodes = (
"127 0 LINE",
"214 711 LINE",
"162 711 LINE",
"75 0 LINE"
);
}
);
width = 289;
},
{
anchors = (
{
name = top;
position = "{186, 711}";
}
);
layerId = "1FAC414F-D5EA-4BC8-A215-096CEB3A41C8";
paths = (
{
closed = 1;
nodes = (
"159 0 LINE",
"246 711 LINE",
"122 711 LINE",
"35 0 LINE"
);
}
);
width = 286;
}
);
unicode = 0049;
userData = {
com.typemytype.robofont.layerData = {
};
org.robofab.postScriptHintData = {
};
};
},
{
glyphname = J;
lastChange = "2016-08-22 12:06:28 +0000";
layers = (
{
anchors = (
{
name = top;
position = "{292, 711}";
}
);
layerId = "CAA31E91-2985-420A-82BA-6B4D8404D924";
paths = (
{
closed = 1;
nodes = (
"173 -159 OFFCURVE",
"242 -94 OFFCURVE",
"260 59 CURVE SMOOTH",
"341 711 LINE",
"247 711 LINE",
"167 59 LINE SMOOTH",
"155 -38 OFFCURVE",
"130 -81 OFFCURVE",
"56 -81 CURVE SMOOTH",
"23 -81 OFFCURVE",
"-8 -73 OFFCURVE",
"-32 -65 CURVE",
"-54 -139 LINE",
"-24 -149 OFFCURVE",
"16 -159 OFFCURVE",
"58 -159 CURVE SMOOTH"
);
}
);
width = 384;
},
{
associatedMasterId = "CAA31E91-2985-420A-82BA-6B4D8404D924";
layerId = "2F137556-E295-4703-B933-3B49F9512B4E";
name = b;
width = 357;
},
{
anchors = (
{
name = top;
position = "{216, 711}";
}
);
layerId = "A678A55B-4A26-4A39-BA40-1A26897903D3";
paths = (
{
closed = 1;
nodes = (
"107 -152 OFFCURVE",
"167 -122 OFFCURVE",
"190 64 CURVE SMOOTH",
"270 711 LINE",
"217 711 LINE",
"137 64 LINE SMOOTH",
"119 -83 OFFCURVE",
"91 -110 OFFCURVE",
"0 -110 CURVE SMOOTH",
"-14 -110 OFFCURVE",
"-30 -110 OFFCURVE",
"-47 -109 CURVE",
"-53 -151 LINE",
"-37 -152 OFFCURVE",
"-22 -152 OFFCURVE",
"-8 -152 CURVE SMOOTH"
);
}
);
width = 326;
},
{
anchors = (
{
name = top;
position = "{400, 711}";
}
);
layerId = "1FAC414F-D5EA-4BC8-A215-096CEB3A41C8";
paths = (
{
closed = 1;
nodes = (
"276 -162 OFFCURVE",
"361 -84 OFFCURVE",
"379 60 CURVE SMOOTH",
"459 711 LINE",
"335 711 LINE",
"254 54 LINE SMOOTH",
"246 -13 OFFCURVE",
"215 -58 OFFCURVE",
"140 -58 CURVE SMOOTH",
"115 -58 OFFCURVE",
"81 -53 OFFCURVE",
"31 -36 CURVE",
"-3 -130 LINE",
"59 -153 OFFCURVE",
"108 -162 OFFCURVE",
"150 -162 CURVE SMOOTH"
);
}
);
width = 498;
}
);
unicode = 004A;
userData = {
com.typemytype.robofont.layerData = {
b = {
anchors = (
);
components = (
);
contours = (
);
lib = {
};
name = J;
unicodes = (
);
width = 731.5500;
};
};
org.robofab.postScriptHintData = {
};
};
},
{
glyphname = K;
lastChange = "2016-08-22 12:06:28 +0000";
layers = (
{
anchors = (
{
name = bot;
position = "{306, 0}";
},
{
name = top;
position = "{371, 711}";
}
);
layerId = "CAA31E91-2985-420A-82BA-6B4D8404D924";
paths = (
{
closed = 1;
nodes = (
"148 0 LINE",
"190 338 LINE",
"476 0 LINE",
"594 0 LINE",
"287 369 LINE",
"657 711 LINE",
"542 711 LINE",
"196 391 LINE",
"235 711 LINE",
"142 711 LINE",
"55 0 LINE"
);
}
);
width = 633;
},
{
associatedMasterId = "CAA31E91-2985-420A-82BA-6B4D8404D924";
layerId = "CE373A3E-D1EF-4917-A340-D11D556486F8";
name = b;
width = 630;
},
{
anchors = (
{
name = bot;
position = "{302, 0}";
},
{
name = top;
position = "{359, 711}";
}
);
layerId = "A678A55B-4A26-4A39-BA40-1A26897903D3";
paths = (
{
closed = 1;
nodes = (
"118 0 LINE",
"162 364 LINE",
"492 0 LINE",
"554 0 LINE",
"221 370 LINE",
"619 711 LINE",
"554 711 LINE",
"165 378 LINE",
"206 711 LINE",
"153 711 LINE",
"66 0 LINE"
);
}
);
width = 602;
},
{
anchors = (
{
name = bot;
position = "{329, 0}";
},
{
name = top;
position = "{388, 711}";
}
);
layerId = "1FAC414F-D5EA-4BC8-A215-096CEB3A41C8";
paths = (
{
closed = 1;
nodes = (
"175 0 LINE",
"214 318 LINE",
"465 0 LINE",
"626 0 LINE",
"339 368 LINE",
"689 711 LINE",
"534 711 LINE",
"223 400 LINE",
"260 711 LINE",
"136 711 LINE",
"49 0 LINE"
);
}
);
width = 660;
}
);
unicode = 004B;
userData = {
com.typemytype.robofont.layerData = {
b = {
anchors = (
);
components = (
);
contours = (
);
lib = {
};
name = K;
unicodes = (
);
width = 1289.9500;
};
};
org.robofab.postScriptHintData = {
};
};
},
{
glyphname = L;
lastChange = "2016-08-22 12:06:28 +0000";
layers = (
{
anchors = (
{
name = bot;
position = "{285, 0}";
},
{
name = caron.alt;
position = "{171, 501}";
},
{
name = mid;
position = "{149, 363}";
},
{
name = top;
position = "{195, 711}";
}
);
layerId = "CAA31E91-2985-420A-82BA-6B4D8404D924";
paths = (
{
closed = 1;
nodes = (
"479 0 LINE",
"488 79 LINE",
"158 79 LINE",
"235 711 LINE",
"142 711 LINE",
"55 0 LINE"
);
}
);
width = 542;
},
{
anchors = (
{
name = bot;
position = "{274, 0}";
},
{
name = caron.alt;
position = "{165, 501}";
},
{
name = mid;
position = "{141, 380}";
},
{
name = top;
position = "{185, 711}";
}
);
layerId = "A678A55B-4A26-4A39-BA40-1A26897903D3";
paths = (
{
closed = 1;
nodes = (
"451 0 LINE",
"456 42 LINE",
"124 42 LINE",
"206 711 LINE",
"153 711 LINE",
"66 0 LINE"
);
}
);
width = 510;
},
{
anchors = (
{
name = bot;
position = "{267, 0}";
},
{
name = caron.alt;
position = "{177, 501}";
},
{
name = mid;
position = "{205, 379}";
},
{
name = top;
position = "{234, 711}";
}
);
layerId = "1FAC414F-D5EA-4BC8-A215-096CEB3A41C8";
paths = (
{
closed = 1;
nodes = (
"502 0 LINE",
"515 106 LINE",
"187 106 LINE",
"260 711 LINE",
"136 711 LINE",
"49 0 LINE"
);
}
);
width = 573;
}
);
unicode = 004C;
userData = {
com.typemytype.robofont.layerData = {
};
org.robofab.postScriptHintData = {
};
};
},
{
glyphname = Lslash;
lastChange = "2016-08-22 12:06:28 +0000";
layers = (
{
components = (
{
name = L;
}
);
layerId = "CAA31E91-2985-420A-82BA-6B4D8404D924";
paths = (
{
closed = 1;
nodes = (
"346 429 LINE",
"355 507 LINE",
"20 308 LINE",
"10 230 LINE"
);
}
);
width = 552;
},
{
components = (
{
name = L;
}
);
layerId = "A678A55B-4A26-4A39-BA40-1A26897903D3";
paths = (
{
closed = 1;
nodes = (
"310 426 LINE",
"314 462 LINE",
"24 299 LINE",
"20 262 LINE"
);
}
);
width = 530;
},
{
components = (
{
name = L;
}
);
layerId = "1FAC414F-D5EA-4BC8-A215-096CEB3A41C8";
paths = (
{
closed = 1;
nodes = (
"307 425 LINE",
"321 535 LINE",
"13 315 LINE",
"-1 206 LINE"
);
}
);
width = 569;
}
);
unicode = 0141;
userData = {
com.typemytype.robofont.layerData = {
};
org.robofab.postScriptHintData = {
};
};
},
{
glyphname = M;
lastChange = "2016-08-22 13:31:28 +0000";
layers = (
{
anchors = (
{
name = top;
position = "{516, 711}";
}
);
layerId = "CAA31E91-2985-420A-82BA-6B4D8404D924";
paths = (
{
closed = 1;
nodes = (
"145 0 LINE",
"214 563 LINE",
"240 475 LINE",
"393 0 LINE",
"459 0 LINE",
"777 559 LINE",
"708 0 LINE",
"797 0 LINE",
"884 711 LINE",
"773 711 LINE",
"502 231 LINE",
"441 121 LINE",
"408 229 LINE",
"255 711 LINE",
"142 711 LINE",
"55 0 LINE"
);
}
);
width = 939;
},
{
associatedMasterId = "CAA31E91-2985-420A-82BA-6B4D8404D924";
layerId = "933C900E-8F49-48F9-A0E6-9BFC62D54413";
name = b;
width = 930;
},
{
anchors = (
{
name = top;
position = "{500, 711}";
}
);
layerId = "A678A55B-4A26-4A39-BA40-1A26897903D3";
paths = (
{
closed = 1;
nodes = (
"117 0 LINE",
"196 645 LINE",
"218 554 LINE",
"392 0 LINE",
"422 0 LINE",
"741 554 LINE",
"776 625 LINE",
"699 0 LINE",
"750 0 LINE",
"837 711 LINE",
"779 711 LINE",
"474 175 LINE",
"416 69 LINE",
"386 175 LINE",
"220 711 LINE",
"153 711 LINE",
"66 0 LINE"
);
}
);
width = 903;
},
{
anchors = (
{
name = top;
position = "{529, 711}";
}
);
layerId = "1FAC414F-D5EA-4BC8-A215-096CEB3A41C8";
paths = (
{
closed = 1;
nodes = (
"169 0 LINE",
"229 500 LINE",
"264 404 LINE",
"397 0 LINE",
"489 0 LINE",
"719 404 LINE",
"780 508 LINE",
"718 0 LINE",
"834 0 LINE",
"921 711 LINE",
"775 711 LINE",
"532 279 LINE",
"463 159 LINE",
"424 276 LINE",
"282 711 LINE",
"136 711 LINE",
"49 0 LINE"
);
}
);
width = 970;
}
);
unicode = 004D;
userData = {
com.typemytype.robofont.layerData = {
b = {
anchors = (
);
components = (
);
contours = (
);
lib = {
};
name = M;
unicodes = (
);
width = 1905.1000;
};
};
org.robofab.postScriptHintData = {
};
};
},
{
glyphname = N;
lastChange = "2016-08-22 12:06:28 +0000";
layers = (
{
anchors = (
{
name = bot;
position = "{367, 0}";
},
{
name = top;
position = "{438, 711}";
}
);
layerId = "CAA31E91-2985-420A-82BA-6B4D8404D924";
paths = (
{
closed = 1;
nodes = (
"143 0 LINE",
"214 579 LINE",
"264 481 LINE",
"539 0 LINE",
"639 0 LINE",
"726 711 LINE",
"637 711 LINE",
"565 128 LINE",
"523 211 LINE",
"241 711 LINE",
"142 711 LINE",
"55 0 LINE"
);
}
);
width = 780;
},
{
associatedMasterId = "CAA31E91-2985-420A-82BA-6B4D8404D924";
layerId = "CFBAA251-FC11-4CB1-B606-10790ECBE785";
name = b;
width = 771;
},
{
anchors = (
{
name = bot;
position = "{353, 0}";
},
{
name = top;
position = "{443, 711}";
}
);
layerId = "A678A55B-4A26-4A39-BA40-1A26897903D3";
paths = (
{
closed = 1;
nodes = (
"118 0 LINE",
"196 636 LINE",
"239 555 LINE",
"563 0 LINE",
"614 0 LINE",
"701 711 LINE",
"649 711 LINE",
"571 69 LINE",
"521 164 LINE",
"205 711 LINE",
"153 711 LINE",
"66 0 LINE"
);
}
);
width = 767;
},
{
anchors = (
{
name = bot;
position = "{371, 0}";
},
{
name = top;
position = "{455, 711}";
}
);
layerId = "1FAC414F-D5EA-4BC8-A215-096CEB3A41C8";
paths = (
{
closed = 1;
nodes = (
"164 0 LINE",
"228 524 LINE",
"528 0 LINE",
"660 0 LINE",
"747 711 LINE",
"628 711 LINE",
"565 188 LINE",
"513 277 LINE",
"268 711 LINE",
"136 711 LINE",
"49 0 LINE"
);
}
);
width = 796;
}
);
unicode = 004E;
userData = {
com.typemytype.robofont.layerData = {
b = {
anchors = (
);
components = (
);
contours = (
);
lib = {
};
name = N;
unicodes = (
);
width = 1578.1500;
};
};
org.robofab.postScriptHintData = {
};
};
},
{
glyphname = Eng;
lastChange = "2016-08-22 12:06:28 +0000";
layers = (
{
layerId = "CAA31E91-2985-420A-82BA-6B4D8404D924";
paths = (
{
closed = 1;
nodes = (
"559 -213 OFFCURVE",
"633 -126 OFFCURVE",
"652 27 CURVE SMOOTH",
"736 711 LINE",
"645 711 LINE",
"578 160 LINE",
"535 238 LINE",
"255 711 LINE",
"154 711 LINE",
"67 0 LINE",
"157 0 LINE",
"229 586 LINE",
"269 510 LINE",
"561 27 LINE",
"556 -14 LINE SMOOTH",
"544 -105 OFFCURVE",
"490 -141 OFFCURVE",
"403 -141 CURVE SMOOTH",
"358 -141 OFFCURVE",
"303 -132 OFFCURVE",
"238 -115 CURVE",
"218 -188 LINE",
"286 -205 OFFCURVE",
"344 -213 OFFCURVE",
"395 -213 CURVE SMOOTH"
);
}
);
width = 767;
},
{
layerId = "A678A55B-4A26-4A39-BA40-1A26897903D3";
paths = (
{
closed = 1;
nodes = (
"597 -209 OFFCURVE",
"621 -113 OFFCURVE",
"636 0 CURVE SMOOTH",
"723 711 LINE",
"671 711 LINE",
"592 69 LINE",
"542 164 LINE",
"227 711 LINE",
"175 711 LINE",
"87 0 LINE",
"139 0 LINE",
"217 636 LINE",
"260 555 LINE",
"584 0 LINE",
"579 -41 LINE SMOOTH",
"568 -127 OFFCURVE",
"520 -169 OFFCURVE",
"422 -169 CURVE SMOOTH",
"377 -169 OFFCURVE",
"313 -164 OFFCURVE",
"221 -139 CURVE",
"212 -182 LINE",
"296 -201 OFFCURVE",
"364 -209 OFFCURVE",
"417 -209 CURVE SMOOTH"
);
}
);
width = 734;
},
{
layerId = "1FAC414F-D5EA-4BC8-A215-096CEB3A41C8";
paths = (
{
closed = 1;
nodes = (
"534 -231 OFFCURVE",
"646 -169 OFFCURVE",
"668 0 CURVE SMOOTH",
"755 711 LINE",
"638 711 LINE",
"578 220 LINE",
"526 311 LINE",
"283 711 LINE",
"152 711 LINE",
"64 0 LINE",
"178 0 LINE",
"246 556 LINE",
"299 462 LINE",
"557 48 LINE",
"548 -20 LINE SMOOTH",
"536 -125 OFFCURVE",
"461 -136 OFFCURVE",
"382 -136 CURVE SMOOTH",
"341 -136 OFFCURVE",
"298 -128 OFFCURVE",
"261 -117 CURVE",
"232 -212 LINE",
"283 -225 OFFCURVE",
"331 -231 OFFCURVE",
"375 -231 CURVE SMOOTH"
);
}
);
width = 792;
}
);
unicode = 014A;
userData = {
com.typemytype.robofont.layerData = {
};
org.robofab.postScriptHintData = {
};
};
},
{
glyphname = O;
lastChange = "2016-08-22 12:06:28 +0000";
layers = (
{
anchors = (
{
name = ogonek;
position = "{383, 0}";
},
{
name = top;
position = "{442, 711}";
}
);
guideLines = (
{
position = "{113, 355}";
},
{
angle = 90;
position = "{393, 612}";
}
);
layerId = "CAA31E91-2985-420A-82BA-6B4D8404D924";
paths = (
{
closed = 1;
nodes = (
"568 -11 OFFCURVE",
"715 133 OFFCURVE",
"742 356 CURVE SMOOTH",
"769 574 OFFCURVE",
"655 724 OFFCURVE",
"444 724 CURVE SMOOTH",
"226 724 OFFCURVE",
"79 574 OFFCURVE",
"52 356 CURVE SMOOTH",
"25 133 OFFCURVE",
"137 -11 OFFCURVE",
"354 -11 CURVE SMOOTH"
);
},
{
closed = 1;
nodes = (
"201 68 OFFCURVE",
"130 181 OFFCURVE",
"152 356 CURVE SMOOTH",
"173 525 OFFCURVE",
"273 645 OFFCURVE",
"434 645 CURVE SMOOTH",
"595 645 OFFCURVE",
"662 525 OFFCURVE",
"641 356 CURVE SMOOTH",
"619 182 OFFCURVE",
"524 68 OFFCURVE",
"362 68 CURVE SMOOTH"
);
}
);
width = 794;
},
{
associatedMasterId = "CAA31E91-2985-420A-82BA-6B4D8404D924";
layerId = "A2443AE0-EC87-4FE5-B6C6-44E49EF44E6F";
name = b;
width = 796;
},
{
anchors = (
{
name = ogonek;
position = "{375, 0}";
},
{
name = top;
position = "{428, 711}";
}
);
guideLines = (
{
position = "{113, 355}";
},
{
angle = 90;
position = "{393, 612}";
}
);
layerId = "A678A55B-4A26-4A39-BA40-1A26897903D3";
paths = (
{
closed = 1;
nodes = (
"540 -10 OFFCURVE",
"687 132 OFFCURVE",
"713 353 CURVE SMOOTH",
"741 578 OFFCURVE",
"629 723 OFFCURVE",
"430 723 CURVE SMOOTH",
"227 723 OFFCURVE",
"81 578 OFFCURVE",
"53 353 CURVE SMOOTH",
"26 132 OFFCURVE",
"138 -10 OFFCURVE",
"340 -10 CURVE SMOOTH"
);
},
{
closed = 1;
nodes = (
"177 32 OFFCURVE",
"83 158 OFFCURVE",
"107 353 CURVE SMOOTH",
"131 553 OFFCURVE",
"256 681 OFFCURVE",
"425 681 CURVE SMOOTH",
"592 681 OFFCURVE",
"684 553 OFFCURVE",
"660 353 CURVE SMOOTH",
"636 158 OFFCURVE",
"513 32 OFFCURVE",
"345 32 CURVE SMOOTH"
);
}
);
width = 768;
},
{
anchors = (
{
name = ogonek;
position = "{372, 0}";
},
{
name = top;
position = "{455, 711}";
}
);
guideLines = (
{
position = "{113, 355}";
},
{
angle = 90;
position = "{393, 612}";
}
);
layerId = "1FAC414F-D5EA-4BC8-A215-096CEB3A41C8";
paths = (
{
closed = 1;
nodes = (
"588 -11 OFFCURVE",
"737 134 OFFCURVE",
"764 359 CURVE SMOOTH",
"791 578 OFFCURVE",
"673 724 OFFCURVE",
"457 724 CURVE SMOOTH",
"231 724 OFFCURVE",
"79 577 OFFCURVE",
"52 359 CURVE SMOOTH",
"24 134 OFFCURVE",
"142 -11 OFFCURVE",
"365 -11 CURVE SMOOTH"
);
},
{
closed = 1;
nodes = (
"228 95 OFFCURVE",
"166 191 OFFCURVE",
"186 359 CURVE SMOOTH",
"206 521 OFFCURVE",
"296 618 OFFCURVE",
"441 618 CURVE SMOOTH",
"586 618 OFFCURVE",
"649 521 OFFCURVE",
"629 359 CURVE SMOOTH",
"609 191 OFFCURVE",
"522 95 OFFCURVE",
"375 95 CURVE SMOOTH"
);
}
);
width = 816;
}
);
unicode = 004F;
userData = {
com.typemytype.robofont.guides = (
{
angle = 0;
isGlobal = 0;
magnetic = 5;
x = 231;
y = 727;
},
{
angle = 90;
isGlobal = 0;
magnetic = 5;
x = 804;
y = 1254;
}
);
com.typemytype.robofont.layerData = {
b = {
anchors = (
);
components = (
);
contours = (
);
lib = {
};
name = O;
unicodes = (
);
width = 1630.8000;
};
};
org.robofab.postScriptHintData = {
};
};
},
{
glyphname = Oslash;
lastChange = "2016-08-22 12:06:28 +0000";
layers = (
{
components = (
{
name = O;
}
);
layerId = "CAA31E91-2985-420A-82BA-6B4D8404D924";
paths = (
{
closed = 1;
nodes = (
"687 745 LINE",
"645 768 LINE",
"113 -41 LINE",
"155 -64 LINE"
);
}
);
width = 794;
},
{
associatedMasterId = "CAA31E91-2985-420A-82BA-6B4D8404D924";
layerId = "DCD966A3-DAD3-42EB-91A6-70309C0CB528";
name = b;
width = 812;
},
{
components = (
{
name = O;
}
);
layerId = "A678A55B-4A26-4A39-BA40-1A26897903D3";
paths = (
{
closed = 1;
nodes = (
"688 768 LINE",
"661 784 LINE",
"94 -59 LINE",
"123 -76 LINE"
);
}
);
width = 768;
},
{
components = (
{
name = O;
}
);
layerId = "1FAC414F-D5EA-4BC8-A215-096CEB3A41C8";
paths = (
{
closed = 1;
nodes = (
"700 744 LINE",
"646 769 LINE",
"116 -37 LINE",
"170 -63 LINE"
);
}
);
width = 816;
}
);
unicode = 00D8;
userData = {
com.typemytype.robofont.layerData = {
b = {
anchors = (
);
components = (
);
contours = (
);
lib = {
};
name = Oslash;
unicodes = (
);
width = 1663;
};
};
org.robofab.postScriptHintData = {
};
};
},
{
glyphname = OE;
lastChange = "2016-08-22 12:06:28 +0000";
layers = (
{
layerId = "CAA31E91-2985-420A-82BA-6B4D8404D924";
paths = (
{
closed = 1;
nodes = (
"432 -9 OFFCURVE",
"491 24 OFFCURVE",
"514 46 CURVE",
"508 0 LINE",
"918 0 LINE",
"929 81 LINE",
"612 81 LINE",
"642 324 LINE",
"925 324 LINE",
"935 405 LINE",
"651 405 LINE",
"679 630 LINE",
"981 630 LINE",
"991 711 LINE",
"595 711 LINE",
"591 674 LINE",
"572 695 OFFCURVE",
"521 725 OFFCURVE",
"434 724 CURVE SMOOTH",
"233 723 OFFCURVE",
"80 573 OFFCURVE",
"52 356 CURVE SMOOTH",
"24 124 OFFCURVE",
"140 -16 OFFCURVE",
"352 -11 CURVE SMOOTH"
);
},
{
closed = 1;
nodes = (
"198 63 OFFCURVE",
"132 187 OFFCURVE",
"152 354 CURVE SMOOTH",
"172 520 OFFCURVE",
"276 640 OFFCURVE",
"427 644 CURVE SMOOTH",
"509 647 OFFCURVE",
"557 620 OFFCURVE",
"581 592 CURVE",
"523 124 LINE",
"500 99 OFFCURVE",
"450 65 OFFCURVE",
"364 64 CURVE SMOOTH"
);
}
);
width = 1000;
},
{
associatedMasterId = "CAA31E91-2985-420A-82BA-6B4D8404D924";
layerId = "103B046C-DD59-48A0-9D61-AD4FB49846B1";
name = b;
width = 1001;
},
{
layerId = "A678A55B-4A26-4A39-BA40-1A26897903D3";
paths = (
{
closed = 1;
nodes = (
"436 -9 OFFCURVE",
"506 23 OFFCURVE",
"547 66 CURVE",
"539 0 LINE",
"934 0 LINE",
"939 48 LINE",
"597 48 LINE",
"633 341 LINE",
"941 341 LINE",
"947 389 LINE",
"640 389 LINE",
"674 663 LINE",
"1000 663 LINE",
"1006 711 LINE",
"626 711 LINE",
"619 656 LINE",
"570 710 OFFCURVE",
"494 723 OFFCURVE",
"448 723 CURVE SMOOTH",
"221 723 OFFCURVE",
"79 558 OFFCURVE",
"53 354 CURVE SMOOTH",
"29 157 OFFCURVE",
"113 -13 OFFCURVE",
"358 -10 CURVE SMOOTH"
);
},
{
closed = 1;
nodes = (
"136 32 OFFCURVE",
"88 200 OFFCURVE",
"107 354 CURVE SMOOTH",
"124 491 OFFCURVE",
"224 681 OFFCURVE",
"443 681 CURVE SMOOTH",
"526 681 OFFCURVE",
"583 645 OFFCURVE",
"613 605 CURVE",
"553 116 LINE",
"507 63 OFFCURVE",
"439 32 OFFCURVE",
"363 32 CURVE SMOOTH"
);
}
);
width = 995;
},
{
layerId = "1FAC414F-D5EA-4BC8-A215-096CEB3A41C8";
paths = (
{
closed = 1;
nodes = (
"438 -9 OFFCURVE",
"492 32 OFFCURVE",
"488 31 CURVE",
"484 0 LINE",
"906 0 LINE",
"919 106 LINE",
"623 106 LINE",
"647 311 LINE",
"913 311 LINE",
"926 417 LINE",
"660 417 LINE",
"683 605 LINE",
"967 605 LINE",
"980 711 LINE",
"572 711 LINE",
"568 683 LINE",
"573 677 OFFCURVE",
"541 729 OFFCURVE",
"416 724 CURVE SMOOTH",
"243 716 OFFCURVE",
"80 585 OFFCURVE",
"52 357 CURVE SMOOTH",
"20 98 OFFCURVE",
"167 -18 OFFCURVE",
"354 -12 CURVE SMOOTH"
);
},
{
closed = 1;
nodes = (
"240 85 OFFCURVE",
"163 177 OFFCURVE",
"186 354 CURVE SMOOTH",
"208 541 OFFCURVE",
"316 607 OFFCURVE",
"413 618 CURVE SMOOTH",
"497 625 OFFCURVE",
"536 600 OFFCURVE",
"556 582 CURVE",
"500 123 LINE",
"506 129 OFFCURVE",
"470 84 OFFCURVE",
"368 85 CURVE SMOOTH"
);
}
);
width = 1004;
}
);
unicode = 0152;
userData = {
com.typemytype.robofont.layerData = {
b = {
anchors = (
);
components = (
);
contours = (
);
lib = {
};
name = OE;
unicodes = (
);
width = 2049.1499;
};
};
org.robofab.postScriptHintData = {
};
};
},
{
glyphname = P;
lastChange = "2016-08-22 12:06:28 +0000";
layers = (
{
anchors = (
{
name = top;
position = "{359, 711}";
}
);
layerId = "CAA31E91-2985-420A-82BA-6B4D8404D924";
paths = (
{
closed = 1;
nodes = (
"148 0 LINE",
"188 322 LINE",
"318 322 LINE SMOOTH",
"479 322 OFFCURVE",
"584 370 OFFCURVE",
"602 516 CURVE SMOOTH",
"622 680 OFFCURVE",
"514 711 OFFCURVE",
"347 711 CURVE SMOOTH",
"142 711 LINE",
"55 0 LINE"
);
},
{
closed = 1;
nodes = (
"226 632 LINE",
"339 632 LINE SMOOTH",
"457 633 OFFCURVE",
"519 615 OFFCURVE",
"506 516 CURVE SMOOTH",
"496 426 OFFCURVE",
"434 401 OFFCURVE",
"327 401 CURVE SMOOTH",
"198 401 LINE"
);
}
);
width = 615;
},
{
associatedMasterId = "CAA31E91-2985-420A-82BA-6B4D8404D924";
layerId = "1CD1EA5B-ADE3-4A4D-A625-2430F5CE1887";
name = b;
paths = (
{
closed = 1;
nodes = (
"176 404 LINE",
"283 404 LINE SMOOTH",
"378 404 OFFCURVE",
"475 430 OFFCURVE",
"475 526 CURVE SMOOTH",
"475 621 OFFCURVE",
"394 639 OFFCURVE",
"289 639 CURVE SMOOTH",
"176 639 LINE"
);
},
{
closed = 1;
nodes = (
"176 72 LINE",
"326 72 LINE SMOOTH",
"442 72 OFFCURVE",
"508 112 OFFCURVE",
"508 198 CURVE SMOOTH",
"508 301 OFFCURVE",
"434 332 OFFCURVE",
"298 332 CURVE SMOOTH",
"176 332 LINE"
);
},
{
closed = 1;
nodes = (
"92 0 LINE",
"92 711 LINE",
"245 711 LINE SMOOTH",
"374 711 OFFCURVE",
"563 705 OFFCURVE",
"563 540 CURVE SMOOTH",
"563 461 OFFCURVE",
"510 397 OFFCURVE",
"434 375 CURVE",
"530 358 OFFCURVE",
"597 295 OFFCURVE",
"597 197 CURVE SMOOTH",
"597 92 OFFCURVE",
"517 0 OFFCURVE",
"361 0 CURVE SMOOTH"
);
}
);
width = 612;
},
{
anchors = (
{
name = top;
position = "{360, 711}";
}
);
layerId = "A678A55B-4A26-4A39-BA40-1A26897903D3";
paths = (
{
closed = 1;
nodes = (
"119 0 LINE",
"161 342 LINE",
"318 342 LINE SMOOTH",
"486 342 OFFCURVE",
"565 397 OFFCURVE",
"581 527 CURVE SMOOTH",
"597 656 OFFCURVE",
"531 711 OFFCURVE",
"363 711 CURVE SMOOTH",
"153 711 LINE",
"66 0 LINE"
);
},
{
closed = 1;
nodes = (
"201 669 LINE",
"358 669 LINE",
"492 674 OFFCURVE",
"543 631 OFFCURVE",
"531 527 CURVE SMOOTH",
"519 427 OFFCURVE",
"466 384 OFFCURVE",
"323 384 CURVE SMOOTH",
"166 384 LINE"
);
}
);
width = 595;
},
{
anchors = (
{
name = top;
position = "{374, 711}";
}
);
layerId = "1FAC414F-D5EA-4BC8-A215-096CEB3A41C8";
paths = (
{
closed = 1;
nodes = (
"173 0 LINE",
"211 307 LINE",
"319 307 LINE SMOOTH",
"492 307 OFFCURVE",
"601 354 OFFCURVE",
"620 508 CURVE SMOOTH",
"643 696 OFFCURVE",
"507 711 OFFCURVE",
"339 711 CURVE SMOOTH",
"136 711 LINE",
"49 0 LINE"
);
},
{
closed = 1;
nodes = (
"248 603 LINE",
"331 603 LINE SMOOTH",
"434 603 OFFCURVE",
"501 603 OFFCURVE",
"490 507 CURVE SMOOTH",
"479 429 OFFCURVE",
"418 413 OFFCURVE",
"330 413 CURVE SMOOTH",
"224 413 LINE"
);
}
);
width = 634;
}
);
unicode = 0050;
userData = {
com.typemytype.robofont.layerData = {
b = {
anchors = (
);
components = (
);
contours = (
{
points = (
{
segmentType = line;
smooth = 0;
x = 360;
y = 828;
},
{
segmentType = line;
smooth = 1;
x = 580;
y = 828;
},
{
smooth = 0;
x = 775;
y = 828;
},
{
smooth = 0;
x = 973;
y = 881;
},
{
segmentType = curve;
smooth = 1;
x = 973;
y = 1077;
},
{
smooth = 0;
x = 973;
y = 1272;
},
{
smooth = 0;
x = 807;
y = 1308;
},
{
segmentType = curve;
smooth = 1;
x = 592;
y = 1308;
},
{
segmentType = line;
smooth = 0;
x = 360;
y = 1308;
}
);
},
{
points = (
{
segmentType = line;
smooth = 0;
x = 360;
y = 148;
},
{
segmentType = line;
smooth = 1;
x = 667;
y = 148;
},
{
smooth = 0;
x = 906;
y = 148;
},
{
smooth = 0;
x = 1041;
y = 230;
},
{
segmentType = curve;
smooth = 1;
x = 1041;
y = 406;
},
{
smooth = 0;
x = 1041;
y = 617;
},
{
smooth = 0;
x = 889;
y = 680;
},
{
segmentType = curve;
smooth = 1;
x = 610;
y = 680;
},
{
segmentType = line;
smooth = 0;
x = 360;
y = 680;
}
);
},
{
points = (
{
segmentType = line;
smooth = 0;
x = 188;
y = 0;
},
{
segmentType = line;
smooth = 0;
x = 188;
y = 1456;
},
{
segmentType = line;
smooth = 1;
x = 502;
y = 1456;
},
{
smooth = 0;
x = 765;
y = 1456;
},
{
smooth = 0;
x = 1154;
y = 1443;
},
{
segmentType = curve;
smooth = 1;
x = 1154;
y = 1105;
},
{
smooth = 0;
x = 1154;
y = 944;
},
{
smooth = 0;
x = 1045;
y = 814;
},
{
segmentType = curve;
smooth = 0;
x = 889;
y = 769;
},
{
smooth = 0;
x = 1086;
y = 734;
},
{
smooth = 0;
x = 1223;
y = 605;
},
{
segmentType = curve;
smooth = 1;
x = 1223;
y = 403;
},
{
smooth = 0;
x = 1223;
y = 189;
},
{
smooth = 0;
x = 1059;
y = 0;
},
{
segmentType = curve;
smooth = 1;
x = 739;
y = 0;
}
);
}
);
lib = {
};
name = P;
unicodes = (
);
width = 1252.6500;
};
};
org.robofab.postScriptHintData = {
};
};
},
{
glyphname = Thorn;
lastChange = "2016-08-22 12:06:28 +0000";
layers = (
{
layerId = "CAA31E91-2985-420A-82BA-6B4D8404D924";
paths = (
{
closed = 1;
nodes = (
"147 0 LINE",
"168 169 LINE",
"291 169 LINE SMOOTH",
"446 169 OFFCURVE",
"573 230 OFFCURVE",
"591 379 CURVE SMOOTH",
"613 557 OFFCURVE",
"487 592 OFFCURVE",
"321 592 CURVE SMOOTH",
"220 592 LINE",
"234 711 LINE",
"141 711 LINE",
"54 0 LINE"
);
},
{
closed = 1;
nodes = (
"210 513 LINE",
"317 513 LINE SMOOTH",
"436 513 OFFCURVE",
"504 487 OFFCURVE",
"491 379 CURVE SMOOTH",
"480 288 OFFCURVE",
"405 248 OFFCURVE",
"303 248 CURVE SMOOTH",
"178 248 LINE"
);
}
);
width = 625;
},
{
layerId = "A678A55B-4A26-4A39-BA40-1A26897903D3";
paths = (
{
closed = 1;
nodes = (
"115 0 LINE",
"137 175 LINE",
"292 175 LINE SMOOTH",
"447 175 OFFCURVE",
"563 237 OFFCURVE",
"582 382 CURVE SMOOTH",
"603 553 OFFCURVE",
"469 591 OFFCURVE",
"304 591 CURVE SMOOTH",
"187 591 LINE",
"202 711 LINE",
"147 711 LINE",
"61 0 LINE"
);
},
{
closed = 1;
nodes = (
"182 542 LINE",
"306 542 LINE SMOOTH",
"447 542 OFFCURVE",
"540 509 OFFCURVE",
"524 380 CURVE SMOOTH",
"511 272 OFFCURVE",
"415 225 OFFCURVE",
"292 225 CURVE SMOOTH",
"143 225 LINE"
);
}
);
width = 613;
},
{
layerId = "1FAC414F-D5EA-4BC8-A215-096CEB3A41C8";
paths = (
{
closed = 1;
nodes = (
"171 0 LINE",
"190 159 LINE",
"278 159 LINE SMOOTH",
"434 159 OFFCURVE",
"580 225 OFFCURVE",
"599 377 CURVE SMOOTH",
"621 560 OFFCURVE",
"491 597 OFFCURVE",
"323 597 CURVE SMOOTH",
"246 597 LINE",
"260 711 LINE",
"136 711 LINE",
"49 0 LINE"
);
},
{
closed = 1;
nodes = (
"231 492 LINE",
"315 492 LINE SMOOTH",
"417 492 OFFCURVE",
"477 470 OFFCURVE",
"466 378 CURVE SMOOTH",
"456 300 OFFCURVE",
"399 266 OFFCURVE",
"313 266 CURVE SMOOTH",
"204 266 LINE"
);
}
);
width = 635;
}
);
unicode = 00DE;
userData = {
com.typemytype.robofont.layerData = {
};
org.robofab.postScriptHintData = {
};
};
},
{
glyphname = Q;
lastChange = "2016-08-22 12:06:28 +0000";
layers = (
{
components = (
{
name = O;
}
);
layerId = "CAA31E91-2985-420A-82BA-6B4D8404D924";
paths = (
{
closed = 1;
nodes = (
"602 -151 LINE",
"602 -151 OFFCURVE",
"517 -49 OFFCURVE",
"485 39 CURVE",
"400 22 LINE",
"440 -91 OFFCURVE",
"540 -209 OFFCURVE",
"540 -209 CURVE"
);
}
);
width = 794;
},
{
associatedMasterId = "CAA31E91-2985-420A-82BA-6B4D8404D924";
layerId = "059834F6-A195-4E73-A6B9-7403F810B9AE";
name = b;
width = 795;
},
{
components = (
{
name = O;
}
);
layerId = "A678A55B-4A26-4A39-BA40-1A26897903D3";
paths = (
{
closed = 1;
nodes = (
"549 -169 LINE",
"549 -169 OFFCURVE",
"467 -76 OFFCURVE",
"432 19 CURVE",
"391 10 LINE",
"422 -88 OFFCURVE",
"515 -198 OFFCURVE",
"515 -198 CURVE"
);
}
);
width = 768;
},
{
components = (
{
name = O;
}
);
layerId = "1FAC414F-D5EA-4BC8-A215-096CEB3A41C8";
paths = (
{
closed = 1;
nodes = (
"635 -145 LINE",
"635 -145 OFFCURVE",
"543 -26 OFFCURVE",
"515 55 CURVE",
"404 33 LINE",
"453 -92 OFFCURVE",
"558 -218 OFFCURVE",
"558 -218 CURVE"
);
}
);
width = 816;
}
);
unicode = 0051;
userData = {
com.typemytype.robofont.layerData = {
b = {
anchors = (
);
components = (
);
contours = (
);
lib = {
};
name = Q;
unicodes = (
);
width = 1628.2000;
};
};
org.robofab.postScriptHintData = {
};
};
},
{
glyphname = R;
lastChange = "2016-08-22 12:06:28 +0000";
layers = (
{
anchors = (
{
name = bot;
position = "{313, 0}";
},
{
name = top;
position = "{362, 711}";
}
);
layerId = "CAA31E91-2985-420A-82BA-6B4D8404D924";
paths = (
{
closed = 1;
nodes = (
"148 0 LINE",
"187 316 LINE",
"314 316 LINE SMOOTH",
"393 316 OFFCURVE",
"410 292 OFFCURVE",
"431 209 CURVE SMOOTH",
"483 0 LINE",
"583 0 LINE",
"525 215 LINE SMOOTH",
"506 285 OFFCURVE",
"487 332 OFFCURVE",
"431 351 CURVE",
"531 371 OFFCURVE",
"581 437 OFFCURVE",
"591 522 CURVE SMOOTH",
"610 677 OFFCURVE",
"507 711 OFFCURVE",
"370 711 CURVE SMOOTH",
"142 711 LINE",
"55 0 LINE"
);
},
{
closed = 1;
nodes = (
"225 632 LINE",
"362 632 LINE SMOOTH",
"460 633 OFFCURVE",
"503 608 OFFCURVE",
"492 517 CURVE SMOOTH",
"481 424 OFFCURVE",
"416 395 OFFCURVE",
"328 395 CURVE SMOOTH",
"196 395 LINE"
);
}
);
width = 665;
},
{
associatedMasterId = "CAA31E91-2985-420A-82BA-6B4D8404D924";
layerId = "C00EC7E2-8FD9-4703-B51E-07CCBE60366F";
name = b;
paths = (
{
closed = 1;
nodes = (
"176 390 LINE",
"300 390 LINE SMOOTH",
"388 390 OFFCURVE",
"455 417 OFFCURVE",
"455 517 CURVE SMOOTH",
"455 615 OFFCURVE",
"407 639 OFFCURVE",
"306 639 CURVE SMOOTH",
"176 639 LINE"
);
},
{
closed = 1;
nodes = (
"92 0 LINE",
"92 711 LINE",
"260 711 LINE SMOOTH",
"376 711 OFFCURVE",
"544 709 OFFCURVE",
"544 524 CURVE SMOOTH",
"544 435 OFFCURVE",
"505 372 OFFCURVE",
"414 349 CURVE",
"414 349 LINE",
"494 323 OFFCURVE",
"507 249 OFFCURVE",
"566 104 CURVE SMOOTH",
"608 0 LINE",
"518 0 LINE",
"438 205 LINE SMOOTH",
"403 293 OFFCURVE",
"389 318 OFFCURVE",
"302 318 CURVE SMOOTH",
"176 318 LINE",
"176 0 LINE"
);
}
);
width = 655;
},
{
anchors = (
{
name = bot;
position = "{295, 0}";
},
{
name = top;
position = "{333, 711}";
}
);
layerId = "A678A55B-4A26-4A39-BA40-1A26897903D3";
paths = (
{
closed = 1;
nodes = (
"119 0 LINE",
"159 328 LINE",
"347 328 LINE SMOOTH",
"437 328 OFFCURVE",
"449 302 OFFCURVE",
"473 199 CURVE SMOOTH",
"519 0 LINE",
"568 0 LINE",
"520 210 LINE SMOOTH",
"498 306 OFFCURVE",
"490 335 OFFCURVE",
"411 349 CURVE",
"510 357 OFFCURVE",
"566 430 OFFCURVE",
"578 526 CURVE SMOOTH",
"594 655 OFFCURVE",
"530 711 OFFCURVE",
"365 711 CURVE SMOOTH",
"153 711 LINE",
"66 0 LINE"
);
},
{
closed = 1;
nodes = (
"202 669 LINE",
"360 669 LINE",
"489 674 OFFCURVE",
"541 631 OFFCURVE",
"528 526 CURVE SMOOTH",
"515 424 OFFCURVE",
"457 370 OFFCURVE",
"338 370 CURVE SMOOTH",
"166 370 LINE"
);
}
);
width = 670;
},
{
anchors = (
{
name = bot;
position = "{312, 0}";
},
{
name = top;
position = "{369, 711}";
}
);
layerId = "1FAC414F-D5EA-4BC8-A215-096CEB3A41C8";
paths = (
{
closed = 1;
nodes = (
"173 0 LINE",
"210 301 LINE",
"308 301 LINE SMOOTH",
"372 301 OFFCURVE",
"394 280 OFFCURVE",
"412 211 CURVE SMOOTH",
"467 0 LINE",
"602 0 LINE",
"534 235 LINE SMOOTH",
"517 295 OFFCURVE",
"487 326 OFFCURVE",
"454 346 CURVE",
"557 369 OFFCURVE",
"608 440 OFFCURVE",
"618 515 CURVE SMOOTH",
"636 672 OFFCURVE",
"540 711 OFFCURVE",
"393 711 CURVE SMOOTH",
"136 711 LINE",
"49 0 LINE"
);
},
{
closed = 1;
nodes = (
"246 604 LINE",
"378 604 LINE SMOOTH",
"458 604 OFFCURVE",
"495 587 OFFCURVE",
"485 509 CURVE SMOOTH",
"476 428 OFFCURVE",
"413 406 OFFCURVE",
"340 406 CURVE SMOOTH",
"221 406 LINE"
);
}
);
width = 678;
}
);
unicode = 0052;
userData = {
com.typemytype.robofont.guides = (
);
com.typemytype.robofont.layerData = {
b = {
anchors = (
);
components = (
);
contours = (
{
points = (
{
segmentType = line;
smooth = 0;
x = 360;
y = 799;
},
{
segmentType = line;
smooth = 1;
x = 615;
y = 799;
},
{
smooth = 0;
x = 795;
y = 799;
},
{
smooth = 0;
x = 932;
y = 854;
},
{
segmentType = curve;
smooth = 1;
x = 932;
y = 1058;
},
{
smooth = 0;
x = 932;
y = 1259;
},
{
smooth = 0;
x = 833;
y = 1308;
},
{
segmentType = curve;
smooth = 1;
x = 626;
y = 1308;
},
{
segmentType = line;
smooth = 0;
x = 360;
y = 1308;
}
);
},
{
points = (
{
segmentType = line;
smooth = 0;
x = 188;
y = 0;
},
{
segmentType = line;
smooth = 0;
x = 188;
y = 1456;
},
{
segmentType = line;
smooth = 1;
x = 533;
y = 1456;
},
{
smooth = 0;
x = 771;
y = 1456;
},
{
smooth = 0;
x = 1114;
y = 1452;
},
{
segmentType = curve;
smooth = 1;
x = 1114;
y = 1074;
},
{
smooth = 0;
x = 1114;
y = 890;
},
{
smooth = 0;
x = 1035;
y = 762;
},
{
segmentType = curve;
smooth = 0;
x = 847;
y = 715;
},
{
segmentType = line;
smooth = 0;
x = 848;
y = 715;
},
{
smooth = 0;
x = 1012;
y = 662;
},
{
smooth = 0;
x = 1039;
y = 510;
},
{
segmentType = curve;
smooth = 1;
x = 1159;
y = 214;
},
{
segmentType = line;
smooth = 0;
x = 1246;
y = 0;
},
{
segmentType = line;
smooth = 0;
x = 1061;
y = 0;
},
{
segmentType = line;
smooth = 1;
x = 896;
y = 419;
},
{
smooth = 0;
x = 825;
y = 600;
},
{
smooth = 0;
x = 797;
y = 652;
},
{
segmentType = curve;
smooth = 1;
x = 619;
y = 652;
},
{
segmentType = line;
smooth = 0;
x = 360;
y = 652;
},
{
segmentType = line;
smooth = 0;
x = 360;
y = 0;
}
);
}
);
lib = {
};
name = R;
unicodes = (
);
width = 1341;
};
};
org.robofab.postScriptHintData = {
};
};
},
{
glyphname = S;
lastChange = "2016-08-22 12:06:28 +0000";
layers = (
{
anchors = (
{
name = bot;
position = "{268, 0}";
},
{
name = top;
position = "{348, 711}";
}
);
layerId = "CAA31E91-2985-420A-82BA-6B4D8404D924";
paths = (
{
closed = 1;
nodes = (
"384 -11 OFFCURVE",
"500 53 OFFCURVE",
"517 186 CURVE SMOOTH",
"531 300 OFFCURVE",
"492 355 OFFCURVE",
"333 405 CURVE",
"323 407 OFFCURVE",
"300 414 OFFCURVE",
"292 417 CURVE",
"196 448 OFFCURVE",
"179 471 OFFCURVE",
"187 539 CURVE SMOOTH",
"196 611 OFFCURVE",
"262 645 OFFCURVE",
"348 645 CURVE SMOOTH",
"423 645 OFFCURVE",
"476 615 OFFCURVE",
"502 586 CURVE",
"557 649 LINE",
"529 680 OFFCURVE",
"478 724 OFFCURVE",
"346 724 CURVE SMOOTH",
"212 724 OFFCURVE",
"103 660 OFFCURVE",
"88 536 CURVE SMOOTH",
"73 418 OFFCURVE",
"134 370 OFFCURVE",
"257 333 CURVE",
"268 329 OFFCURVE",
"292 323 OFFCURVE",
"300 320 CURVE",
"411 284 OFFCURVE",
"429 254 OFFCURVE",
"420 186 CURVE SMOOTH",
"410 112 OFFCURVE",
"354 68 OFFCURVE",
"258 68 CURVE SMOOTH",
"174 68 OFFCURVE",
"105 112 OFFCURVE",
"78 137 CURVE",
"28 69 LINE",
"53 42 OFFCURVE",
"132 -11 OFFCURVE",
"252 -11 CURVE SMOOTH"
);
}
);
width = 593;
},
{
associatedMasterId = "CAA31E91-2985-420A-82BA-6B4D8404D924";
layerId = "C46FEBC6-09D6-4A75-8CD3-4448B62F9179";
name = b;
paths = (
{
closed = 1;
nodes = (
"291 -11 CURVE SMOOTH",
"157 -11 OFFCURVE",
"77 59 OFFCURVE",
"68 69 CURVE",
"107 132 LINE",
"125 119 OFFCURVE",
"192 61 OFFCURVE",
"291 61 CURVE SMOOTH",
"389 61 OFFCURVE",
"438 100 OFFCURVE",
"438 176 CURVE SMOOTH",
"438 262 OFFCURVE",
"346 293 OFFCURVE",
"254 333 CURVE SMOOTH",
"163 372 OFFCURVE",
"71 418 OFFCURVE",
"71 535 CURVE SMOOTH",
"71 659 OFFCURVE",
"174 724 OFFCURVE",
"303 724 CURVE SMOOTH",
"435 724 OFFCURVE",
"493 665 OFFCURVE",
"505 652 CURVE",
"464 594 LINE",
"450 606 OFFCURVE",
"400 651 OFFCURVE",
"313 651 CURVE SMOOTH",
"233 651 OFFCURVE",
"160 620 OFFCURVE",
"160 540 CURVE SMOOTH",
"160 456 OFFCURVE",
"251 424 OFFCURVE",
"343 383 CURVE SMOOTH",
"435 343 OFFCURVE",
"526 294 OFFCURVE",
"526 178 CURVE SMOOTH",
"526 38 OFFCURVE",
"424 -11 OFFCURVE"
);
}
);
width = 591;
},
{
anchors = (
{
name = bot;
position = "{249, 0}";
},
{
name = top;
position = "{340, 711}";
}
);
layerId = "A678A55B-4A26-4A39-BA40-1A26897903D3";
paths = (
{
closed = 1;
nodes = (
"378 -10 OFFCURVE",
"469 65 OFFCURVE",
"486 177 CURVE SMOOTH",
"502 286 OFFCURVE",
"477 341 OFFCURVE",
"318 383 CURVE SMOOTH",
"248 401 LINE SMOOTH",
"151 427 OFFCURVE",
"128 459 OFFCURVE",
"138 543 CURVE SMOOTH",
"149 630 OFFCURVE",
"217 681 OFFCURVE",
"323 681 CURVE SMOOTH",
"426 681 OFFCURVE",
"471 639 OFFCURVE",
"484 624 CURVE",
"512 660 LINE",
"501 669 OFFCURVE",
"459 723 OFFCURVE",
"328 723 CURVE SMOOTH",
"189 723 OFFCURVE",
"99 655 OFFCURVE",
"85 543 CURVE SMOOTH",
"72 432 OFFCURVE",
"125 386 OFFCURVE",
"231 357 CURVE SMOOTH",
"301 338 LINE SMOOTH",
"424 305 OFFCURVE",
"451 271 OFFCURVE",
"437 176 CURVE SMOOTH",
"423 91 OFFCURVE",
"351 32 OFFCURVE",
"246 32 CURVE SMOOTH",
"133 32 OFFCURVE",
"84 85 OFFCURVE",
"63 105 CURVE",
"34 69 LINE",
"50 56 OFFCURVE",
"104 -10 OFFCURVE",
"241 -10 CURVE SMOOTH"
);
}
);
width = 552;
},
{
anchors = (
{
name = bot;
position = "{268, 0}";
},
{
name = top;
position = "{343, 711}";
}
);
layerId = "1FAC414F-D5EA-4BC8-A215-096CEB3A41C8";
paths = (
{
closed = 1;
nodes = (
"389 -11 OFFCURVE",
"519 43 OFFCURVE",
"537 191 CURVE SMOOTH",
"550 299 OFFCURVE",
"517 350 OFFCURVE",
"406 396 CURVE SMOOTH",
"375 408 OFFCURVE",
"333 421 OFFCURVE",
"303 432 CURVE SMOOTH",
"215 464 OFFCURVE",
"205 486 OFFCURVE",
"211 536 CURVE SMOOTH",
"218 594 OFFCURVE",
"280 617 OFFCURVE",
"352 617 CURVE SMOOTH",
"400 617 OFFCURVE",
"465 610 OFFCURVE",
"511 560 CURVE",
"585 642 LINE",
"532 700 OFFCURVE",
"479 724 OFFCURVE",
"347 724 CURVE SMOOTH",
"209 724 OFFCURVE",
"94 659 OFFCURVE",
"78 531 CURVE SMOOTH",
"65 424 OFFCURVE",
"113 373 OFFCURVE",
"220 330 CURVE",
"251 319 OFFCURVE",
"289 307 OFFCURVE",
"316 297 CURVE SMOOTH",
"405 263 OFFCURVE",
"411 240 OFFCURVE",
"405 193 CURVE SMOOTH",
"397 127 OFFCURVE",
"352 95 OFFCURVE",
"264 95 CURVE SMOOTH",
"210 95 OFFCURVE",
"127 122 OFFCURVE",
"84 159 CURVE",
"21 70 LINE",
"67 18 OFFCURVE",
"165 -11 OFFCURVE",
"259 -11 CURVE SMOOTH"
);
}
);
width = 613;
}
);
unicode = 0053;
userData = {
com.typemytype.robofont.layerData = {
b = {
anchors = (
);
components = (
);
contours = (
{
points = (
{
segmentType = curve;
smooth = 1;
x = 596;
y = -23;
},
{
smooth = 0;
x = 321;
y = -23;
},
{
smooth = 0;
x = 158;
y = 120;
},
{
segmentType = curve;
smooth = 0;
x = 140;
y = 141;
},
{
segmentType = line;
smooth = 0;
x = 219;
y = 271;
},
{
smooth = 0;
x = 256;
y = 243;
},
{
smooth = 0;
x = 393;
y = 125;
},
{
segmentType = curve;
smooth = 1;
x = 595;
y = 125;
},
{
smooth = 0;
x = 797;
y = 125;
},
{
smooth = 0;
x = 898;
y = 204;
},
{
segmentType = curve;
smooth = 1;
x = 898;
y = 360;
},
{
smooth = 0;
x = 898;
y = 536;
},
{
smooth = 0;
x = 709;
y = 601;
},
{
segmentType = curve;
smooth = 1;
x = 521;
y = 681;
},
{
smooth = 0;
x = 333;
y = 761;
},
{
smooth = 0;
x = 145;
y = 857;
},
{
segmentType = curve;
smooth = 1;
x = 145;
y = 1095;
},
{
smooth = 0;
x = 145;
y = 1350;
},
{
smooth = 0;
x = 357;
y = 1483;
},
{
segmentType = curve;
smooth = 1;
x = 620;
y = 1483;
},
{
smooth = 0;
x = 891;
y = 1483;
},
{
smooth = 0;
x = 1009;
y = 1362;
},
{
segmentType = curve;
smooth = 0;
x = 1034;
y = 1335;
},
{
segmentType = line;
smooth = 0;
x = 951;
y = 1217;
},
{
smooth = 0;
x = 921;
y = 1242;
},
{
smooth = 0;
x = 819;
y = 1334;
},
{
segmentType = curve;
smooth = 1;
x = 640;
y = 1334;
},
{
smooth = 0;
x = 478;
y = 1334;
},
{
smooth = 0;
x = 328;
y = 1270;
},
{
segmentType = curve;
smooth = 1;
x = 328;
y = 1105;
},
{
smooth = 0;
x = 328;
y = 934;
},
{
smooth = 0;
x = 515;
y = 868;
},
{
segmentType = curve;
smooth = 1;
x = 703;
y = 785;
},
{
smooth = 0;
x = 891;
y = 702;
},
{
smooth = 0;
x = 1078;
y = 602;
},
{
segmentType = curve;
smooth = 1;
x = 1078;
y = 364;
},
{
smooth = 0;
x = 1078;
y = 78;
},
{
smooth = 0;
x = 868;
y = -23;
}
);
}
);
lib = {
};
name = S;
unicodes = (
);
width = 1211;
};
};
org.robofab.postScriptHintData = {
};
};
},
{
glyphname = T;
lastChange = "2016-08-22 12:06:28 +0000";
layers = (
{
anchors = (
{
name = bot;
position = "{240, 0}";
},
{
name = mid;
position = "{280, 366}";
},
{
name = top;
position = "{322, 711}";
}
);
layerId = "CAA31E91-2985-420A-82BA-6B4D8404D924";
paths = (
{
closed = 1;
nodes = (
"282 0 LINE",
"359 632 LINE",
"588 632 LINE",
"597 711 LINE",
"48 711 LINE",
"39 632 LINE",
"266 632 LINE",
"188 0 LINE"
);
}
);
width = 559;
},
{
anchors = (
{
name = bot;
position = "{225, 0}";
},
{
name = mid;
position = "{272, 378}";
},
{
name = top;
position = "{312, 711}";
}
);
layerId = "A678A55B-4A26-4A39-BA40-1A26897903D3";
paths = (
{
closed = 1;
nodes = (
"250 0 LINE",
"333 669 LINE",
"570 669 LINE",
"575 711 LINE",
"47 711 LINE",
"42 669 LINE",
"280 669 LINE",
"198 0 LINE"
);
}
);
width = 536;
},
{
anchors = (
{
name = bot;
position = "{249, 0}";
},
{
name = mid;
position = "{297, 360}";
},
{
name = top;
position = "{339, 711}";
}
);
layerId = "1FAC414F-D5EA-4BC8-A215-096CEB3A41C8";
paths = (
{
closed = 1;
nodes = (
"305 0 LINE",
"379 604 LINE",
"602 604 LINE",
"615 711 LINE",
"49 711 LINE",
"36 604 LINE",
"255 604 LINE",
"181 0 LINE"
);
}
);
width = 577;
}
);
unicode = 0054;
userData = {
com.typemytype.robofont.layerData = {
};
org.robofab.postScriptHintData = {
};
};
},
{
glyphname = U;
lastChange = "2016-08-22 12:06:28 +0000";
layers = (
{
anchors = (
{
name = ogonek;
position = "{347, 0}";
},
{
name = top;
position = "{409, 711}";
}
);
layerId = "CAA31E91-2985-420A-82BA-6B4D8404D924";
paths = (
{
closed = 1;
nodes = (
"524 -11 OFFCURVE",
"615 106 OFFCURVE",
"636 274 CURVE SMOOTH",
"690 711 LINE",
"597 711 LINE",
"543 270 LINE SMOOTH",
"526 129 OFFCURVE",
"449 68 OFFCURVE",
"330 68 CURVE SMOOTH",
"207 68 OFFCURVE",
"149 130 OFFCURVE",
"167 271 CURVE SMOOTH",
"221 711 LINE",
"127 711 LINE",
"73 273 LINE SMOOTH",
"53 110 OFFCURVE",
"107 -11 OFFCURVE",
"319 -11 CURVE SMOOTH"
);
}
);
width = 730;
},
{
associatedMasterId = "CAA31E91-2985-420A-82BA-6B4D8404D924";
layerId = "E91BEF1C-07E6-41C0-A80D-DB5899BF97C4";
name = b;
width = 731;
},
{
anchors = (
{
name = bot;
position = "{318, 0}";
},
{
name = ogonek;
position = "{347, 0}";
},
{
name = top;
position = "{409, 711}";
}
);
layerId = "A678A55B-4A26-4A39-BA40-1A26897903D3";
paths = (
{
closed = 1;
nodes = (
"489 -10 OFFCURVE",
"594 80 OFFCURVE",
"617 251 CURVE SMOOTH",
"673 711 LINE",
"621 711 LINE",
"563 247 LINE SMOOTH",
"546 106 OFFCURVE",
"461 32 OFFCURVE",
"318 32 CURVE SMOOTH",
"175 32 OFFCURVE",
"109 106 OFFCURVE",
"126 247 CURVE SMOOTH",
"183 711 LINE",
"130 711 LINE",
"74 251 LINE SMOOTH",
"53 80 OFFCURVE",
"135 -10 OFFCURVE",
"313 -10 CURVE SMOOTH"
);
}
);
width = 723;
},
{
anchors = (
{
name = ogonek;
position = "{401, 0}";
},
{
name = top;
position = "{411, 711}";
}
);
layerId = "1FAC414F-D5EA-4BC8-A215-096CEB3A41C8";
paths = (
{
closed = 1;
nodes = (
"563 -11 OFFCURVE",
"630 133 OFFCURVE",
"650 292 CURVE SMOOTH",
"701 711 LINE",
"577 711 LINE",
"524 288 LINE SMOOTH",
"506 137 OFFCURVE",
"431 95 OFFCURVE",
"337 95 CURVE SMOOTH",
"246 95 OFFCURVE",
"178 137 OFFCURVE",
"196 287 CURVE SMOOTH",
"249 711 LINE",
"125 711 LINE",
"73 292 LINE SMOOTH",
"53 131 OFFCURVE",
"89 -11 OFFCURVE",
"324 -11 CURVE SMOOTH"
);
}
);
width = 737;
}
);
unicode = 0055;
userData = {
com.typemytype.robofont.layerData = {
b = {
anchors = (
);
components = (
);
contours = (
);
lib = {
};
name = U;
unicodes = (
);
width = 1496.9000;
};
};
org.robofab.postScriptHintData = {
};
};
},
{
glyphname = V;
lastChange = "2016-08-22 12:06:28 +0000";
layers = (
{
layerId = "CAA31E91-2985-420A-82BA-6B4D8404D924";
paths = (
{
closed = 1;
nodes = (
"335 0 LINE",
"687 711 LINE",
"589 711 LINE",
"355 224 LINE",
"302 111 LINE",
"274 226 LINE",
"162 711 LINE",
"58 711 LINE",
"238 0 LINE"
);
}
);
width = 658;
},
{
associatedMasterId = "CAA31E91-2985-420A-82BA-6B4D8404D924";
layerId = "43807E62-E836-41AD-BED8-AC6780B681A9";
name = b;
width = 645;
},
{
layerId = "A678A55B-4A26-4A39-BA40-1A26897903D3";
paths = (
{
closed = 1;
nodes = (
"327 0 LINE",
"672 711 LINE",
"617 711 LINE",
"377 211 LINE",
"300 44 LINE",
"261 212 LINE",
"144 711 LINE",
"89 711 LINE",
"263 0 LINE"
);
}
);
width = 674;
},
{
layerId = "1FAC414F-D5EA-4BC8-A215-096CEB3A41C8";
paths = (
{
closed = 1;
nodes = (
"358 0 LINE",
"715 711 LINE",
"585 711 LINE",
"387 300 LINE",
"319 163 LINE",
"286 299 LINE",
"191 711 LINE",
"52 711 LINE",
"235 0 LINE"
);
}
);
width = 680;
}
);
unicode = 0056;
userData = {
com.typemytype.robofont.layerData = {
b = {
anchors = (
);
components = (
);
contours = (
);
lib = {
};
name = V;
unicodes = (
);
width = 1320.1500;
};
};
org.robofab.postScriptHintData = {
};
};
},
{
glyphname = W;
lastChange = "2016-08-22 12:06:28 +0000";
layers = (
{
anchors = (
{
name = top;
position = "{542, 711}";
}
);
layerId = "CAA31E91-2985-420A-82BA-6B4D8404D924";
paths = (
{
closed = 1;
nodes = (
"279 0 LINE",
"524 585 LINE",
"625 0 LINE",
"734 0 LINE",
"1010 711 LINE",
"914 711 LINE",
"731 215 LINE",
"694 107 LINE",
"676 217 LINE",
"587 711 LINE",
"494 711 LINE",
"287 219 LINE",
"242 106 LINE",
"229 221 LINE",
"164 711 LINE",
"64 711 LINE",
"171 0 LINE"
);
}
);
width = 987;
},
{
associatedMasterId = "CAA31E91-2985-420A-82BA-6B4D8404D924";
layerId = "CC9CA926-1059-4AD5-824D-AB3B8989B74F";
name = b;
width = 971;
},
{
anchors = (
{
name = top;
position = "{547, 711}";
}
);
layerId = "A678A55B-4A26-4A39-BA40-1A26897903D3";
paths = (
{
closed = 1;
nodes = (
"270 0 LINE",
"538 645 LINE",
"644 0 LINE",
"707 0 LINE",
"971 711 LINE",
"917 711 LINE",
"699 104 LINE",
"681 57 LINE",
"675 104 LINE",
"571 711 LINE",
"518 711 LINE",
"266 104 LINE",
"246 50 LINE",
"244 104 LINE",
"167 711 LINE",
"111 711 LINE",
"208 0 LINE"
);
}
);
width = 995;
},
{
anchors = (
{
name = top;
position = "{558, 711}";
}
);
layerId = "1FAC414F-D5EA-4BC8-A215-096CEB3A41C8";
paths = (
{
closed = 1;
nodes = (
"306 0 LINE",
"534 540 LINE",
"634 0 LINE",
"776 0 LINE",
"1061 711 LINE",
"933 711 LINE",
"785 315 LINE",
"724 147 LINE",
"696 313 LINE",
"617 711 LINE",
"499 711 LINE",
"328 319 LINE",
"259 149 LINE",
"238 318 LINE",
"181 711 LINE",
"49 711 LINE",
"166 0 LINE"
);
}
);
width = 1023;
}
);
unicode = 0057;
userData = {
com.typemytype.robofont.layerData = {
b = {
anchors = (
);
components = (
);
contours = (
);
lib = {
};
name = W;
unicodes = (
);
width = 1988.8500;
};
};
org.robofab.postScriptHintData = {
};
};
},
{
glyphname = X;
lastChange = "2016-08-22 12:06:28 +0000";
layers = (
{
layerId = "CAA31E91-2985-420A-82BA-6B4D8404D924";
paths = (
{
closed = 1;
nodes = (
"82 0 LINE",
"312 288 LINE",
"467 0 LINE",
"578 0 LINE",
"377 365 LINE",
"656 711 LINE",
"550 711 LINE",
"333 438 LINE",
"184 711 LINE",
"71 711 LINE",
"267 361 LINE",
"-26 0 LINE"
);
}
);
width = 636;
},
{
associatedMasterId = "CAA31E91-2985-420A-82BA-6B4D8404D924";
layerId = "190E68A6-4F6C-4936-8C97-816BC06627DD";
name = b;
width = 614;
},
{
layerId = "A678A55B-4A26-4A39-BA40-1A26897903D3";
paths = (
{
closed = 1;
nodes = (
"70 0 LINE",
"325 324 LINE",
"487 0 LINE",
"541 0 LINE",
"357 363 LINE",
"620 711 LINE",
"564 711 LINE",
"332 397 LINE",
"166 711 LINE",
"108 711 LINE",
"298 361 LINE",
"15 0 LINE"
);
}
);
width = 643;
},
{
layerId = "1FAC414F-D5EA-4BC8-A215-096CEB3A41C8";
paths = (
{
closed = 1;
nodes = (
"116 0 LINE",
"331 260 LINE",
"477 0 LINE",
"631 0 LINE",
"422 365 LINE",
"713 711 LINE",
"569 711 LINE",
"364 465 LINE",
"228 711 LINE",
"73 711 LINE",
"272 359 LINE",
"-33 0 LINE"
);
}
);
width = 687;
}
);
unicode = 0058;
userData = {
com.typemytype.robofont.layerData = {
b = {
anchors = (
);
components = (
);
contours = (
);
lib = {
};
name = X;
unicodes = (
);
width = 1257.7000;
};
};
org.robofab.postScriptHintData = {
};
};
},
{
glyphname = Y;
lastChange = "2016-08-22 12:06:28 +0000";
layers = (
{
anchors = (
{
name = top;
position = "{356, 711}";
}
);
layerId = "CAA31E91-2985-420A-82BA-6B4D8404D924";
paths = (
{
closed = 1;
nodes = (
"305 0 LINE",
"339 282 LINE",
"642 711 LINE",
"538 711 LINE",
"305 363 LINE",
"157 711 LINE",
"54 711 LINE",
"246 281 LINE",
"211 0 LINE"
);
}
);
width = 605;
},
{
associatedMasterId = "CAA31E91-2985-420A-82BA-6B4D8404D924";
layerId = "DAEEF9C2-68CA-4054-AFB5-536A5F34C4AA";
name = b;
width = 598;
},
{
anchors = (
{
name = top;
position = "{343, 711}";
}
);
layerId = "A678A55B-4A26-4A39-BA40-1A26897903D3";
paths = (
{
closed = 1;
nodes = (
"283 0 LINE",
"318 290 LINE",
"607 711 LINE",
"556 711 LINE",
"298 333 LINE",
"136 711 LINE",
"83 711 LINE",
"265 289 LINE",
"230 0 LINE"
);
}
);
width = 603;
},
{
anchors = (
{
name = top;
position = "{366, 711}";
}
);
layerId = "1FAC414F-D5EA-4BC8-A215-096CEB3A41C8";
paths = (
{
closed = 1;
nodes = (
"327 0 LINE",
"360 275 LINE",
"673 711 LINE",
"529 711 LINE",
"313 385 LINE",
"178 711 LINE",
"37 711 LINE",
"236 275 LINE",
"203 0 LINE"
);
}
);
width = 625;
}
);
unicode = 0059;
userData = {
com.typemytype.robofont.layerData = {
b = {
anchors = (
);
components = (
);
contours = (
);
lib = {
};
name = Y;
unicodes = (
);
width = 1225.4500;
};
};
org.robofab.postScriptHintData = {
};
};
},
{
glyphname = Z;
lastChange = "2016-08-22 12:06:28 +0000";
layers = (
{
anchors = (
{
name = top;
position = "{341, 711}";
}
);
layerId = "CAA31E91-2985-420A-82BA-6B4D8404D924";
paths = (
{
closed = 1;
nodes = (
"487 0 LINE",
"497 79 LINE",
"135 79 LINE",
"570 663 LINE",
"576 711 LINE",
"106 711 LINE",
"96 632 LINE",
"442 632 LINE",
"10 50 LINE",
"4 0 LINE"
);
}
);
width = 579;
},
{
associatedMasterId = "CAA31E91-2985-420A-82BA-6B4D8404D924";
layerId = "4CBDD82E-7F52-4D5B-9574-4A23590A1BE6";
name = b;
width = 576;
},
{
anchors = (
{
name = top;
position = "{348, 711}";
}
);
layerId = "A678A55B-4A26-4A39-BA40-1A26897903D3";
paths = (
{
closed = 1;
nodes = (
"477 0 LINE",
"482 42 LINE",
"89 42 LINE",
"563 683 LINE",
"566 711 LINE",
"126 711 LINE",
"122 669 LINE",
"498 669 LINE",
"25 30 LINE",
"22 0 LINE"
);
}
);
width = 577;
},
{
anchors = (
{
name = top;
position = "{354, 711}";
}
);
layerId = "1FAC414F-D5EA-4BC8-A215-096CEB3A41C8";
paths = (
{
closed = 1;
nodes = (
"499 0 LINE",
"511 106 LINE",
"174 106 LINE",
"579 646 LINE",
"586 711 LINE",
"91 711 LINE",
"78 604 LINE",
"402 604 LINE",
"0 66 LINE",
"-9 0 LINE"
);
}
);
width = 587;
}
);
unicode = 005A;
userData = {
com.typemytype.robofont.layerData = {
b = {
anchors = (
);
components = (
);
contours = (
);
lib = {
};
name = Z;
unicodes = (
);
width = 1179.4500;
};
};
org.robofab.postScriptHintData = {
};
};
},
{
glyphname = a;
lastChange = "2016-08-22 12:06:28 +0000";
layers = (
{
anchors = (
{
name = ogonek;
position = "{467, 0}";
},
{
name = top;
position = "{320, 501}";
}
);
layerId = "CAA31E91-2985-420A-82BA-6B4D8404D924";
paths = (
{
closed = 1;
nodes = (
"331 -11 OFFCURVE",
"394 27 OFFCURVE",
"430 85 CURVE",
"419 0 LINE",
"509 0 LINE",
"570 501 LINE",
"481 501 LINE",
"472 421 LINE",
"449 474 OFFCURVE",
"393 514 OFFCURVE",
"320 514 CURVE SMOOTH",
"173 514 OFFCURVE",
"67 396 OFFCURVE",
"49 250 CURVE SMOOTH",
"32 110 OFFCURVE",
"102 -11 OFFCURVE",
"255 -11 CURVE SMOOTH"
);
},
{
closed = 1;
nodes = (
"168 63 OFFCURVE",
"127 146 OFFCURVE",
"140 253 CURVE SMOOTH",
"153 359 OFFCURVE",
"214 440 OFFCURVE",
"322 440 CURVE SMOOTH",
"425 440 OFFCURVE",
"467 360 OFFCURVE",
"454 254 CURVE SMOOTH",
"440 141 OFFCURVE",
"380 63 OFFCURVE",
"277 63 CURVE SMOOTH"
);
}
);
width = 622;
},
{
associatedMasterId = "CAA31E91-2985-420A-82BA-6B4D8404D924";
layerId = "323F2A9E-6DB7-464B-A7B8-21A676C57371";
name = b;
paths = (
{
closed = 1;
nodes = (
"291 -11 CURVE SMOOTH",
"128 -11 OFFCURVE",
"49 108 OFFCURVE",
"49 253 CURVE SMOOTH",
"49 402 OFFCURVE",
"140 514 OFFCURVE",
"294 514 CURVE SMOOTH",
"398 514 OFFCURVE",
"442 441 OFFCURVE",
"453 414 CURVE",
"453 501 LINE",
"533 501 LINE",
"533 0 LINE",
"453 0 LINE",
"453 90 LINE",
"430 40 OFFCURVE",
"375 -11 OFFCURVE"
);
},
{
closed = 1;
nodes = (
"297 448 CURVE SMOOTH",
"175 448 OFFCURVE",
"132 354 OFFCURVE",
"132 252 CURVE SMOOTH",
"132 150 OFFCURVE",
"178 55 OFFCURVE",
"297 55 CURVE SMOOTH",
"397 55 OFFCURVE",
"456 135 OFFCURVE",
"456 257 CURVE SMOOTH",
"456 358 OFFCURVE",
"403 448 OFFCURVE"
);
}
);
width = 619;
},
{
anchors = (
{
name = ogonek;
position = "{457, 0}";
},
{
name = top;
position = "{318, 501}";
}
);
layerId = "A678A55B-4A26-4A39-BA40-1A26897903D3";
paths = (
{
closed = 1;
nodes = (
"339 -10 OFFCURVE",
"406 38 OFFCURVE",
"444 105 CURVE",
"432 0 LINE",
"479 0 LINE",
"541 501 LINE",
"493 501 LINE",
"481 403 LINE",
"461 467 OFFCURVE",
"402 514 OFFCURVE",
"316 514 CURVE SMOOTH",
"172 514 OFFCURVE",
"66 413 OFFCURVE",
"47 256 CURVE SMOOTH",
"27 94 OFFCURVE",
"106 -10 OFFCURVE",
"250 -10 CURVE SMOOTH"
);
},
{
closed = 1;
nodes = (
"142 30 OFFCURVE",
"79 118 OFFCURVE",
"96 256 CURVE SMOOTH",
"112 388 OFFCURVE",
"197 474 OFFCURVE",
"311 474 CURVE SMOOTH",
"420 474 OFFCURVE",
"479 388 OFFCURVE",
"463 256 CURVE SMOOTH",
"446 118 OFFCURVE",
"370 30 OFFCURVE",
"256 30 CURVE SMOOTH"
);
}
);
width = 612;
},
{
anchors = (
{
name = ogonek;
position = "{468, 0}";
},
{
name = top;
position = "{372, 501}";
}
);
layerId = "1FAC414F-D5EA-4BC8-A215-096CEB3A41C8";
paths = (
{
closed = 1;
nodes = (
"335 -11 OFFCURVE",
"387 28 OFFCURVE",
"419 68 CURVE",
"411 0 LINE",
"533 0 LINE",
"594 501 LINE",
"476 501 LINE",
"469 447 LINE",
"444 488 OFFCURVE",
"405 514 OFFCURVE",
"337 514 CURVE SMOOTH",
"165 514 OFFCURVE",
"68 381 OFFCURVE",
"52 245 CURVE SMOOTH",
"36 118 OFFCURVE",
"98 -11 OFFCURVE",
"267 -11 CURVE SMOOTH"
);
},
{
closed = 1;
nodes = (
"198 86 OFFCURVE",
"161 155 OFFCURVE",
"173 251 CURVE SMOOTH",
"185 349 OFFCURVE",
"240 416 OFFCURVE",
"333 416 CURVE SMOOTH",
"428 416 OFFCURVE",
"461 349 OFFCURVE",
"449 250 CURVE SMOOTH",
"438 159 OFFCURVE",
"393 86 OFFCURVE",
"293 86 CURVE SMOOTH"
);
}
);
width = 630;
}
);
unicode = 0061;
userData = {
com.typemytype.robofont.layerData = {
b = {
anchors = (
);
components = (
);
contours = (
{
points = (
{
segmentType = curve;
smooth = 1;
x = 595;
y = -22;
},
{
smooth = 0;
x = 262;
y = -22;
},
{
smooth = 0;
x = 100;
y = 221;
},
{
segmentType = curve;
smooth = 1;
x = 100;
y = 518;
},
{
smooth = 0;
x = 100;
y = 824;
},
{
smooth = 0;
x = 287;
y = 1052;
},
{
segmentType = curve;
smooth = 1;
x = 603;
y = 1052;
},
{
smooth = 0;
x = 816;
y = 1052;
},
{
smooth = 0;
x = 905;
y = 903;
},
{
segmentType = curve;
smooth = 0;
x = 928;
y = 847;
},
{
segmentType = line;
smooth = 0;
x = 928;
y = 1026;
},
{
segmentType = line;
smooth = 0;
x = 1092;
y = 1026;
},
{
segmentType = line;
smooth = 0;
x = 1092;
y = 0;
},
{
segmentType = line;
smooth = 0;
x = 928;
y = 0;
},
{
segmentType = line;
smooth = 0;
x = 928;
y = 185;
},
{
smooth = 0;
x = 881;
y = 82;
},
{
smooth = 0;
x = 769;
y = -22;
}
);
},
{
points = (
{
segmentType = curve;
smooth = 1;
x = 608;
y = 918;
},
{
smooth = 0;
x = 359;
y = 918;
},
{
smooth = 0;
x = 270;
y = 725;
},
{
segmentType = curve;
smooth = 1;
x = 270;
y = 516;
},
{
smooth = 0;
x = 270;
y = 308;
},
{
smooth = 0;
x = 364;
y = 112;
},
{
segmentType = curve;
smooth = 1;
x = 609;
y = 112;
},
{
smooth = 0;
x = 813;
y = 112;
},
{
smooth = 0;
x = 934;
y = 277;
},
{
segmentType = curve;
smooth = 1;
x = 934;
y = 526;
},
{
smooth = 0;
x = 934;
y = 734;
},
{
smooth = 0;
x = 826;
y = 918;
}
);
}
);
lib = {
};
name = a;
unicodes = (
);
width = 1268;
};
};
org.robofab.postScriptHintData = {
};
};
},
{
glyphname = ae;
lastChange = "2016-08-22 12:06:28 +0000";
layers = (
{
anchors = (
{
name = top;
position = "{471, 501}";
}
);
layerId = "CAA31E91-2985-420A-82BA-6B4D8404D924";
paths = (
{
closed = 1;
nodes = (
"293 -12 OFFCURVE",
"372 41 OFFCURVE",
"413 110 CURVE",
"437 38 OFFCURVE",
"502 -9 OFFCURVE",
"588 -11 CURVE SMOOTH",
"709 -13 OFFCURVE",
"787 51 OFFCURVE",
"787 51 CURVE",
"769 117 LINE",
"769 117 OFFCURVE",
"694 59 OFFCURVE",
"600 63 CURVE SMOOTH",
"502 66 OFFCURVE",
"466 131 OFFCURVE",
"474 224 CURVE SMOOTH",
"475 237 LINE",
"824 237 LINE",
"824 237 OFFCURVE",
"827 250 OFFCURVE",
"827 255 CURVE",
"846 409 OFFCURVE",
"784 516 OFFCURVE",
"643 514 CURVE SMOOTH",
"567 513 OFFCURVE",
"501 472 OFFCURVE",
"458 410 CURVE",
"441 478 OFFCURVE",
"372 514 OFFCURVE",
"304 514 CURVE SMOOTH",
"195 514 OFFCURVE",
"115 472 OFFCURVE",
"102 465 CURVE",
"121 401 LINE",
"155 417 OFFCURVE",
"220 441 OFFCURVE",
"283 441 CURVE SMOOTH",
"365 441 OFFCURVE",
"402 383 OFFCURVE",
"392 300 CURVE",
"358 300 LINE SMOOTH",
"170 300 OFFCURVE",
"45 279 OFFCURVE",
"28 139 CURVE SMOOTH",
"17 44 OFFCURVE",
"86 -12 OFFCURVE",
"196 -12 CURVE SMOOTH"
);
},
{
closed = 1;
nodes = (
"157 62 OFFCURVE",
"111 84 OFFCURVE",
"118 144 CURVE SMOOTH",
"127 218 OFFCURVE",
"208 237 OFFCURVE",
"310 237 CURVE SMOOTH",
"384 237 LINE",
"373 147 OFFCURVE",
"320 62 OFFCURVE",
"212 62 CURVE SMOOTH"
);
},
{
closed = 1;
nodes = (
"502 374 OFFCURVE",
"556 442 OFFCURVE",
"640 442 CURVE SMOOTH",
"717 442 OFFCURVE",
"755 384 OFFCURVE",
"754 307 CURVE",
"753 299 LINE",
"483 299 LINE"
);
}
);
width = 875;
},
{
associatedMasterId = "CAA31E91-2985-420A-82BA-6B4D8404D924";
components = (
{
name = e;
transform = "{1, 0, 0, 1, 313, 0}";
}
);
layerId = "2176A3E9-DE34-457A-923F-4314F30EA4DD";
name = b;
width = 874;
},
{
anchors = (
{
name = top;
position = "{480, 501}";
}
);
layerId = "A678A55B-4A26-4A39-BA40-1A26897903D3";
paths = (
{
closed = 1;
nodes = (
"326 -10 OFFCURVE",
"400 67 OFFCURVE",
"427 136 CURVE",
"443 51 OFFCURVE",
"509 -10 OFFCURVE",
"609 -10 CURVE SMOOTH",
"721 -10 OFFCURVE",
"795 53 OFFCURVE",
"795 53 CURVE",
"781 86 LINE",
"781 86 OFFCURVE",
"712 30 OFFCURVE",
"614 30 CURVE SMOOTH",
"491 30 OFFCURVE",
"456 132 OFFCURVE",
"468 231 CURVE SMOOTH",
"470 249 LINE",
"843 249 LINE",
"844 257 LINE SMOOTH",
"865 426 OFFCURVE",
"790 514 OFFCURVE",
"670 514 CURVE SMOOTH",
"579 514 OFFCURVE",
"498 456 OFFCURVE",
"458 375 CURVE",
"451 459 OFFCURVE",
"388 514 OFFCURVE",
"291 514 CURVE SMOOTH",
"180 514 OFFCURVE",
"115 479 OFFCURVE",
"97 471 CURVE",
"109 432 LINE",
"135 445 OFFCURVE",
"194 474 OFFCURVE",
"286 474 CURVE SMOOTH",
"385 474 OFFCURVE",
"430 391 OFFCURVE",
"417 282 CURVE",
"318 282 LINE SMOOTH",
"146 282 OFFCURVE",
"50 263 OFFCURVE",
"34 134 CURVE SMOOTH",
"23 44 OFFCURVE",
"91 -10 OFFCURVE",
"198 -10 CURVE SMOOTH"
);
},
{
closed = 1;
nodes = (
"131 30 OFFCURVE",
"72 60 OFFCURVE",
"82 137 CURVE SMOOTH",
"93 230 OFFCURVE",
"149 248 OFFCURVE",
"306 248 CURVE SMOOTH",
"414 248 LINE",
"399 122 OFFCURVE",
"329 30 OFFCURVE",
"203 30 CURVE SMOOTH"
);
},
{
closed = 1;
nodes = (
"485 371 OFFCURVE",
"561 474 OFFCURVE",
"666 474 CURVE SMOOTH",
"781 474 OFFCURVE",
"813 372 OFFCURVE",
"806 297 CURVE SMOOTH",
"805 282 LINE",
"474 282 LINE"
);
}
);
width = 884;
},
{
anchors = (
{
name = top;
position = "{466, 501}";
}
);
layerId = "1FAC414F-D5EA-4BC8-A215-096CEB3A41C8";
paths = (
{
closed = 1;
nodes = (
"269 -11 OFFCURVE",
"353 12 OFFCURVE",
"397 84 CURVE",
"426 9 OFFCURVE",
"490 -12 OFFCURVE",
"581 -11 CURVE SMOOTH",
"689 -10 OFFCURVE",
"778 53 OFFCURVE",
"778 53 CURVE",
"756 141 LINE",
"756 141 OFFCURVE",
"676 88 OFFCURVE",
"596 86 CURVE SMOOTH",
"516 85 OFFCURVE",
"470 122 OFFCURVE",
"472 219 CURVE",
"474 228 LINE",
"804 228 LINE",
"804 228 OFFCURVE",
"809 241 OFFCURVE",
"810 253 CURVE",
"828 395 OFFCURVE",
"783 513 OFFCURVE",
"634 514 CURVE SMOOTH",
"575 514 OFFCURVE",
"491 483 OFFCURVE",
"451 422 CURVE",
"427 484 OFFCURVE",
"356 514 OFFCURVE",
"308 514 CURVE SMOOTH",
"194 514 OFFCURVE",
"125 474 OFFCURVE",
"100 460 CURVE",
"124 380 LINE",
"197 413 OFFCURVE",
"238 419 OFFCURVE",
"269 419 CURVE SMOOTH",
"340 419 OFFCURVE",
"374 374 OFFCURVE",
"367 312 CURVE",
"347 312 LINE SMOOTH",
"139 312 OFFCURVE",
"37 274 OFFCURVE",
"21 144 CURVE SMOOTH",
"9 43 OFFCURVE",
"81 -11 OFFCURVE",
"199 -11 CURVE SMOOTH"
);
},
{
closed = 1;
nodes = (
"170 86 OFFCURVE",
"134 104 OFFCURVE",
"139 148 CURVE SMOOTH",
"146 208 OFFCURVE",
"228 228 OFFCURVE",
"308 228 CURVE SMOOTH",
"356 228 LINE",
"346 162 OFFCURVE",
"307 86 OFFCURVE",
"214 86 CURVE SMOOTH"
);
},
{
closed = 1;
nodes = (
"509 373 OFFCURVE",
"555 426 OFFCURVE",
"621 426 CURVE SMOOTH",
"668 426 OFFCURVE",
"719 392 OFFCURVE",
"712 320 CURVE",
"710 309 LINE",
"485 309 LINE"
);
}
);
width = 867;
}
);
unicode = 00E6;
userData = {
com.typemytype.robofont.layerData = {
b = {
anchors = (
);
components = (
{
baseGlyph = e;
transformation = (
1,
0,
0,
1,
642,
0
);
}
);
contours = (
);
lib = {
};
name = ae;
unicodes = (
);
width = 1790.0500;
};
};
org.robofab.postScriptHintData = {
};
};
},
{
glyphname = b;
lastChange = "2016-08-22 12:06:28 +0000";
layers = (
{
anchors = (
{
name = top;
position = "{363, 501}";
}
);
layerId = "CAA31E91-2985-420A-82BA-6B4D8404D924";
paths = (
{
closed = 1;
nodes = (
"430 -11 OFFCURVE",
"540 94 OFFCURVE",
"560 257 CURVE SMOOTH",
"579 412 OFFCURVE",
"503 514 OFFCURVE",
"364 514 CURVE SMOOTH",
"272 514 OFFCURVE",
"208 462 OFFCURVE",
"181 416 CURVE",
"219 726 LINE",
"129 726 LINE",
"56 132 LINE SMOOTH",
"53 109 OFFCURVE",
"44 49 OFFCURVE",
"37 0 CURVE",
"128 0 LINE",
"139 85 LINE",
"157 33 OFFCURVE",
"215 -11 OFFCURVE",
"298 -11 CURVE SMOOTH"
);
},
{
closed = 1;
nodes = (
"194 63 OFFCURVE",
"144 140 OFFCURVE",
"158 252 CURVE SMOOTH",
"171 363 OFFCURVE",
"242 440 OFFCURVE",
"341 440 CURVE SMOOTH",
"436 440 OFFCURVE",
"479 363 OFFCURVE",
"466 256 CURVE SMOOTH",
"452 141 OFFCURVE",
"393 63 OFFCURVE",
"295 63 CURVE SMOOTH"
);
}
);
width = 622;
},
{
associatedMasterId = "CAA31E91-2985-420A-82BA-6B4D8404D924";
layerId = "1B4AF4C6-EF7D-44D4-8810-60C9918CA666";
name = b;
width = 620;
},
{
anchors = (
{
name = top;
position = "{346, 501}";
}
);
layerId = "A678A55B-4A26-4A39-BA40-1A26897903D3";
paths = (
{
closed = 1;
nodes = (
"432 -10 OFFCURVE",
"533 93 OFFCURVE",
"553 254 CURVE SMOOTH",
"572 412 OFFCURVE",
"496 514 OFFCURVE",
"358 514 CURVE SMOOTH",
"270 514 OFFCURVE",
"187 465 OFFCURVE",
"146 390 CURVE",
"189 740 LINE",
"142 740 LINE",
"67 131 LINE SMOOTH",
"61 79 OFFCURVE",
"47 1 OFFCURVE",
"47 0 CURVE",
"96 0 LINE",
"113 117 LINE",
"131 40 OFFCURVE",
"202 -10 OFFCURVE",
"294 -10 CURVE SMOOTH"
);
},
{
closed = 1;
nodes = (
"179 30 OFFCURVE",
"113 118 OFFCURVE",
"130 254 CURVE SMOOTH",
"146 388 OFFCURVE",
"233 474 OFFCURVE",
"353 474 CURVE SMOOTH",
"467 474 OFFCURVE",
"521 388 OFFCURVE",
"505 254 CURVE SMOOTH",
"488 118 OFFCURVE",
"413 30 OFFCURVE",
"299 30 CURVE SMOOTH"
);
}
);
width = 615;
},
{
anchors = (
{
name = top;
position = "{391, 501}";
}
);
layerId = "1FAC414F-D5EA-4BC8-A215-096CEB3A41C8";
paths = (
{
closed = 1;
nodes = (
"426 -11 OFFCURVE",
"547 96 OFFCURVE",
"566 253 CURVE SMOOTH",
"584 403 OFFCURVE",
"514 514 OFFCURVE",
"371 514 CURVE SMOOTH",
"265 514 OFFCURVE",
"211 451 OFFCURVE",
"203 431 CURVE",
"238 711 LINE",
"117 711 LINE",
"46 133 LINE SMOOTH",
"44 119 OFFCURVE",
"45 123 OFFCURVE",
"26 0 CURVE",
"150 0 LINE",
"157 62 LINE",
"175 25 OFFCURVE",
"229 -11 OFFCURVE",
"299 -11 CURVE SMOOTH"
);
},
{
closed = 1;
nodes = (
"198 86 OFFCURVE",
"164 166 OFFCURVE",
"174 251 CURVE SMOOTH",
"185 341 OFFCURVE",
"245 416 OFFCURVE",
"333 416 CURVE SMOOTH",
"419 416 OFFCURVE",
"450 340 OFFCURVE",
"439 250 CURVE SMOOTH",
"429 166 OFFCURVE",
"381 86 OFFCURVE",
"289 86 CURVE SMOOTH"
);
}
);
width = 630;
}
);
unicode = 0062;
userData = {
com.typemytype.robofont.layerData = {
b = {
anchors = (
);
components = (
);
contours = (
);
lib = {
};
name = b;
unicodes = (
);
width = 1270.1000;
};
};
org.robofab.postScriptHintData = {
};
};
},
{
glyphname = c;
lastChange = "2016-08-22 12:06:28 +0000";
layers = (
{
anchors = (
{
name = bot;
position = "{271, 0}";
},
{
name = top;
position = "{325, 501}";
}
);
layerId = "CAA31E91-2985-420A-82BA-6B4D8404D924";
paths = (
{
closed = 1;
nodes = (
"342 -11 OFFCURVE",
"401 9 OFFCURVE",
"451 44 CURVE",
"431 109 LINE",
"398 86 OFFCURVE",
"348 63 OFFCURVE",
"288 63 CURVE SMOOTH",
"184 63 OFFCURVE",
"128 135 OFFCURVE",
"142 248 CURVE SMOOTH",
"157 374 OFFCURVE",
"237 440 OFFCURVE",
"336 440 CURVE SMOOTH",
"389 440 OFFCURVE",
"431 421 OFFCURVE",
"458 395 CURVE",
"497 454 LINE",
"463 493 OFFCURVE",
"407 514 OFFCURVE",
"339 514 CURVE SMOOTH",
"184 514 OFFCURVE",
"68 405 OFFCURVE",
"49 248 CURVE SMOOTH",
"30 99 OFFCURVE",
"115 -11 OFFCURVE",
"272 -11 CURVE SMOOTH"
);
}
);
width = 520;
},
{
associatedMasterId = "CAA31E91-2985-420A-82BA-6B4D8404D924";
layerId = "29E6ACBF-19F3-42AE-8B85-15ED7BC0E193";
name = b;
paths = (
{
closed = 1;
nodes = (
"295 -11 CURVE SMOOTH",
"147 -11 OFFCURVE",
"48 88 OFFCURVE",
"48 246 CURVE SMOOTH",
"48 410 OFFCURVE",
"147 514 OFFCURVE",
"305 514 CURVE SMOOTH",
"366 514 OFFCURVE",
"425 489 OFFCURVE",
"458 450 CURVE",
"435 393 LINE",
"403 427 OFFCURVE",
"352 448 OFFCURVE",
"302 448 CURVE SMOOTH",
"198 448 OFFCURVE",
"131 369 OFFCURVE",
"131 247 CURVE SMOOTH",
"131 127 OFFCURVE",
"199 55 OFFCURVE",
"298 55 CURVE SMOOTH",
"350 55 OFFCURVE",
"404 71 OFFCURVE",
"440 99 CURVE",
"465 42 LINE",
"426 9 OFFCURVE",
"365 -11 OFFCURVE"
);
}
);
width = 506;
},
{
anchors = (
{
name = bot;
position = "{255, 0}";
},
{
name = top;
position = "{314, 501}";
}
);
layerId = "A678A55B-4A26-4A39-BA40-1A26897903D3";
paths = (
{
closed = 1;
nodes = (
"335 -10 OFFCURVE",
"405 13 OFFCURVE",
"446 49 CURVE",
"433 82 LINE",
"389 50 OFFCURVE",
"335 30 OFFCURVE",
"271 30 CURVE SMOOTH",
"148 30 OFFCURVE",
"79 114 OFFCURVE",
"95 245 CURVE SMOOTH",
"112 384 OFFCURVE",
"205 474 OFFCURVE",
"331 474 CURVE SMOOTH",
"387 474 OFFCURVE",
"433 458 OFFCURVE",
"461 430 CURVE",
"482 465 LINE",
"451 495 OFFCURVE",
"394 514 OFFCURVE",
"336 514 CURVE SMOOTH",
"180 514 OFFCURVE",
"66 409 OFFCURVE",
"46 245 CURVE SMOOTH",
"27 90 OFFCURVE",
"113 -10 OFFCURVE",
"267 -10 CURVE SMOOTH"
);
}
);
width = 499;
},
{
anchors = (
{
name = bot;
position = "{276, 0}";
},
{
name = top;
position = "{349, 501}";
}
);
layerId = "1FAC414F-D5EA-4BC8-A215-096CEB3A41C8";
paths = (
{
closed = 1;
nodes = (
"352 -11 OFFCURVE",
"407 6 OFFCURVE",
"466 45 CURVE",
"440 134 LINE",
"420 120 OFFCURVE",
"376 86 OFFCURVE",
"309 86 CURVE SMOOTH",
"214 86 OFFCURVE",
"167 154 OFFCURVE",
"179 250 CURVE SMOOTH",
"190 348 OFFCURVE",
"249 416 OFFCURVE",
"346 416 CURVE SMOOTH",
"403 416 OFFCURVE",
"440 393 OFFCURVE",
"466 368 CURVE",
"518 446 LINE",
"481 491 OFFCURVE",
"424 514 OFFCURVE",
"345 514 CURVE SMOOTH",
"182 514 OFFCURVE",
"71 399 OFFCURVE",
"53 251 CURVE SMOOTH",
"35 114 OFFCURVE",
"114 -11 OFFCURVE",
"282 -11 CURVE SMOOTH"
);
}
);
width = 523;
}
);
unicode = 0063;
userData = {
com.typemytype.robofont.layerData = {
b = {
anchors = (
);
components = (
);
contours = (
{
points = (
{
segmentType = curve;
smooth = 1;
x = 605;
y = -22;
},
{
smooth = 0;
x = 302;
y = -22;
},
{
smooth = 0;
x = 98;
y = 180;
},
{
segmentType = curve;
smooth = 1;
x = 98;
y = 503;
},
{
smooth = 0;
x = 98;
y = 840;
},
{
smooth = 0;
x = 301;
y = 1052;
},
{
segmentType = curve;
smooth = 1;
x = 624;
y = 1052;
},
{
smooth = 0;
x = 750;
y = 1052;
},
{
smooth = 0;
x = 871;
y = 1001;
},
{
segmentType = curve;
smooth = 0;
x = 938;
y = 922;
},
{
segmentType = line;
smooth = 0;
x = 890;
y = 805;
},
{
smooth = 0;
x = 825;
y = 874;
},
{
smooth = 0;
x = 721;
y = 918;
},
{
segmentType = curve;
smooth = 1;
x = 619;
y = 918;
},
{
smooth = 0;
x = 406;
y = 918;
},
{
smooth = 0;
x = 268;
y = 756;
},
{
segmentType = curve;
smooth = 1;
x = 268;
y = 505;
},
{
smooth = 0;
x = 268;
y = 260;
},
{
smooth = 0;
x = 407;
y = 112;
},
{
segmentType = curve;
smooth = 1;
x = 611;
y = 112;
},
{
smooth = 0;
x = 716;
y = 112;
},
{
smooth = 0;
x = 827;
y = 145;
},
{
segmentType = curve;
smooth = 0;
x = 901;
y = 202;
},
{
segmentType = line;
smooth = 0;
x = 953;
y = 87;
},
{
smooth = 0;
x = 873;
y = 19;
},
{
smooth = 0;
x = 747;
y = -22;
}
);
}
);
lib = {
};
name = c;
unicodes = (
);
width = 1035.5500;
};
};
org.robofab.postScriptHintData = {
};
};
},
{
glyphname = d;
lastChange = "2016-08-22 12:06:28 +0000";
layers = (
{
anchors = (
{
name = caron.alt;
position = "{457, 501}";
},
{
name = mid;
position = "{512, 612}";
},
{
name = top;
position = "{288, 501}";
}
);
layerId = "CAA31E91-2985-420A-82BA-6B4D8404D924";
paths = (
{
closed = 1;
nodes = (
"324 -11 OFFCURVE",
"386 38 OFFCURVE",
"411 85 CURVE",
"402 0 LINE",
"493 0 LINE",
"505 130 LINE",
"579 726 LINE",
"489 726 LINE",
"452 426 LINE",
"437 470 OFFCURVE",
"384 514 OFFCURVE",
"302 514 CURVE SMOOTH",
"155 514 OFFCURVE",
"55 402 OFFCURVE",
"36 249 CURVE SMOOTH",
"17 90 OFFCURVE",
"101 -11 OFFCURVE",
"233 -11 CURVE SMOOTH"
);
},
{
closed = 1;
nodes = (
"157 63 OFFCURVE",
"116 141 OFFCURVE",
"129 251 CURVE SMOOTH",
"143 362 OFFCURVE",
"206 440 OFFCURVE",
"303 440 CURVE SMOOTH",
"401 440 OFFCURVE",
"446 362 OFFCURVE",
"433 255 CURVE SMOOTH",
"419 140 OFFCURVE",
"355 63 OFFCURVE",
"255 63 CURVE SMOOTH"
);
}
);
width = 617;
},
{
associatedMasterId = "CAA31E91-2985-420A-82BA-6B4D8404D924";
layerId = "EFC1ABE2-62DD-4C2B-9A98-85EF37E989A0";
name = b;
width = 618;
},
{
anchors = (
{
name = caron.alt;
position = "{461, 501}";
},
{
name = mid;
position = "{517, 617}";
},
{
name = top;
position = "{300, 501}";
}
);
layerId = "A678A55B-4A26-4A39-BA40-1A26897903D3";
paths = (
{
closed = 1;
nodes = (
"319 -10 OFFCURVE",
"402 40 OFFCURVE",
"440 117 CURVE",
"428 0 LINE",
"476 0 LINE",
"476 1 OFFCURVE",
"482 79 OFFCURVE",
"489 131 CURVE SMOOTH",
"563 740 LINE",
"516 740 LINE",
"473 390 LINE",
"451 465 OFFCURVE",
"380 514 OFFCURVE",
"292 514 CURVE SMOOTH",
"154 514 OFFCURVE",
"53 412 OFFCURVE",
"33 254 CURVE SMOOTH",
"14 93 OFFCURVE",
"90 -10 OFFCURVE",
"228 -10 CURVE SMOOTH"
);
},
{
closed = 1;
nodes = (
"118 30 OFFCURVE",
"64 118 OFFCURVE",
"81 254 CURVE SMOOTH",
"98 388 OFFCURVE",
"172 474 OFFCURVE",
"287 474 CURVE SMOOTH",
"406 474 OFFCURVE",
"473 388 OFFCURVE",
"456 254 CURVE SMOOTH",
"439 118 OFFCURVE",
"352 30 OFFCURVE",
"232 30 CURVE SMOOTH"
);
}
);
width = 613;
},
{
anchors = (
{
name = caron.alt;
position = "{489, 501}";
},
{
name = mid;
position = "{508, 601}";
},
{
name = top;
position = "{300, 501}";
}
);
layerId = "1FAC414F-D5EA-4BC8-A215-096CEB3A41C8";
paths = (
{
closed = 1;
nodes = (
"329 -11 OFFCURVE",
"379 38 OFFCURVE",
"393 64 CURVE",
"386 0 LINE",
"510 0 LINE",
"520 116 OFFCURVE",
"521 124 OFFCURVE",
"522 134 CURVE SMOOTH",
"593 711 LINE",
"472 711 LINE",
"440 448 LINE",
"430 471 OFFCURVE",
"389 514 OFFCURVE",
"311 514 CURVE SMOOTH",
"151 514 OFFCURVE",
"57 388 OFFCURVE",
"40 248 CURVE SMOOTH",
"21 89 OFFCURVE",
"110 -11 OFFCURVE",
"237 -11 CURVE SMOOTH"
);
},
{
closed = 1;
nodes = (
"181 86 OFFCURVE",
"157 166 OFFCURVE",
"168 252 CURVE SMOOTH",
"178 341 OFFCURVE",
"225 416 OFFCURVE",
"313 416 CURVE SMOOTH",
"402 416 OFFCURVE",
"431 341 OFFCURVE",
"420 250 CURVE SMOOTH",
"410 166 OFFCURVE",
"365 86 OFFCURVE",
"274 86 CURVE SMOOTH"
);
}
);
width = 619;
}
);
unicode = 0064;
userData = {
com.typemytype.robofont.layerData = {
b = {
anchors = (
);
components = (
);
contours = (
);
lib = {
};
name = d;
unicodes = (
);
width = 1265.0500;
};
};
org.robofab.postScriptHintData = {
};
};
},
{
glyphname = eth;
lastChange = "2016-08-22 12:06:28 +0000";
layers = (
{
layerId = "CAA31E91-2985-420A-82BA-6B4D8404D924";
paths = (
{
closed = 1;
nodes = (
"402 -11 OFFCURVE",
"506 102 OFFCURVE",
"531 304 CURVE SMOOTH",
"548 445 OFFCURVE",
"504 555 OFFCURVE",
"430 633 CURVE",
"527 690 LINE",
"501 740 LINE",
"387 672 LINE",
"335 715 OFFCURVE",
"274 744 OFFCURVE",
"213 758 CURVE",
"171 697 LINE",
"226 683 OFFCURVE",
"274 660 OFFCURVE",
"315 630 CURVE",
"217 572 LINE",
"243 522 LINE",
"359 591 LINE",
"432 521 OFFCURVE",
"455 401 OFFCURVE",
"450 354 CURVE",
"433 397 OFFCURVE",
"378 442 OFFCURVE",
"297 442 CURVE SMOOTH",
"159 442 OFFCURVE",
"50 352 OFFCURVE",
"34 222 CURVE SMOOTH",
"18 91 OFFCURVE",
"97 -11 OFFCURVE",
"244 -11 CURVE SMOOTH"
);
},
{
closed = 1;
nodes = (
"172 67 OFFCURVE",
"115 125 OFFCURVE",
"127 221 CURVE SMOOTH",
"138 313 OFFCURVE",
"205 367 OFFCURVE",
"290 367 CURVE SMOOTH",
"368 367 OFFCURVE",
"434 313 OFFCURVE",
"423 232 CURVE SMOOTH",
"411 134 OFFCURVE",
"347 67 OFFCURVE",
"255 67 CURVE SMOOTH"
);
}
);
width = 597;
},
{
associatedMasterId = "CAA31E91-2985-420A-82BA-6B4D8404D924";
layerId = "F794A515-0455-45F0-AF06-BA68BBC45464";
name = b;
width = 597;
},
{
layerId = "A678A55B-4A26-4A39-BA40-1A26897903D3";
paths = (
{
closed = 1;
nodes = (
"410 -11 OFFCURVE",
"503 103 OFFCURVE",
"527 294 CURVE SMOOTH",
"548 468 OFFCURVE",
"499 581 OFFCURVE",
"407 656 CURVE",
"484 710 LINE",
"462 742 LINE",
"374 680 LINE",
"326 712 OFFCURVE",
"271 737 OFFCURVE",
"208 756 CURVE",
"182 719 LINE",
"242 699 OFFCURVE",
"292 677 OFFCURVE",
"333 651 CURVE",
"261 601 LINE",
"281 568 LINE",
"367 628 LINE",
"466 554 OFFCURVE",
"499 457 OFFCURVE",
"490 330 CURVE",
"467 380 OFFCURVE",
"409 435 OFFCURVE",
"302 435 CURVE SMOOTH",
"155 435 OFFCURVE",
"58 347 OFFCURVE",
"41 210 CURVE SMOOTH",
"24 76 OFFCURVE",
"105 -11 OFFCURVE",
"255 -11 CURVE SMOOTH"
);
},
{
closed = 1;
nodes = (
"140 29 OFFCURVE",
"76 100 OFFCURVE",
"90 210 CURVE SMOOTH",
"104 323 OFFCURVE",
"180 395 OFFCURVE",
"297 395 CURVE SMOOTH",
"409 395 OFFCURVE",
"479 330 OFFCURVE",
"468 237 CURVE SMOOTH",
"453 111 OFFCURVE",
"379 29 OFFCURVE",
"260 29 CURVE SMOOTH"
);
}
);
width = 601;
},
{
layerId = "1FAC414F-D5EA-4BC8-A215-096CEB3A41C8";
paths = (
{
closed = 1;
nodes = (
"399 -12 OFFCURVE",
"505 76 OFFCURVE",
"533 303 CURVE SMOOTH",
"550 447 OFFCURVE",
"505 535 OFFCURVE",
"448 590 CURVE",
"544 635 LINE",
"520 700 LINE",
"387 638 LINE",
"316 681 OFFCURVE",
"245 691 OFFCURVE",
"226 692 CURVE",
"178 614 LINE",
"221 604 OFFCURVE",
"253 595 OFFCURVE",
"279 586 CURVE",
"196 548 LINE",
"220 483 LINE",
"352 544 LINE",
"464 454 OFFCURVE",
"434 394 OFFCURVE",
"430 368 CURVE",
"381 427 OFFCURVE",
"325 440 OFFCURVE",
"271 440 CURVE SMOOTH",
"136 440 OFFCURVE",
"51 358 OFFCURVE",
"35 230 CURVE SMOOTH",
"19 102 OFFCURVE",
"95 -12 OFFCURVE",
"241 -12 CURVE SMOOTH"
);
},
{
closed = 1;
nodes = (
"204 84 OFFCURVE",
"146 125 OFFCURVE",
"157 219 CURVE SMOOTH",
"168 305 OFFCURVE",
"230 338 OFFCURVE",
"286 338 CURVE SMOOTH",
"346 338 OFFCURVE",
"404 294 OFFCURVE",
"395 215 CURVE SMOOTH",
"384 125 OFFCURVE",
"314 84 OFFCURVE",
"263 84 CURVE SMOOTH"
);
}
);
width = 594;
}
);
unicode = 00F0;
userData = {
com.typemytype.robofont.layerData = {
b = {
anchors = (
);
components = (
);
contours = (
);
lib = {
};
name = eth;
unicodes = (
);
width = 1222.5500;
};
};
org.robofab.postScriptHintData = {
};
};
},
{
glyphname = e;
lastChange = "2016-08-22 12:06:28 +0000";
layers = (
{
anchors = (
{
name = bot;
position = "{274, 0}";
},
{
name = ogonek;
position = "{326, 0}";
},
{
name = top;
position = "{319, 501}";
}
);
layerId = "CAA31E91-2985-420A-82BA-6B4D8404D924";
paths = (
{
closed = 1;
nodes = (
"350 -11 OFFCURVE",
"418 11 OFFCURVE",
"476 52 CURVE",
"457 118 LINE",
"406 81 OFFCURVE",
"350 63 OFFCURVE",
"292 63 CURVE SMOOTH",
"191 63 OFFCURVE",
"128 123 OFFCURVE",
"141 238 CURVE",
"511 238 LINE",
"514 248 OFFCURVE",
"516 259 OFFCURVE",
"516 262 CURVE",
"534 408 OFFCURVE",
"473 514 OFFCURVE",
"328 514 CURVE SMOOTH",
"178 514 OFFCURVE",
"67 401 OFFCURVE",
"49 249 CURVE SMOOTH",
"30 93 OFFCURVE",
"117 -11 OFFCURVE",
"277 -11 CURVE SMOOTH"
);
},
{
closed = 1;
nodes = (
"174 389 OFFCURVE",
"240 442 OFFCURVE",
"322 442 CURVE SMOOTH",
"399 442 OFFCURVE",
"442 392 OFFCURVE",
"438 299 CURVE",
"150 299 LINE"
);
}
);
width = 569;
},
{
associatedMasterId = "CAA31E91-2985-420A-82BA-6B4D8404D924";
layerId = "5DFAB83E-7D74-4512-84EE-3B49B6D2EC9B";
name = b;
width = 571;
},
{
anchors = (
{
name = bot;
position = "{260, 0}";
},
{
name = ogonek;
position = "{300, 0}";
},
{
name = top;
position = "{317, 501}";
}
);
layerId = "A678A55B-4A26-4A39-BA40-1A26897903D3";
paths = (
{
closed = 1;
nodes = (
"336 -10 OFFCURVE",
"412 14 OFFCURVE",
"463 53 CURVE",
"449 86 LINE",
"401 52 OFFCURVE",
"336 30 OFFCURVE",
"273 30 CURVE SMOOTH",
"147 30 OFFCURVE",
"78 115 OFFCURVE",
"95 248 CURVE",
"510 248 LINE",
"513 276 LINE SMOOTH",
"531 420 OFFCURVE",
"456 514 OFFCURVE",
"321 514 CURVE SMOOTH",
"174 514 OFFCURVE",
"66 410 OFFCURVE",
"46 248 CURVE SMOOTH",
"27 91 OFFCURVE",
"114 -10 OFFCURVE",
"269 -10 CURVE SMOOTH"
);
},
{
closed = 1;
nodes = (
"126 399 OFFCURVE",
"210 474 OFFCURVE",
"316 474 CURVE SMOOTH",
"420 474 OFFCURVE",
"482 399 OFFCURVE",
"474 282 CURVE",
"103 282 LINE"
);
}
);
width = 553;
},
{
anchors = (
{
name = bot;
position = "{295, 0}";
},
{
name = ogonek;
position = "{380, 0}";
},
{
name = top;
position = "{365, 501}";
}
);
layerId = "1FAC414F-D5EA-4BC8-A215-096CEB3A41C8";
paths = (
{
closed = 1;
nodes = (
"372 -11 OFFCURVE",
"436 9 OFFCURVE",
"503 52 CURVE",
"481 140 LINE",
"425 104 OFFCURVE",
"370 86 OFFCURVE",
"316 86 CURVE SMOOTH",
"228 86 OFFCURVE",
"170 128 OFFCURVE",
"178 230 CURVE",
"529 230 LINE",
"532 236 OFFCURVE",
"534 245 OFFCURVE",
"535 251 CURVE",
"553 395 OFFCURVE",
"506 514 OFFCURVE",
"342 514 CURVE SMOOTH",
"179 514 OFFCURVE",
"69 389 OFFCURVE",
"53 250 CURVE SMOOTH",
"34 97 OFFCURVE",
"121 -11 OFFCURVE",
"293 -11 CURVE SMOOTH"
);
},
{
closed = 1;
nodes = (
"213 377 OFFCURVE",
"267 420 OFFCURVE",
"337 420 CURVE SMOOTH",
"396 420 OFFCURVE",
"436 383 OFFCURVE",
"438 311 CURVE",
"189 311 LINE"
);
}
);
width = 583;
}
);
unicode = 0065;
userData = {
com.fontlab.hintData = {
hhints = (
{
position = -22;
width = 154;
},
{
position = 486;
width = 131;
},
{
position = 901;
width = 151;
}
);
vhints = (
{
position = 106;
width = 195;
}
);
};
com.typemytype.robofont.guides = (
);
com.typemytype.robofont.layerData = {
b = {
anchors = (
);
components = (
);
contours = (
);
lib = {
};
name = e;
unicodes = (
);
width = 1169.75;
};
};
org.robofab.postScriptHintData = {
};
};
},
{
glyphname = f;
lastChange = "2016-08-22 12:06:28 +0000";
layers = (
{
anchors = (
{
name = top;
position = "{218, 711}";
}
);
layerId = "CAA31E91-2985-420A-82BA-6B4D8404D924";
paths = (
{
closed = 1;
nodes = (
"168 0 LINE",
"223 441 LINE",
"342 441 LINE",
"349 501 LINE",
"230 501 LINE",
"236 549 LINE SMOOTH",
"247 635 OFFCURVE",
"256 655 OFFCURVE",
"372 655 CURVE",
"382 725 LINE",
"359 725 LINE SMOOTH",
"188 725 OFFCURVE",
"161 669 OFFCURVE",
"145 542 CURVE SMOOTH",
"140 501 LINE",
"51 501 LINE",
"43 441 LINE",
"132 441 LINE",
"78 0 LINE"
);
}
);
width = 355;
},
{
associatedMasterId = "CAA31E91-2985-420A-82BA-6B4D8404D924";
layerId = "464EA41E-8FD0-4A29-97AF-DDF1E000E15F";
name = b;
width = 358;
},
{
anchors = (
{
name = top;
position = "{180, 711}";
}
);
layerId = "A678A55B-4A26-4A39-BA40-1A26897903D3";
paths = (
{
closed = 1;
nodes = (
"121 0 LINE",
"179 469 LINE",
"307 469 LINE",
"311 501 LINE",
"183 501 LINE",
"193 590 LINE SMOOTH",
"203 665 OFFCURVE",
"210 691 OFFCURVE",
"341 691 CURVE",
"346 732 LINE",
"329 732 LINE SMOOTH",
"189 732 OFFCURVE",
"158 687 OFFCURVE",
"144 578 CURVE SMOOTH",
"135 501 LINE",
"50 501 LINE",
"46 469 LINE",
"131 469 LINE",
"73 0 LINE"
);
}
);
width = 295;
},
{
anchors = (
{
name = top;
position = "{228, 711}";
}
);
layerId = "1FAC414F-D5EA-4BC8-A215-096CEB3A41C8";
paths = (
{
closed = 1;
nodes = (
"204 0 LINE",
"254 420 LINE",
"368 420 LINE",
"378 501 LINE",
"265 501 LINE",
"267 522 LINE SMOOTH",
"279 620 OFFCURVE",
"291 631 OFFCURVE",
"393 631 CURVE",
"409 725 LINE",
"383 725 LINE SMOOTH",
"188 725 OFFCURVE",
"165 663 OFFCURVE",
"147 521 CURVE SMOOTH",
"145 501 LINE",
"51 501 LINE",
"41 420 LINE",
"134 420 LINE",
"83 0 LINE"
);
}
);
width = 400;
}
);
unicode = 0066;
userData = {
com.typemytype.robofont.layerData = {
b = {
anchors = (
);
components = (
);
contours = (
);
lib = {
};
name = f;
unicodes = (
);
width = 733.1000;
};
};
org.robofab.postScriptHintData = {
};
};
},
{
glyphname = g;
lastChange = "2016-08-22 12:07:00 +0000";
layers = (
{
anchors = (
{
name = top;
position = "{312, 501}";
}
);
layerId = "CAA31E91-2985-420A-82BA-6B4D8404D924";
paths = (
{
closed = 1;
nodes = (
"414 -204 OFFCURVE",
"502 -87 OFFCURVE",
"521 68 CURVE SMOOTH",
"558 366 LINE SMOOTH",
"564 420 OFFCURVE",
"581 501 OFFCURVE",
"581 501 CURVE SMOOTH",
"488 501 LINE",
"477 427 LINE",
"456 473 OFFCURVE",
"410 514 OFFCURVE",
"329 514 CURVE SMOOTH",
"177 514 OFFCURVE",
"80 404 OFFCURVE",
"61 252 CURVE SMOOTH",
"42 99 OFFCURVE",
"130 7 OFFCURVE",
"267 7 CURVE SMOOTH",
"349 7 OFFCURVE",
"405 49 OFFCURVE",
"436 94 CURVE",
"429 42 LINE SMOOTH",
"415 -77 OFFCURVE",
"344 -131 OFFCURVE",
"240 -131 CURVE SMOOTH",
"184 -131 OFFCURVE",
"133 -117 OFFCURVE",
"78 -84 CURVE",
"55 -162 LINE",
"111 -191 OFFCURVE",
"169 -204 OFFCURVE",
"235 -204 CURVE SMOOTH"
);
},
{
closed = 1;
nodes = (
"186 77 OFFCURVE",
"141 142 OFFCURVE",
"154 253 CURVE SMOOTH",
"168 363 OFFCURVE",
"234 440 OFFCURVE",
"332 440 CURVE SMOOTH",
"426 440 OFFCURVE",
"472 368 OFFCURVE",
"458 260 CURVE SMOOTH",
"445 153 OFFCURVE",
"386 77 OFFCURVE",
"281 77 CURVE SMOOTH"
);
}
);
width = 619;
},
{
associatedMasterId = "CAA31E91-2985-420A-82BA-6B4D8404D924";
layerId = "F66604FB-AC0E-4922-8440-F788A3946CDE";
name = b;
paths = (
{
closed = 1;
nodes = (
"283 65 CURVE SMOOTH",
"390 65 OFFCURVE",
"449 144 OFFCURVE",
"449 269 CURVE SMOOTH",
"449 378 OFFCURVE",
"389 448 OFFCURVE",
"293 448 CURVE SMOOTH",
"195 448 OFFCURVE",
"131 372 OFFCURVE",
"131 251 CURVE SMOOTH",
"131 138 OFFCURVE",
"190 65 OFFCURVE"
);
},
{
closed = 1;
nodes = (
"261 -205 CURVE SMOOTH",
"199 -205 OFFCURVE",
"141 -186 OFFCURVE",
"92 -162 CURVE",
"105 -91 LINE",
"146 -116 OFFCURVE",
"203 -138 OFFCURVE",
"258 -138 CURVE SMOOTH",
"386 -138 OFFCURVE",
"449 -89 OFFCURVE",
"449 24 CURVE SMOOTH",
"449 133 LINE",
"463 124 LINE",
"442 68 OFFCURVE",
"392 0 OFFCURVE",
"283 0 CURVE SMOOTH",
"146 0 OFFCURVE",
"48 98 OFFCURVE",
"48 250 CURVE SMOOTH",
"48 412 OFFCURVE",
"139 514 OFFCURVE",
"283 514 CURVE SMOOTH",
"400 514 OFFCURVE",
"441 439 OFFCURVE",
"468 390 CURVE",
"449 384 LINE",
"452 501 LINE",
"532 501 LINE",
"532 501 OFFCURVE",
"529 418 OFFCURVE",
"529 377 CURVE SMOOTH",
"529 70 LINE SMOOTH",
"529 -125 OFFCURVE",
"441 -205 OFFCURVE"
);
}
);
width = 612;
},
{
anchors = (
{
name = top;
position = "{327, 501}";
}
);
layerId = "A678A55B-4A26-4A39-BA40-1A26897903D3";
paths = (
{
closed = 1;
nodes = (
"366 -216 OFFCURVE",
"484 -136 OFFCURVE",
"508 56 CURVE SMOOTH",
"551 409 LINE",
"556 440 OFFCURVE",
"561 470 OFFCURVE",
"566 501 CURVE",
"520 501 LINE",
"502 399 LINE",
"481 465 OFFCURVE",
"416 514 OFFCURVE",
"328 514 CURVE SMOOTH",
"184 514 OFFCURVE",
"79 411 OFFCURVE",
"60 251 CURVE SMOOTH",
"40 93 OFFCURVE",
"117 -8 OFFCURVE",
"256 -8 CURVE SMOOTH",
"346 -8 OFFCURVE",
"427 35 OFFCURVE",
"468 115 CURVE",
"460 56 LINE SMOOTH",
"439 -112 OFFCURVE",
"348 -175 OFFCURVE",
"232 -175 CURVE SMOOTH",
"183 -175 OFFCURVE",
"125 -165 OFFCURVE",
"71 -142 CURVE",
"60 -184 LINE",
"114 -207 OFFCURVE",
"172 -216 OFFCURVE",
"227 -216 CURVE SMOOTH"
);
},
{
closed = 1;
nodes = (
"152 32 OFFCURVE",
"92 118 OFFCURVE",
"108 251 CURVE SMOOTH",
"125 387 OFFCURVE",
"209 474 OFFCURVE",
"323 474 CURVE SMOOTH",
"438 474 OFFCURVE",
"501 387 OFFCURVE",
"484 251 CURVE SMOOTH",
"468 118 OFFCURVE",
"381 32 OFFCURVE",
"261 32 CURVE SMOOTH"
);
}
);
width = 619;
},
{
anchors = (
{
name = top;
position = "{348, 501}";
}
);
layerId = "1FAC414F-D5EA-4BC8-A215-096CEB3A41C8";
paths = (
{
closed = 1;
nodes = (
"465 -204 OFFCURVE",
"517 -46 OFFCURVE",
"532 72 CURVE SMOOTH",
"563 333 LINE SMOOTH",
"575 427 OFFCURVE",
"594 501 OFFCURVE",
"594 501 CURVE SMOOTH",
"466 501 LINE",
"459 447 LINE",
"440 483 OFFCURVE",
"397 514 OFFCURVE",
"332 514 CURVE SMOOTH",
"168 514 OFFCURVE",
"82 388 OFFCURVE",
"64 251 CURVE SMOOTH",
"46 97 OFFCURVE",
"131 0 OFFCURVE",
"279 0 CURVE SMOOTH",
"348 0 OFFCURVE",
"388 33 OFFCURVE",
"411 60 CURVE",
"406 17 LINE SMOOTH",
"396 -66 OFFCURVE",
"333 -104 OFFCURVE",
"242 -104 CURVE SMOOTH",
"199 -104 OFFCURVE",
"143 -97 OFFCURVE",
"85 -65 CURVE",
"52 -170 LINE",
"110 -192 OFFCURVE",
"172 -204 OFFCURVE",
"238 -204 CURVE SMOOTH"
);
},
{
closed = 1;
nodes = (
"209 91 OFFCURVE",
"180 155 OFFCURVE",
"191 251 CURVE SMOOTH",
"202 337 OFFCURVE",
"252 416 OFFCURVE",
"340 416 CURVE SMOOTH",
"425 416 OFFCURVE",
"453 344 OFFCURVE",
"441 252 CURVE SMOOTH",
"432 176 OFFCURVE",
"397 91 OFFCURVE",
"298 91 CURVE SMOOTH"
);
}
);
width = 603;
}
);
unicode = 0067;
userData = {
com.typemytype.robofont.layerData = {
b = {
anchors = (
);
components = (
);
contours = (
{
points = (
{
segmentType = curve;
smooth = 1;
x = 580;
y = 134;
},
{
smooth = 0;
x = 799;
y = 134;
},
{
smooth = 0;
x = 920;
y = 295;
},
{
segmentType = curve;
smooth = 1;
x = 920;
y = 550;
},
{
smooth = 0;
x = 920;
y = 775;
},
{
smooth = 0;
x = 796;
y = 918;
},
{
segmentType = curve;
smooth = 1;
x = 600;
y = 918;
},
{
smooth = 0;
x = 399;
y = 918;
},
{
smooth = 0;
x = 268;
y = 762;
},
{
segmentType = curve;
smooth = 1;
x = 268;
y = 515;
},
{
smooth = 0;
x = 268;
y = 282;
},
{
smooth = 0;
x = 389;
y = 134;
}
);
},
{
points = (
{
segmentType = curve;
smooth = 1;
x = 534;
y = -420;
},
{
smooth = 0;
x = 408;
y = -420;
},
{
smooth = 0;
x = 289;
y = -381;
},
{
segmentType = curve;
smooth = 0;
x = 189;
y = -331;
},
{
segmentType = line;
smooth = 0;
x = 216;
y = -187;
},
{
smooth = 0;
x = 300;
y = -238;
},
{
smooth = 0;
x = 416;
y = -282;
},
{
segmentType = curve;
smooth = 1;
x = 528;
y = -282;
},
{
smooth = 0;
x = 790;
y = -282;
},
{
smooth = 0;
x = 920;
y = -183;
},
{
segmentType = curve;
smooth = 1;
x = 920;
y = 49;
},
{
segmentType = line;
smooth = 0;
x = 920;
y = 273;
},
{
segmentType = line;
smooth = 0;
x = 948;
y = 253;
},
{
smooth = 0;
x = 905;
y = 139;
},
{
smooth = 0;
x = 802;
y = 0;
},
{
segmentType = curve;
smooth = 1;
x = 579;
y = 0;
},
{
smooth = 0;
x = 298;
y = 0;
},
{
smooth = 0;
x = 98;
y = 201;
},
{
segmentType = curve;
smooth = 1;
x = 98;
y = 511;
},
{
smooth = 0;
x = 98;
y = 843;
},
{
smooth = 0;
x = 284;
y = 1052;
},
{
segmentType = curve;
smooth = 1;
x = 579;
y = 1052;
},
{
smooth = 0;
x = 820;
y = 1052;
},
{
smooth = 0;
x = 903;
y = 900;
},
{
segmentType = curve;
smooth = 0;
x = 958;
y = 798;
},
{
segmentType = line;
smooth = 0;
x = 919;
y = 787;
},
{
segmentType = line;
smooth = 0;
x = 926;
y = 1026;
},
{
segmentType = line;
smooth = 0;
x = 1090;
y = 1026;
},
{
smooth = 0;
x = 1090;
y = 1026;
},
{
smooth = 0;
x = 1084;
y = 857;
},
{
segmentType = curve;
smooth = 1;
x = 1084;
y = 773;
},
{
segmentType = line;
smooth = 1;
x = 1084;
y = 143;
},
{
smooth = 0;
x = 1084;
y = -255;
},
{
smooth = 0;
x = 903;
y = -420;
}
);
}
);
lib = {
};
name = g;
unicodes = (
);
width = 1254;
};
};
org.robofab.postScriptHintData = {
};
};
},
{
glyphname = h;
lastChange = "2016-08-22 12:06:28 +0000";
layers = (
{
anchors = (
{
name = mid;
position = "{166, 612}";
},
{
name = top;
position = "{358, 501}";
}
);
layerId = "CAA31E91-2985-420A-82BA-6B4D8404D924";
paths = (
{
closed = 1;
nodes = (
"126 0 LINE",
"164 304 LINE SMOOTH",
"173 375 OFFCURVE",
"257 440 OFFCURVE",
"338 440 CURVE SMOOTH",
"414 440 OFFCURVE",
"441 397 OFFCURVE",
"429 300 CURVE SMOOTH",
"392 0 LINE",
"482 0 LINE",
"519 302 LINE SMOOTH",
"534 418 OFFCURVE",
"488 514 OFFCURVE",
"360 514 CURVE SMOOTH",
"289 514 OFFCURVE",
"215 477 OFFCURVE",
"178 422 CURVE",
"215 726 LINE",
"125 726 LINE",
"36 0 LINE"
);
}
);
width = 604;
},
{
associatedMasterId = "CAA31E91-2985-420A-82BA-6B4D8404D924";
layerId = "EDF65510-130B-44F5-B1DC-E5CC16FAF141";
name = b;
paths = (
{
closed = 1;
nodes = (
"87 0 LINE",
"87 380 LINE SMOOTH",
"87 440 OFFCURVE",
"84 501 OFFCURVE",
"84 501 CURVE",
"166 501 LINE",
"167 422 LINE",
"207 477 OFFCURVE",
"268 513 OFFCURVE",
"342 513 CURVE SMOOTH",
"488 513 OFFCURVE",
"528 412 OFFCURVE",
"528 269 CURVE SMOOTH",
"528 0 LINE",
"448 0 LINE",
"448 259 LINE SMOOTH",
"448 373 OFFCURVE",
"433 448 OFFCURVE",
"327 448 CURVE SMOOTH",
"230 448 OFFCURVE",
"168 362 OFFCURVE",
"167 318 CURVE",
"167 0 LINE"
);
}
);
width = 604;
},
{
anchors = (
{
name = mid;
position = "{151, 616}";
},
{
name = top;
position = "{360, 501}";
}
);
layerId = "A678A55B-4A26-4A39-BA40-1A26897903D3";
paths = (
{
closed = 1;
nodes = (
"98 0 LINE",
"136 307 LINE SMOOTH",
"146 392 OFFCURVE",
"249 474 OFFCURVE",
"354 474 CURVE SMOOTH",
"452 474 OFFCURVE",
"479 420 OFFCURVE",
"466 322 CURVE SMOOTH",
"427 0 LINE",
"475 0 LINE",
"516 333 LINE SMOOTH",
"534 481 OFFCURVE",
"436 514 OFFCURVE",
"359 514 CURVE SMOOTH",
"263 514 OFFCURVE",
"190 466 OFFCURVE",
"147 404 CURVE",
"189 740 LINE",
"141 740 LINE",
"50 0 LINE"
);
}
);
width = 613;
},
{
anchors = (
{
name = mid;
position = "{177, 601}";
},
{
name = top;
position = "{407, 501}";
}
);
layerId = "1FAC414F-D5EA-4BC8-A215-096CEB3A41C8";
paths = (
{
closed = 1;
nodes = (
"147 0 LINE",
"185 302 LINE SMOOTH",
"192 363 OFFCURVE",
"265 416 OFFCURVE",
"331 416 CURVE SMOOTH",
"387 416 OFFCURVE",
"414 380 OFFCURVE",
"402 283 CURVE SMOOTH",
"367 0 LINE",
"488 0 LINE",
"522 279 LINE SMOOTH",
"534 370 OFFCURVE",
"528 514 OFFCURVE",
"360 514 CURVE SMOOTH",
"311 514 OFFCURVE",
"233 485 OFFCURVE",
"201 436 CURVE",
"235 711 LINE",
"114 711 LINE",
"26 0 LINE"
);
}
);
width = 595;
}
);
unicode = 0068;
userData = {
com.typemytype.robofont.layerData = {
b = {
anchors = (
);
components = (
);
contours = (
{
points = (
{
segmentType = line;
smooth = 0;
x = 178;
y = 0;
},
{
segmentType = line;
smooth = 1;
x = 178;
y = 779;
},
{
smooth = 0;
x = 178;
y = 902;
},
{
smooth = 0;
x = 172;
y = 1026;
},
{
segmentType = curve;
smooth = 0;
x = 172;
y = 1026;
},
{
segmentType = line;
smooth = 0;
x = 339;
y = 1026;
},
{
segmentType = line;
smooth = 0;
x = 343;
y = 864;
},
{
smooth = 0;
x = 423;
y = 976;
},
{
smooth = 0;
x = 548;
y = 1051;
},
{
segmentType = curve;
smooth = 1;
x = 700;
y = 1051;
},
{
smooth = 0;
x = 999;
y = 1051;
},
{
smooth = 0;
x = 1082;
y = 844;
},
{
segmentType = curve;
smooth = 1;
x = 1082;
y = 550;
},
{
segmentType = line;
smooth = 0;
x = 1082;
y = 0;
},
{
segmentType = line;
smooth = 0;
x = 917;
y = 0;
},
{
segmentType = line;
smooth = 1;
x = 917;
y = 531;
},
{
smooth = 0;
x = 917;
y = 764;
},
{
smooth = 0;
x = 886;
y = 917;
},
{
segmentType = curve;
smooth = 1;
x = 670;
y = 917;
},
{
smooth = 0;
x = 471;
y = 917;
},
{
smooth = 0;
x = 344;
y = 742;
},
{
segmentType = curve;
smooth = 0;
x = 343;
y = 652;
},
{
segmentType = line;
smooth = 0;
x = 343;
y = 0;
}
);
}
);
lib = {
};
name = h;
unicodes = (
);
width = 1237.9500;
};
};
org.robofab.postScriptHintData = {
};
};
},
{
glyphname = i;
lastChange = "2016-08-22 12:06:28 +0000";
layers = (
{
layerId = "CAA31E91-2985-420A-82BA-6B4D8404D924";
paths = (
{
closed = 1;
nodes = (
"130 0 LINE",
"191 501 LINE",
"102 501 LINE",
"41 0 LINE"
);
},
{
closed = 1;
nodes = (
"207 627 LINE",
"217 711 LINE",
"128 711 LINE",
"118 627 LINE"
);
}
);
width = 254;
},
{
associatedMasterId = "CAA31E91-2985-420A-82BA-6B4D8404D924";
layerId = "7D64809D-179E-4E41-A4A2-8E10D36CCD56";
name = b;
width = 254;
},
{
layerId = "A678A55B-4A26-4A39-BA40-1A26897903D3";
paths = (
{
closed = 1;
nodes = (
"98 0 LINE",
"159 501 LINE",
"111 501 LINE",
"50 0 LINE"
);
},
{
closed = 1;
nodes = (
"178 657 LINE",
"185 711 LINE",
"137 711 LINE",
"130 657 LINE"
);
}
);
width = 240;
},
{
layerId = "1FAC414F-D5EA-4BC8-A215-096CEB3A41C8";
paths = (
{
closed = 1;
nodes = (
"143 0 LINE",
"205 501 LINE",
"88 501 LINE",
"26 0 LINE"
);
},
{
closed = 1;
nodes = (
"217 604 LINE",
"230 711 LINE",
"113 711 LINE",
"100 604 LINE"
);
}
);
width = 256;
}
);
unicode = 0069;
userData = {
com.typemytype.robofont.layerData = {
b = {
anchors = (
);
components = (
);
contours = (
);
lib = {
};
name = i;
unicodes = (
);
width = 521.1000;
};
};
org.robofab.postScriptHintData = {
};
};
},
{
glyphname = dotlessi;
lastChange = "2016-08-22 12:06:28 +0000";
layers = (
{
anchors = (
{
name = ogonek;
position = "{110, 0}";
},
{
name = top;
position = "{162, 501}";
}
);
layerId = "CAA31E91-2985-420A-82BA-6B4D8404D924";
paths = (
{
closed = 1;
nodes = (
"146 0 LINE",
"207 501 LINE",
"117 501 LINE",
"56 0 LINE"
);
}
);
width = 260;
},
{
anchors = (
{
name = ogonek;
position = "{86, 0}";
},
{
name = top;
position = "{147, 501}";
}
);
layerId = "A678A55B-4A26-4A39-BA40-1A26897903D3";
paths = (
{
closed = 1;
nodes = (
"110 0 LINE",
"170 501 LINE",
"121 501 LINE",
"61 0 LINE"
);
}
);
width = 231;
},
{
anchors = (
{
name = ogonek;
position = "{105, 0}";
},
{
name = top;
position = "{145, 501}";
}
);
layerId = "1FAC414F-D5EA-4BC8-A215-096CEB3A41C8";
paths = (
{
closed = 1;
nodes = (
"141 0 LINE",
"203 501 LINE",
"81 501 LINE",
"20 0 LINE"
);
}
);
width = 237;
}
);
unicode = 0131;
userData = {
com.typemytype.robofont.layerData = {
};
org.robofab.postScriptHintData = {
};
};
},
{
glyphname = j;
lastChange = "2016-08-22 12:06:28 +0000";
layers = (
{
components = (
{
name = dotlessj;
}
);
layerId = "CAA31E91-2985-420A-82BA-6B4D8404D924";
paths = (
{
closed = 1;
nodes = (
"214 624 LINE",
"225 711 LINE",
"136 711 LINE",
"125 624 LINE"
);
}
);
width = 246;
},
{
associatedMasterId = "CAA31E91-2985-420A-82BA-6B4D8404D924";
layerId = "E830AE96-36CA-4017-B140-4DE739D4C50B";
name = b;
paths = (
{
closed = 1;
nodes = (
"32 -200 CURVE SMOOTH",
"-12 -200 OFFCURVE",
"-57 -190 OFFCURVE",
"-57 -190 CURVE",
"-50 -130 LINE",
"-50 -130 OFFCURVE",
"-21 -137 OFFCURVE",
"9 -137 CURVE SMOOTH",
"75 -137 OFFCURVE",
"86 -102 OFFCURVE",
"86 -1 CURVE SMOOTH",
"86 501 LINE",
"167 501 LINE",
"167 -3 LINE SMOOTH",
"167 -134 OFFCURVE",
"120 -200 OFFCURVE"
);
},
{
closed = 1;
nodes = (
"86 638 LINE",
"86 714 LINE",
"167 714 LINE",
"167 638 LINE"
);
}
);
width = 262;
},
{
components = (
{
name = dotlessj;
}
);
layerId = "A678A55B-4A26-4A39-BA40-1A26897903D3";
paths = (
{
closed = 1;
nodes = (
"202 657 LINE",
"208 711 LINE",
"161 711 LINE",
"154 657 LINE"
);
}
);
width = 246;
},
{
components = (
{
name = dotlessj;
}
);
layerId = "1FAC414F-D5EA-4BC8-A215-096CEB3A41C8";
paths = (
{
closed = 1;
nodes = (
"271 600 LINE",
"284 711 LINE",
"164 711 LINE",
"150 600 LINE"
);
}
);
width = 293;
}
);
unicode = 006A;
userData = {
com.typemytype.robofont.layerData = {
b = {
anchors = (
);
components = (
);
contours = (
{
points = (
{
segmentType = curve;
smooth = 1;
x = 65;
y = -410;
},
{
smooth = 0;
x = -24;
y = -410;
},
{
smooth = 0;
x = -117;
y = -390;
},
{
segmentType = curve;
smooth = 0;
x = -117;
y = -390;
},
{
segmentType = line;
smooth = 0;
x = -102;
y = -267;
},
{
smooth = 0;
x = -102;
y = -267;
},
{
smooth = 0;
x = -44;
y = -280;
},
{
segmentType = curve;
smooth = 1;
x = 19;
y = -280;
},
{
smooth = 0;
x = 153;
y = -280;
},
{
smooth = 0;
x = 177;
y = -208;
},
{
segmentType = curve;
smooth = 1;
x = 177;
y = -2;
},
{
segmentType = line;
smooth = 0;
x = 177;
y = 1026;
},
{
segmentType = line;
smooth = 0;
x = 341;
y = 1026;
},
{
segmentType = line;
smooth = 1;
x = 341;
y = -6;
},
{
smooth = 0;
x = 341;
y = -274;
},
{
smooth = 0;
x = 246;
y = -410;
}
);
},
{
points = (
{
segmentType = line;
smooth = 0;
x = 177;
y = 1307;
},
{
segmentType = line;
smooth = 0;
x = 177;
y = 1462;
},
{
segmentType = line;
smooth = 0;
x = 341;
y = 1462;
},
{
segmentType = line;
smooth = 0;
x = 341;
y = 1307;
}
);
}
);
lib = {
};
name = j;
unicodes = (
);
width = 536.9000;
};
};
org.robofab.postScriptHintData = {
};
};
},
{
glyphname = dotlessj;
lastChange = "2016-08-22 12:06:28 +0000";
layers = (
{
anchors = (
{
name = top;
position = "{170, 501}";
}
);
layerId = "CAA31E91-2985-420A-82BA-6B4D8404D924";
paths = (
{
closed = 1;
nodes = (
"109 -207 OFFCURVE",
"142 -62 OFFCURVE",
"156 51 CURVE SMOOTH",
"211 501 LINE",
"126 501 LINE",
"67 18 LINE SMOOTH",
"54 -86 OFFCURVE",
"18 -133 OFFCURVE",
"-43 -133 CURVE SMOOTH",
"-53 -133 OFFCURVE",
"-66 -131 OFFCURVE",
"-85 -127 CURVE",
"-94 -201 LINE",
"-72 -205 OFFCURVE",
"-52 -207 OFFCURVE",
"-33 -207 CURVE SMOOTH"
);
}
);
width = 246;
},
{
anchors = (
{
name = top;
position = "{175, 501}";
}
);
layerId = "A678A55B-4A26-4A39-BA40-1A26897903D3";
paths = (
{
closed = 1;
nodes = (
"104 -217 OFFCURVE",
"133 -61 OFFCURVE",
"147 55 CURVE SMOOTH",
"202 501 LINE",
"146 501 LINE",
"85 5 LINE SMOOTH",
"71 -113 OFFCURVE",
"33 -165 OFFCURVE",
"-47 -165 CURVE SMOOTH",
"-58 -165 OFFCURVE",
"-69 -164 OFFCURVE",
"-76 -163 CURVE",
"-82 -214 LINE",
"-68 -217 OFFCURVE",
"-51 -217 OFFCURVE",
"-35 -217 CURVE SMOOTH"
);
}
);
width = 246;
},
{
anchors = (
{
name = top;
position = "{209, 501}";
}
);
layerId = "1FAC414F-D5EA-4BC8-A215-096CEB3A41C8";
paths = (
{
closed = 1;
nodes = (
"153 -177 OFFCURVE",
"196 -116 OFFCURVE",
"209 -4 CURVE SMOOTH",
"271 501 LINE",
"148 501 LINE",
"87 10 LINE SMOOTH",
"77 -79 OFFCURVE",
"53 -90 OFFCURVE",
"11 -90 CURVE SMOOTH",
"-30 -90 OFFCURVE",
"-66 -78 OFFCURVE",
"-58 -80 CURVE",
"-81 -164 LINE",
"-91 -162 OFFCURVE",
"-53 -177 OFFCURVE",
"8 -177 CURVE SMOOTH"
);
}
);
width = 293;
}
);
unicode = 0237;
userData = {
org.robofab.postScriptHintData = {
};
};
},
{
glyphname = k;
lastChange = "2016-08-22 12:06:28 +0000";
layers = (
{
anchors = (
{
name = bot;
position = "{248, 0}";
},
{
name = top;
position = "{357, 501}";
}
);
layerId = "CAA31E91-2985-420A-82BA-6B4D8404D924";
paths = (
{
closed = 1;
nodes = (
"130 0 LINE",
"159 237 LINE",
"369 0 LINE",
"488 0 LINE",
"249 262 LINE",
"532 501 LINE",
"409 501 LINE",
"166 287 LINE",
"219 726 LINE",
"129 726 LINE",
"40 0 LINE"
);
}
);
width = 542;
},
{
associatedMasterId = "CAA31E91-2985-420A-82BA-6B4D8404D924";
layerId = "E6A3EE8F-2521-42D4-A594-32A9AC6AC7E4";
name = b;
width = 527;
},
{
anchors = (
{
name = bot;
position = "{236, 0}";
},
{
name = top;
position = "{338, 501}";
}
);
layerId = "A678A55B-4A26-4A39-BA40-1A26897903D3";
paths = (
{
closed = 1;
nodes = (
"98 0 LINE",
"130 261 LINE",
"387 0 LINE",
"449 0 LINE",
"189 265 LINE",
"490 501 LINE",
"427 501 LINE",
"131 268 LINE",
"189 740 LINE",
"141 740 LINE",
"50 0 LINE"
);
}
);
width = 510;
},
{
anchors = (
{
name = bot;
position = "{240, 0}";
},
{
name = top;
position = "{337, 501}";
}
);
layerId = "1FAC414F-D5EA-4BC8-A215-096CEB3A41C8";
paths = (
{
closed = 1;
nodes = (
"146 0 LINE",
"173 217 LINE",
"349 0 LINE",
"510 0 LINE",
"288 259 LINE",
"556 501 LINE",
"389 501 LINE",
"182 296 LINE",
"233 711 LINE",
"112 711 LINE",
"24 0 LINE"
);
}
);
width = 525;
}
);
unicode = 006B;
userData = {
com.typemytype.robofont.layerData = {
b = {
anchors = (
);
components = (
);
contours = (
);
lib = {
};
name = k;
unicodes = (
);
width = 1078.6500;
};
};
org.robofab.postScriptHintData = {
};
};
},
{
glyphname = kgreenlandic;
lastChange = "2016-08-22 12:06:28 +0000";
layers = (
{
layerId = "CAA31E91-2985-420A-82BA-6B4D8404D924";
paths = (
{
closed = 1;
nodes = (
"143 0 LINE",
"170 222 LINE",
"378 0 LINE",
"494 0 LINE",
"253 252 LINE",
"538 501 LINE",
"418 501 LINE",
"177 279 LINE",
"204 501 LINE",
"114 501 LINE",
"52 0 LINE"
);
}
);
width = 528;
},
{
layerId = "A678A55B-4A26-4A39-BA40-1A26897903D3";
paths = (
{
closed = 1;
nodes = (
"119 0 LINE",
"149 250 LINE",
"409 0 LINE",
"476 0 LINE",
"211 251 LINE",
"517 501 LINE",
"449 501 LINE",
"150 256 LINE",
"180 501 LINE",
"130 501 LINE",
"68 0 LINE"
);
}
);
width = 528;
},
{
layerId = "1FAC414F-D5EA-4BC8-A215-096CEB3A41C8";
paths = (
{
closed = 1;
nodes = (
"161 0 LINE",
"184 187 LINE",
"355 0 LINE",
"518 0 LINE",
"303 219 OFFCURVE",
"476 43 OFFCURVE",
"280 247 CURVE",
"563 501 LINE",
"396 501 LINE",
"199 309 LINE",
"222 501 LINE",
"102 501 LINE",
"40 0 LINE"
);
}
);
width = 528;
}
);
unicode = 0138;
userData = {
com.typemytype.robofont.layerData = {
};
org.robofab.postScriptHintData = {
};
};
},
{
glyphname = l;
lastChange = "2016-08-22 12:06:28 +0000";
layers = (
{
anchors = (
{
name = caron.alt;
position = "{140, 501}";
},
{
name = mid;
position = "{112, 360}";
},
{
name = top;
position = "{174, 711}";
}
);
layerId = "CAA31E91-2985-420A-82BA-6B4D8404D924";
paths = (
{
closed = 1;
nodes = (
"132 0 LINE",
"221 726 LINE",
"131 726 LINE",
"42 0 LINE"
);
}
);
width = 257;
},
{
associatedMasterId = "CAA31E91-2985-420A-82BA-6B4D8404D924";
layerId = "ED792669-E85F-47C8-8AC5-5E899E746FE5";
name = b;
width = 255;
},
{
anchors = (
{
name = caron.alt;
position = "{104, 501}";
},
{
name = mid;
position = "{117, 390}";
},
{
name = top;
position = "{164, 711}";
}
);
layerId = "A678A55B-4A26-4A39-BA40-1A26897903D3";
paths = (
{
closed = 1;
nodes = (
"103 0 LINE",
"193 740 LINE",
"146 740 LINE",
"55 0 LINE"
);
}
);
width = 249;
},
{
anchors = (
{
name = caron.alt;
position = "{138, 501}";
},
{
name = mid;
position = "{167, 392}";
},
{
name = top;
position = "{209, 711}";
}
);
layerId = "1FAC414F-D5EA-4BC8-A215-096CEB3A41C8";
paths = (
{
closed = 1;
nodes = (
"174 0 LINE",
"262 711 LINE",
"142 711 LINE",
"54 0 LINE"
);
}
);
width = 279;
}
);
unicode = 006C;
userData = {
com.typemytype.robofont.layerData = {
b = {
anchors = (
);
components = (
);
contours = (
);
lib = {
};
name = l;
unicodes = (
);
width = 521.8000;
};
};
org.robofab.postScriptHintData = {
};
};
},
{
glyphname = lslash;
lastChange = "2016-08-22 12:06:28 +0000";
layers = (
{
layerId = "CAA31E91-2985-420A-82BA-6B4D8404D924";
paths = (
{
closed = 1;
nodes = (
"122 0 LINE",
"171 399 LINE",
"252 449 LINE",
"262 526 LINE",
"180 477 LINE",
"211 724 LINE",
"121 724 LINE",
"83 418 LINE",
"1 369 LINE",
"-8 292 LINE",
"73 341 LINE",
"31 0 LINE"
);
}
);
width = 246;
},
{
layerId = "A678A55B-4A26-4A39-BA40-1A26897903D3";
paths = (
{
closed = 1;
nodes = (
"104 0 LINE",
"147 345 LINE",
"262 396 LINE",
"267 432 LINE",
"152 381 LINE",
"196 740 LINE",
"146 740 LINE",
"100 362 LINE",
"-9 313 LINE",
"-14 275 LINE",
"95 324 LINE",
"55 0 LINE"
);
}
);
width = 246;
},
{
layerId = "1FAC414F-D5EA-4BC8-A215-096CEB3A41C8";
paths = (
{
closed = 1;
nodes = (
"135 0 LINE",
"189 441 LINE",
"245 490 LINE",
"258 599 LINE",
"203 552 LINE",
"222 712 LINE",
"101 712 LINE",
"70 461 LINE",
"11 413 LINE",
"-3 306 LINE",
"58 355 LINE",
"14 0 LINE"
);
}
);
width = 246;
}
);
unicode = 0142;
userData = {
org.robofab.postScriptHintData = {
};
};
},
{
glyphname = m;
lastChange = "2016-08-22 12:06:28 +0000";
layers = (
{
anchors = (
{
name = top;
position = "{517, 501}";
}
);
layerId = "CAA31E91-2985-420A-82BA-6B4D8404D924";
paths = (
{
closed = 1;
nodes = (
"145 0 LINE",
"183 305 LINE",
"197 378 OFFCURVE",
"264 440 OFFCURVE",
"345 440 CURVE SMOOTH",
"417 440 OFFCURVE",
"435 381 OFFCURVE",
"426 307 CURVE SMOOTH",
"388 0 LINE",
"478 0 LINE",
"514 289 LINE",
"528 375 OFFCURVE",
"602 440 OFFCURVE",
"682 440 CURVE SMOOTH",
"747 440 OFFCURVE",
"767 384 OFFCURVE",
"756 299 CURVE SMOOTH",
"719 0 LINE",
"809 0 LINE",
"847 307 LINE SMOOTH",
"863 436 OFFCURVE",
"814 514 OFFCURVE",
"699 514 CURVE SMOOTH",
"620 514 OFFCURVE",
"551 472 OFFCURVE",
"506 405 CURVE",
"490 475 OFFCURVE",
"438 514 OFFCURVE",
"367 514 CURVE SMOOTH",
"299 514 OFFCURVE",
"230 479 OFFCURVE",
"195 420 CURVE",
"204 501 LINE",
"111 501 LINE",
"109 472 OFFCURVE",
"107 425 OFFCURVE",
"100 370 CURVE SMOOTH",
"55 0 LINE"
);
}
);
width = 918;
},
{
associatedMasterId = "CAA31E91-2985-420A-82BA-6B4D8404D924";
layerId = "8AB2E9A1-6AE5-4D95-AEFC-E7437F633A8E";
name = b;
width = 915;
},
{
anchors = (
{
name = top;
position = "{518, 501}";
}
);
layerId = "A678A55B-4A26-4A39-BA40-1A26897903D3";
paths = (
{
closed = 1;
nodes = (
"116 0 LINE",
"157 331 LINE",
"193 424 OFFCURVE",
"264 474 OFFCURVE",
"359 474 CURVE SMOOTH",
"439 474 OFFCURVE",
"474 415 OFFCURVE",
"460 304 CURVE SMOOTH",
"423 0 LINE",
"471 0 LINE",
"508 304 LINE",
"542 415 OFFCURVE",
"611 474 OFFCURVE",
"714 474 CURVE SMOOTH",
"794 474 OFFCURVE",
"829 415 OFFCURVE",
"815 304 CURVE SMOOTH",
"778 0 LINE",
"826 0 LINE",
"863 304 LINE SMOOTH",
"880 441 OFFCURVE",
"831 514 OFFCURVE",
"719 514 CURVE SMOOTH",
"637 514 OFFCURVE",
"556 474 OFFCURVE",
"509 385 CURVE",
"500 470 OFFCURVE",
"451 514 OFFCURVE",
"364 514 CURVE SMOOTH",
"276 514 OFFCURVE",
"206 475 OFFCURVE",
"163 400 CURVE",
"170 501 LINE",
"126 501 LINE SMOOTH",
"126 501 OFFCURVE",
"123 448 OFFCURVE",
"121 430 CURVE SMOOTH",
"68 0 LINE"
);
}
);
width = 950;
},
{
anchors = (
{
name = top;
position = "{503, 501}";
}
);
layerId = "1FAC414F-D5EA-4BC8-A215-096CEB3A41C8";
paths = (
{
closed = 1;
nodes = (
"167 0 LINE",
"205 304 LINE SMOOTH",
"212 362 OFFCURVE",
"269 416 OFFCURVE",
"338 416 CURVE SMOOTH",
"404 416 OFFCURVE",
"407 349 OFFCURVE",
"402 306 CURVE SMOOTH",
"364 0 LINE",
"485 0 LINE",
"520 284 LINE SMOOTH",
"528 346 OFFCURVE",
"584 416 OFFCURVE",
"659 416 CURVE SMOOTH",
"716 416 OFFCURVE",
"723 348 OFFCURVE",
"717 300 CURVE SMOOTH",
"680 0 LINE",
"801 0 LINE",
"839 307 LINE SMOOTH",
"854 431 OFFCURVE",
"807 514 OFFCURVE",
"681 514 CURVE SMOOTH",
"605 514 OFFCURVE",
"549 474 OFFCURVE",
"507 421 CURVE",
"484 485 OFFCURVE",
"430 514 OFFCURVE",
"368 514 CURVE SMOOTH",
"307 514 OFFCURVE",
"248 480 OFFCURVE",
"218 436 CURVE",
"226 501 LINE",
"99 501 LINE",
"96 466 OFFCURVE",
"99 426 OFFCURVE",
"88 340 CURVE SMOOTH",
"46 0 LINE"
);
}
);
width = 898;
}
);
unicode = 006D;
userData = {
com.typemytype.robofont.guides = (
);
com.typemytype.robofont.layerData = {
b = {
anchors = (
);
components = (
);
contours = (
);
lib = {
};
name = m;
unicodes = (
);
width = 1873.9500;
};
};
org.robofab.postScriptHintData = {
};
};
},
{
glyphname = n;
lastChange = "2016-08-22 12:06:28 +0000";
layers = (
{
anchors = (
{
name = bot;
position = "{296, 0}";
},
{
name = top;
position = "{364, 501}";
}
);
layerId = "CAA31E91-2985-420A-82BA-6B4D8404D924";
paths = (
{
closed = 1;
nodes = (
"145 0 LINE",
"184 314 LINE",
"197 380 OFFCURVE",
"276 440 OFFCURVE",
"353 440 CURVE SMOOTH",
"438 440 OFFCURVE",
"456 385 OFFCURVE",
"443 282 CURVE SMOOTH",
"409 0 LINE",
"499 0 LINE",
"534 282 LINE SMOOTH",
"552 437 OFFCURVE",
"504 514 OFFCURVE",
"377 514 CURVE SMOOTH",
"311 514 OFFCURVE",
"237 481 OFFCURVE",
"195 422 CURVE",
"204 501 LINE",
"111 501 LINE SMOOTH",
"111 501 OFFCURVE",
"109 438 OFFCURVE",
"99 362 CURVE SMOOTH",
"55 0 LINE"
);
}
);
width = 607;
},
{
associatedMasterId = "CAA31E91-2985-420A-82BA-6B4D8404D924";
layerId = "3249FBD5-6F4A-41CE-A0E7-BA29CC6FEFBB";
name = b;
width = 605;
},
{
anchors = (
{
name = bot;
position = "{285, 0}";
},
{
name = top;
position = "{354, 501}";
}
);
layerId = "A678A55B-4A26-4A39-BA40-1A26897903D3";
paths = (
{
closed = 1;
nodes = (
"115 0 LINE",
"156 331 LINE",
"192 424 OFFCURVE",
"272 474 OFFCURVE",
"368 474 CURVE SMOOTH",
"458 474 OFFCURVE",
"493 415 OFFCURVE",
"479 304 CURVE SMOOTH",
"441 0 LINE",
"489 0 LINE",
"527 304 LINE SMOOTH",
"543 441 OFFCURVE",
"494 514 OFFCURVE",
"373 514 CURVE SMOOTH",
"285 514 OFFCURVE",
"205 475 OFFCURVE",
"162 400 CURVE",
"169 501 LINE",
"125 501 LINE SMOOTH",
"125 501 OFFCURVE",
"122 448 OFFCURVE",
"120 430 CURVE SMOOTH",
"67 0 LINE"
);
}
);
width = 614;
},
{
anchors = (
{
name = bot;
position = "{272, 0}";
},
{
name = top;
position = "{358, 501}";
}
);
layerId = "1FAC414F-D5EA-4BC8-A215-096CEB3A41C8";
paths = (
{
closed = 1;
nodes = (
"167 0 LINE",
"204 300 LINE SMOOTH",
"212 375 OFFCURVE",
"298 416 OFFCURVE",
"343 416 CURVE SMOOTH",
"406 416 OFFCURVE",
"428 383 OFFCURVE",
"417 294 CURVE SMOOTH",
"381 0 LINE",
"502 0 LINE",
"538 286 LINE SMOOTH",
"559 460 OFFCURVE",
"491 514 OFFCURVE",
"380 514 CURVE SMOOTH",
"332 514 OFFCURVE",
"261 490 OFFCURVE",
"217 434 CURVE",
"226 501 LINE",
"97 501 LINE SMOOTH",
"97 501 OFFCURVE",
"99 430 OFFCURVE",
"84 310 CURVE SMOOTH",
"45 0 LINE"
);
}
);
width = 598;
}
);
unicode = 006E;
userData = {
com.typemytype.robofont.layerData = {
b = {
anchors = (
);
components = (
);
contours = (
);
lib = {
};
name = n;
unicodes = (
);
width = 1240.0500;
};
};
org.robofab.postScriptHintData = {
};
};
},
{
glyphname = eng;
lastChange = "2016-08-22 12:06:28 +0000";
layers = (
{
layerId = "CAA31E91-2985-420A-82BA-6B4D8404D924";
paths = (
{
closed = 1;
nodes = (
"425 -199 OFFCURVE",
"496 -103 OFFCURVE",
"516 63 CURVE SMOOTH",
"542 273 LINE SMOOTH",
"561 424 OFFCURVE",
"524 513 OFFCURVE",
"387 513 CURVE SMOOTH",
"319 513 OFFCURVE",
"252 486 OFFCURVE",
"209 431 CURVE",
"217 501 LINE",
"124 501 LINE SMOOTH",
"124 501 OFFCURVE",
"120 438 OFFCURVE",
"111 362 CURVE SMOOTH",
"66 0 LINE",
"157 0 LINE",
"196 314 LINE SMOOTH",
"203 366 OFFCURVE",
"276 439 OFFCURVE",
"360 439 CURVE SMOOTH",
"456 439 OFFCURVE",
"464 375 OFFCURVE",
"451 268 CURVE SMOOTH",
"424 49 LINE SMOOTH",
"409 -71 OFFCURVE",
"367 -131 OFFCURVE",
"253 -131 CURVE SMOOTH",
"214 -131 OFFCURVE",
"166 -124 OFFCURVE",
"106 -109 CURVE",
"88 -176 LINE",
"152 -192 OFFCURVE",
"207 -199 OFFCURVE",
"254 -199 CURVE SMOOTH"
);
}
);
width = 603;
},
{
layerId = "A678A55B-4A26-4A39-BA40-1A26897903D3";
paths = (
{
closed = 1;
nodes = (
"487 -190 OFFCURVE",
"509 -83 OFFCURVE",
"528 76 CURVE SMOOTH",
"550 256 LINE SMOOTH",
"565 378 OFFCURVE",
"562 513 OFFCURVE",
"389 513 CURVE SMOOTH",
"295 513 OFFCURVE",
"238 487 OFFCURVE",
"184 434 CURVE",
"188 501 LINE",
"142 501 LINE SMOOTH",
"142 501 OFFCURVE",
"134 448 OFFCURVE",
"132 430 CURVE SMOOTH",
"79 0 LINE",
"128 0 LINE",
"169 331 LINE SMOOTH",
"172 354 OFFCURVE",
"241 470 OFFCURVE",
"377 470 CURVE SMOOTH",
"515 470 OFFCURVE",
"514 366 OFFCURVE",
"498 235 CURVE SMOOTH",
"479 80 LINE SMOOTH",
"462 -54 OFFCURVE",
"455 -149 OFFCURVE",
"303 -149 CURVE SMOOTH",
"258 -149 OFFCURVE",
"194 -140 OFFCURVE",
"102 -116 CURVE",
"92 -163 LINE",
"177 -182 OFFCURVE",
"245 -190 OFFCURVE",
"298 -190 CURVE SMOOTH"
);
}
);
width = 632;
},
{
layerId = "1FAC414F-D5EA-4BC8-A215-096CEB3A41C8";
paths = (
{
closed = 1;
nodes = (
"369 -193 OFFCURVE",
"486 -115 OFFCURVE",
"506 54 CURVE SMOOTH",
"535 286 LINE SMOOTH",
"556 460 OFFCURVE",
"494 514 OFFCURVE",
"383 514 CURVE SMOOTH",
"335 514 OFFCURVE",
"263 486 OFFCURVE",
"228 429 CURVE",
"236 501 LINE",
"108 501 LINE SMOOTH",
"108 501 OFFCURVE",
"109 430 OFFCURVE",
"95 310 CURVE SMOOTH",
"57 0 LINE",
"178 0 LINE",
"214 300 LINE SMOOTH",
"224 375 OFFCURVE",
"302 416 OFFCURVE",
"347 416 CURVE SMOOTH",
"410 416 OFFCURVE",
"426 383 OFFCURVE",
"415 294 CURVE SMOOTH",
"381 24 LINE SMOOTH",
"370 -71 OFFCURVE",
"295 -96 OFFCURVE",
"224 -96 CURVE SMOOTH",
"180 -96 OFFCURVE",
"134 -86 OFFCURVE",
"94 -74 CURVE",
"64 -173 LINE",
"117 -186 OFFCURVE",
"167 -193 OFFCURVE",
"213 -193 CURVE SMOOTH"
);
}
);
width = 582;
}
);
unicode = 014B;
userData = {
com.typemytype.robofont.layerData = {
};
org.robofab.postScriptHintData = {
};
};
},
{
glyphname = o;
lastChange = "2016-08-22 12:06:28 +0000";
layers = (
{
anchors = (
{
name = ogonek;
position = "{284, 0}";
},
{
name = top;
position = "{340, 501}";
}
);
layerId = "CAA31E91-2985-420A-82BA-6B4D8404D924";
paths = (
{
closed = 1;
nodes = (
"440 -11 OFFCURVE",
"546 99 OFFCURVE",
"565 250 CURVE SMOOTH",
"584 404 OFFCURVE",
"506 514 OFFCURVE",
"341 514 CURVE SMOOTH",
"176 514 OFFCURVE",
"68 404 OFFCURVE",
"49 250 CURVE SMOOTH",
"30 99 OFFCURVE",
"110 -11 OFFCURVE",
"276 -11 CURVE SMOOTH"
);
},
{
closed = 1;
nodes = (
"175 63 OFFCURVE",
"130 141 OFFCURVE",
"143 250 CURVE SMOOTH",
"157 362 OFFCURVE",
"223 440 OFFCURVE",
"331 440 CURVE SMOOTH",
"438 440 OFFCURVE",
"484 362 OFFCURVE",
"471 250 CURVE SMOOTH",
"458 141 OFFCURVE",
"394 63 OFFCURVE",
"285 63 CURVE SMOOTH"
);
}
);
width = 614;
},
{
associatedMasterId = "CAA31E91-2985-420A-82BA-6B4D8404D924";
layerId = "A63977DF-375B-45A1-9D10-90925F65F378";
name = b;
width = 615;
},
{
anchors = (
{
name = ogonek;
position = "{276, 0}";
},
{
name = top;
position = "{332, 501}";
}
);
layerId = "A678A55B-4A26-4A39-BA40-1A26897903D3";
paths = (
{
closed = 1;
nodes = (
"422 -10 OFFCURVE",
"534 91 OFFCURVE",
"553 249 CURVE SMOOTH",
"573 410 OFFCURVE",
"487 514 OFFCURVE",
"333 514 CURVE SMOOTH",
"178 514 OFFCURVE",
"66 410 OFFCURVE",
"46 249 CURVE SMOOTH",
"27 91 OFFCURVE",
"114 -10 OFFCURVE",
"268 -10 CURVE SMOOTH"
);
},
{
closed = 1;
nodes = (
"144 30 OFFCURVE",
"79 116 OFFCURVE",
"95 249 CURVE SMOOTH",
"112 386 OFFCURVE",
"198 474 OFFCURVE",
"328 474 CURVE SMOOTH",
"457 474 OFFCURVE",
"521 386 OFFCURVE",
"504 249 CURVE SMOOTH",
"488 116 OFFCURVE",
"402 30 OFFCURVE",
"273 30 CURVE SMOOTH"
);
}
);
width = 601;
},
{
anchors = (
{
name = ogonek;
position = "{292, 0}";
},
{
name = top;
position = "{349, 501}";
}
);
layerId = "1FAC414F-D5EA-4BC8-A215-096CEB3A41C8";
paths = (
{
closed = 1;
nodes = (
"459 -11 OFFCURVE",
"558 113 OFFCURVE",
"575 250 CURVE SMOOTH",
"593 395 OFFCURVE",
"528 514 OFFCURVE",
"348 514 CURVE SMOOTH",
"172 514 OFFCURVE",
"70 393 OFFCURVE",
"53 250 CURVE SMOOTH",
"35 111 OFFCURVE",
"104 -11 OFFCURVE",
"284 -11 CURVE SMOOTH"
);
},
{
closed = 1;
nodes = (
"196 86 OFFCURVE",
"168 166 OFFCURVE",
"179 252 CURVE SMOOTH",
"190 341 OFFCURVE",
"241 416 OFFCURVE",
"335 416 CURVE SMOOTH",
"430 416 OFFCURVE",
"461 341 OFFCURVE",
"449 252 CURVE SMOOTH",
"439 166 OFFCURVE",
"392 86 OFFCURVE",
"293 86 CURVE SMOOTH"
);
}
);
width = 628;
}
);
unicode = 006F;
userData = {
com.typemytype.robofont.layerData = {
b = {
anchors = (
);
components = (
);
contours = (
);
lib = {
};
name = o;
unicodes = (
);
width = 1259.2000;
};
};
org.robofab.postScriptHintData = {
};
};
},
{
glyphname = oslash;
lastChange = "2016-08-22 12:06:28 +0000";
layers = (
{
components = (
{
name = o;
}
);
layerId = "CAA31E91-2985-420A-82BA-6B4D8404D924";
paths = (
{
closed = 1;
nodes = (
"521 581 LINE",
"481 599 LINE",
"86 -86 LINE",
"127 -104 LINE"
);
}
);
width = 612;
},
{
associatedMasterId = "CAA31E91-2985-420A-82BA-6B4D8404D924";
layerId = "B0C2894A-FD9C-4F05-8C49-02D91141B2E6";
name = b;
width = 613;
},
{
components = (
{
name = o;
}
);
layerId = "A678A55B-4A26-4A39-BA40-1A26897903D3";
paths = (
{
closed = 1;
nodes = (
"514 600 LINE",
"492 610 LINE",
"95 -103 LINE",
"115 -111 LINE"
);
}
);
width = 601;
},
{
components = (
{
name = o;
}
);
layerId = "1FAC414F-D5EA-4BC8-A215-096CEB3A41C8";
paths = (
{
closed = 1;
nodes = (
"540 562 LINE",
"495 584 LINE",
"103 -79 LINE",
"148 -102 LINE"
);
}
);
width = 629;
}
);
unicode = 00F8;
userData = {
com.typemytype.robofont.layerData = {
b = {
anchors = (
);
components = (
);
contours = (
);
lib = {
};
name = oslash;
unicodes = (
);
width = 1255;
};
};
org.robofab.postScriptHintData = {
};
};
},
{
glyphname = oe;
lastChange = "2016-08-22 12:06:28 +0000";
layers = (
{
layerId = "CAA31E91-2985-420A-82BA-6B4D8404D924";
paths = (
{
closed = 1;
nodes = (
"357 -11 OFFCURVE",
"440 32 OFFCURVE",
"480 102 CURVE",
"505 33 OFFCURVE",
"583 -11 OFFCURVE",
"669 -11 CURVE SMOOTH",
"787 -11 OFFCURVE",
"859 42 OFFCURVE",
"870 49 CURVE",
"851 115 LINE",
"840 108 OFFCURVE",
"775 63 OFFCURVE",
"687 63 CURVE SMOOTH",
"589 63 OFFCURVE",
"534 124 OFFCURVE",
"540 215 CURVE SMOOTH",
"541 230 LINE",
"907 230 LINE",
"911 256 LINE",
"929 410 OFFCURVE",
"862 515 OFFCURVE",
"722 515 CURVE SMOOTH",
"628 515 OFFCURVE",
"561 472 OFFCURVE",
"518 402 CURVE",
"490 469 OFFCURVE",
"430 514 OFFCURVE",
"335 514 CURVE SMOOTH",
"170 514 OFFCURVE",
"64 399 OFFCURVE",
"46 249 CURVE SMOOTH",
"27 99 OFFCURVE",
"108 -11 OFFCURVE",
"271 -11 CURVE SMOOTH"
);
},
{
closed = 1;
nodes = (
"171 63 OFFCURVE",
"128 144 OFFCURVE",
"140 247 CURVE SMOOTH",
"154 358 OFFCURVE",
"222 440 OFFCURVE",
"326 440 CURVE SMOOTH",
"429 440 OFFCURVE",
"468 359 OFFCURVE",
"454 250 CURVE SMOOTH",
"441 146 OFFCURVE",
"382 63 OFFCURVE",
"281 63 CURVE SMOOTH"
);
},
{
closed = 1;
nodes = (
"566 376 OFFCURVE",
"631 440 OFFCURVE",
"713 440 CURVE SMOOTH",
"789 440 OFFCURVE",
"834 386 OFFCURVE",
"833 312 CURVE",
"832 300 LINE",
"550 300 LINE"
);
}
);
width = 966;
},
{
associatedMasterId = "CAA31E91-2985-420A-82BA-6B4D8404D924";
components = (
{
name = o;
transform = "{1, 0, 0, 1, -3, 0}";
},
{
name = e;
transform = "{1, 0, 0, 1, 396, 0}";
}
);
layerId = "F22903EE-D44F-4C68-8F75-493745B025AC";
name = b;
width = 967;
},
{
layerId = "A678A55B-4A26-4A39-BA40-1A26897903D3";
paths = (
{
closed = 1;
nodes = (
"356 -10 OFFCURVE",
"441 42 OFFCURVE",
"481 124 CURVE",
"503 42 OFFCURVE",
"580 -10 OFFCURVE",
"674 -10 CURVE SMOOTH",
"735 -10 OFFCURVE",
"811 14 OFFCURVE",
"866 53 CURVE",
"852 86 LINE",
"801 52 OFFCURVE",
"734 30 OFFCURVE",
"684 30 CURVE SMOOTH",
"568 30 OFFCURVE",
"504 110 OFFCURVE",
"520 233 CURVE",
"521 248 LINE",
"913 248 LINE",
"916 272 LINE SMOOTH",
"934 419 OFFCURVE",
"863 514 OFFCURVE",
"735 514 CURVE SMOOTH",
"635 514 OFFCURVE",
"545 461 OFFCURVE",
"512 373 CURVE",
"492 461 OFFCURVE",
"422 514 OFFCURVE",
"327 514 CURVE SMOOTH",
"173 514 OFFCURVE",
"61 410 OFFCURVE",
"41 248 CURVE SMOOTH",
"22 91 OFFCURVE",
"107 -10 OFFCURVE",
"260 -10 CURVE SMOOTH"
);
},
{
closed = 1;
nodes = (
"145 30 OFFCURVE",
"78 114 OFFCURVE",
"94 246 CURVE SMOOTH",
"111 384 OFFCURVE",
"201 474 OFFCURVE",
"322 474 CURVE SMOOTH",
"433 474 OFFCURVE",
"494 386 OFFCURVE",
"477 250 CURVE SMOOTH",
"461 116 OFFCURVE",
"377 30 OFFCURVE",
"265 30 CURVE SMOOTH"
);
},
{
closed = 1;
nodes = (
"538 399 OFFCURVE",
"624 474 OFFCURVE",
"730 474 CURVE SMOOTH",
"825 474 OFFCURVE",
"882 411 OFFCURVE",
"879 313 CURVE SMOOTH",
"879 305 OFFCURVE",
"878 293 OFFCURVE",
"877 282 CURVE",
"526 282 LINE"
);
}
);
width = 950;
},
{
layerId = "1FAC414F-D5EA-4BC8-A215-096CEB3A41C8";
paths = (
{
closed = 1;
nodes = (
"355 -11 OFFCURVE",
"439 26 OFFCURVE",
"477 78 CURVE",
"508 25 OFFCURVE",
"588 -11 OFFCURVE",
"666 -11 CURVE SMOOTH",
"790 -11 OFFCURVE",
"875 52 OFFCURVE",
"875 52 CURVE",
"854 141 LINE",
"854 141 OFFCURVE",
"775 86 OFFCURVE",
"691 86 CURVE SMOOTH",
"601 86 OFFCURVE",
"551 122 OFFCURVE",
"555 200 CURVE",
"555 211 LINE",
"902 211 LINE",
"906 244 LINE SMOOTH",
"926 407 OFFCURVE",
"856 515 OFFCURVE",
"713 515 CURVE SMOOTH",
"620 515 OFFCURVE",
"565 482 OFFCURVE",
"520 426 CURVE",
"491 475 OFFCURVE",
"433 514 OFFCURVE",
"341 514 CURVE SMOOTH",
"174 514 OFFCURVE",
"68 399 OFFCURVE",
"49 250 CURVE SMOOTH",
"31 98 OFFCURVE",
"117 -11 OFFCURVE",
"280 -11 CURVE SMOOTH"
);
},
{
closed = 1;
nodes = (
"198 86 OFFCURVE",
"164 160 OFFCURVE",
"175 248 CURVE SMOOTH",
"186 342 OFFCURVE",
"243 416 OFFCURVE",
"330 416 CURVE SMOOTH",
"420 416 OFFCURVE",
"447 343 OFFCURVE",
"435 250 CURVE SMOOTH",
"425 163 OFFCURVE",
"378 86 OFFCURVE",
"293 86 CURVE SMOOTH"
);
},
{
closed = 1;
nodes = (
"585 386 OFFCURVE",
"638 418 OFFCURVE",
"699 418 CURVE SMOOTH",
"756 418 OFFCURVE",
"810 384 OFFCURVE",
"798 318 CURVE SMOOTH",
"797 313 LINE",
"568 313 LINE"
);
}
);
width = 978;
}
);
unicode = 0153;
userData = {
com.typemytype.robofont.layerData = {
b = {
anchors = (
);
components = (
{
baseGlyph = o;
transformation = (
1,
0,
0,
1,
-6,
0
);
},
{
baseGlyph = e;
transformation = (
1,
0,
0,
1,
811,
0
);
}
);
contours = (
);
lib = {
};
name = oe;
unicodes = (
);
width = 1979.8000;
};
};
org.robofab.postScriptHintData = {
};
};
},
{
glyphname = p;
lastChange = "2016-08-22 12:06:28 +0000";
layers = (
{
anchors = (
{
name = top;
position = "{373, 501}";
}
);
layerId = "CAA31E91-2985-420A-82BA-6B4D8404D924";
paths = (
{
closed = 1;
nodes = (
"131 -209 LINE",
"167 81 LINE",
"179 35 OFFCURVE",
"239 -11 OFFCURVE",
"322 -11 CURVE SMOOTH",
"460 -11 OFFCURVE",
"562 104 OFFCURVE",
"580 255 CURVE SMOOTH",
"598 404 OFFCURVE",
"526 513 OFFCURVE",
"388 513 CURVE SMOOTH",
"307 513 OFFCURVE",
"232 464 OFFCURVE",
"208 411 CURVE",
"218 501 LINE",
"124 501 LINE",
"121 460 OFFCURVE",
"117 397 OFFCURVE",
"111 355 CURVE SMOOTH",
"42 -209 LINE"
);
},
{
closed = 1;
nodes = (
"216 62 OFFCURVE",
"171 138 OFFCURVE",
"185 246 CURVE SMOOTH",
"199 359 OFFCURVE",
"264 440 OFFCURVE",
"362 440 CURVE SMOOTH",
"458 440 OFFCURVE",
"500 362 OFFCURVE",
"486 252 CURVE SMOOTH",
"473 141 OFFCURVE",
"413 62 OFFCURVE",
"315 62 CURVE SMOOTH"
);
}
);
width = 617;
},
{
associatedMasterId = "CAA31E91-2985-420A-82BA-6B4D8404D924";
layerId = "9451A74F-C9A7-4BBF-BCFF-3F1D3C900FFF";
name = b;
width = 615;
},
{
anchors = (
{
name = top;
position = "{389, 501}";
}
);
layerId = "A678A55B-4A26-4A39-BA40-1A26897903D3";
paths = (
{
closed = 1;
nodes = (
"101 -239 LINE",
"143 104 LINE",
"165 28 OFFCURVE",
"237 -13 OFFCURVE",
"325 -13 CURVE SMOOTH",
"463 -13 OFFCURVE",
"564 89 OFFCURVE",
"583 247 CURVE SMOOTH",
"603 408 OFFCURVE",
"527 511 OFFCURVE",
"389 511 CURVE SMOOTH",
"297 511 OFFCURVE",
"214 458 OFFCURVE",
"176 380 CURVE",
"189 501 LINE",
"141 501 LINE",
"141 500 OFFCURVE",
"134 422 OFFCURVE",
"128 370 CURVE SMOOTH",
"53 -239 LINE"
);
},
{
closed = 1;
nodes = (
"210 27 OFFCURVE",
"143 106 OFFCURVE",
"160 240 CURVE SMOOTH",
"176 376 OFFCURVE",
"265 471 OFFCURVE",
"384 471 CURVE SMOOTH",
"499 471 OFFCURVE",
"552 383 OFFCURVE",
"536 247 CURVE SMOOTH",
"519 113 OFFCURVE",
"444 27 OFFCURVE",
"330 27 CURVE SMOOTH"
);
}
);
width = 617;
},
{
anchors = (
{
name = top;
position = "{381, 501}";
}
);
layerId = "1FAC414F-D5EA-4BC8-A215-096CEB3A41C8";
paths = (
{
closed = 1;
nodes = (
"154 -193 LINE",
"187 69 LINE",
"188 43 OFFCURVE",
"236 -11 OFFCURVE",
"324 -11 CURVE SMOOTH",
"468 -11 OFFCURVE",
"565 121 OFFCURVE",
"582 256 CURVE SMOOTH",
"599 392 OFFCURVE",
"532 514 OFFCURVE",
"395 514 CURVE SMOOTH",
"303 514 OFFCURVE",
"240 459 OFFCURVE",
"230 429 CURVE",
"239 501 LINE",
"111 501 LINE",
"108 448 OFFCURVE",
"105 385 OFFCURVE",
"99 333 CURVE SMOOTH",
"35 -193 LINE"
);
},
{
closed = 1;
nodes = (
"216 86 OFFCURVE",
"191 166 OFFCURVE",
"202 253 CURVE SMOOTH",
"213 341 OFFCURVE",
"260 416 OFFCURVE",
"349 416 CURVE SMOOTH",
"438 416 OFFCURVE",
"466 340 OFFCURVE",
"455 251 CURVE SMOOTH",
"444 165 OFFCURVE",
"401 86 OFFCURVE",
"309 86 CURVE SMOOTH"
);
}
);
width = 622;
}
);
unicode = 0070;
userData = {
com.typemytype.robofont.layerData = {
b = {
anchors = (
);
components = (
);
contours = (
);
lib = {
};
name = p;
unicodes = (
);
width = 1260.25;
};
};
org.robofab.postScriptHintData = {
};
};
},
{
glyphname = thorn;
lastChange = "2016-08-22 12:06:28 +0000";
layers = (
{
layerId = "CAA31E91-2985-420A-82BA-6B4D8404D924";
paths = (
{
closed = 1;
nodes = (
"108 -205 LINE",
"142 67 LINE",
"167 15 OFFCURVE",
"228 -11 OFFCURVE",
"292 -11 CURVE SMOOTH",
"445 -11 OFFCURVE",
"538 111 OFFCURVE",
"555 255 CURVE SMOOTH",
"573 400 OFFCURVE",
"510 513 OFFCURVE",
"357 513 CURVE SMOOTH",
"289 513 OFFCURVE",
"223 482 OFFCURVE",
"187 429 CURVE",
"221 712 LINE",
"132 712 LINE",
"19 -205 LINE"
);
},
{
closed = 1;
nodes = (
"191 62 OFFCURVE",
"150 138 OFFCURVE",
"162 243 CURVE SMOOTH",
"175 345 OFFCURVE",
"224 439 OFFCURVE",
"337 439 CURVE SMOOTH",
"441 439 OFFCURVE",
"472 355 OFFCURVE",
"460 253 CURVE SMOOTH",
"447 148 OFFCURVE",
"389 62 OFFCURVE",
"288 62 CURVE SMOOTH"
);
}
);
width = 604;
},
{
layerId = "A678A55B-4A26-4A39-BA40-1A26897903D3";
paths = (
{
closed = 1;
nodes = (
"83 -219 LINE",
"121 98 LINE",
"147 30 OFFCURVE",
"211 -11 OFFCURVE",
"295 -11 CURVE SMOOTH",
"438 -11 OFFCURVE",
"541 89 OFFCURVE",
"561 250 CURVE SMOOTH",
"582 418 OFFCURVE",
"502 513 OFFCURVE",
"360 513 CURVE SMOOTH",
"274 513 OFFCURVE",
"205 475 OFFCURVE",
"160 406 CURVE",
"196 708 LINE",
"141 708 LINE",
"26 -219 LINE"
);
},
{
closed = 1;
nodes = (
"178 30 OFFCURVE",
"124 120 OFFCURVE",
"140 250 CURVE SMOOTH",
"153 361 OFFCURVE",
"213 471 OFFCURVE",
"354 471 CURVE SMOOTH",
"463 471 OFFCURVE",
"523 391 OFFCURVE",
"506 250 CURVE SMOOTH",
"489 113 OFFCURVE",
"409 30 OFFCURVE",
"300 30 CURVE SMOOTH"
);
}
);
width = 609;
},
{
layerId = "1FAC414F-D5EA-4BC8-A215-096CEB3A41C8";
paths = (
{
closed = 1;
nodes = (
"125 -193 LINE",
"153 30 LINE",
"185 8 OFFCURVE",
"232 -11 OFFCURVE",
"281 -11 CURVE SMOOTH",
"439 -11 OFFCURVE",
"533 117 OFFCURVE",
"550 256 CURVE SMOOTH",
"567 395 OFFCURVE",
"501 513 OFFCURVE",
"346 513 CURVE SMOOTH",
"309 513 OFFCURVE",
"241 494 OFFCURVE",
"208 463 CURVE",
"240 715 LINE",
"124 715 LINE",
"13 -193 LINE"
);
},
{
closed = 1;
nodes = (
"201 86 OFFCURVE",
"168 152 OFFCURVE",
"180 241 CURVE SMOOTH",
"191 332 OFFCURVE",
"232 415 OFFCURVE",
"325 415 CURVE SMOOTH",
"414 415 OFFCURVE",
"433 337 OFFCURVE",
"423 254 CURVE SMOOTH",
"412 166 OFFCURVE",
"366 86 OFFCURVE",
"280 86 CURVE SMOOTH"
);
}
);
width = 600;
}
);
unicode = 00FE;
userData = {
com.typemytype.robofont.layerData = {
};
org.robofab.postScriptHintData = {
};
};
},
{
glyphname = q;
lastChange = "2016-08-22 12:06:28 +0000";
layers = (
{
layerId = "CAA31E91-2985-420A-82BA-6B4D8404D924";
paths = (
{
closed = 1;
nodes = (
"484 -205 LINE",
"557 387 LINE",
"559 399 OFFCURVE",
"572 488 OFFCURVE",
"575 501 CURVE",
"482 501 LINE",
"473 432 LINE",
"448 481 OFFCURVE",
"396 514 OFFCURVE",
"328 514 CURVE SMOOTH",
"183 514 OFFCURVE",
"80 406 OFFCURVE",
"61 250 CURVE SMOOTH",
"42 97 OFFCURVE",
"119 -11 OFFCURVE",
"260 -11 CURVE SMOOTH",
"339 -11 OFFCURVE",
"397 33 OFFCURVE",
"429 73 CURVE",
"395 -205 LINE"
);
},
{
closed = 1;
nodes = (
"186 63 OFFCURVE",
"142 138 OFFCURVE",
"156 249 CURVE SMOOTH",
"169 363 OFFCURVE",
"234 440 OFFCURVE",
"329 440 CURVE SMOOTH",
"421 440 OFFCURVE",
"467 366 OFFCURVE",
"453 259 CURVE SMOOTH",
"439 141 OFFCURVE",
"377 63 OFFCURVE",
"280 63 CURVE SMOOTH"
);
}
);
width = 615;
},
{
associatedMasterId = "CAA31E91-2985-420A-82BA-6B4D8404D924";
layerId = "96E22F73-ADDB-4D62-8DC3-9E4E36C5FFD1";
name = b;
width = 612;
},
{
layerId = "A678A55B-4A26-4A39-BA40-1A26897903D3";
paths = (
{
closed = 1;
nodes = (
"463 -219 LINE",
"542 426 LINE",
"538 391 OFFCURVE",
"561 538 OFFCURVE",
"554 501 CURVE",
"500 501 LINE",
"489 412 LINE",
"477 465 OFFCURVE",
"421 514 OFFCURVE",
"323 514 CURVE SMOOTH",
"189 514 OFFCURVE",
"79 423 OFFCURVE",
"56 239 CURVE SMOOTH",
"35 64 OFFCURVE",
"135 -10 OFFCURVE",
"251 -10 CURVE SMOOTH",
"374 -10 OFFCURVE",
"441 66 OFFCURVE",
"454 116 CURVE",
"413 -219 LINE"
);
},
{
closed = 1;
nodes = (
"163 32 OFFCURVE",
"94 102 OFFCURVE",
"111 244 CURVE SMOOTH",
"129 392 OFFCURVE",
"218 471 OFFCURVE",
"322 471 CURVE SMOOTH",
"417 471 OFFCURVE",
"483 399 OFFCURVE",
"468 272 CURVE SMOOTH",
"448 109 OFFCURVE",
"363 32 OFFCURVE",
"258 32 CURVE SMOOTH"
);
}
);
width = 613;
},
{
layerId = "1FAC414F-D5EA-4BC8-A215-096CEB3A41C8";
paths = (
{
closed = 1;
nodes = (
"500 -193 LINE",
"567 356 LINE SMOOTH",
"574 405 OFFCURVE",
"580 448 OFFCURVE",
"590 501 CURVE",
"467 501 LINE",
"460 447 LINE",
"425 494 OFFCURVE",
"375 514 OFFCURVE",
"331 514 CURVE SMOOTH",
"177 514 OFFCURVE",
"80 392 OFFCURVE",
"63 258 CURVE SMOOTH",
"46 122 OFFCURVE",
"104 -11 OFFCURVE",
"266 -11 CURVE SMOOTH",
"312 -11 OFFCURVE",
"364 7 OFFCURVE",
"409 40 CURVE",
"380 -193 LINE"
);
},
{
closed = 1;
nodes = (
"202 86 OFFCURVE",
"178 166 OFFCURVE",
"188 252 CURVE SMOOTH",
"200 341 OFFCURVE",
"246 416 OFFCURVE",
"334 416 CURVE SMOOTH",
"424 416 OFFCURVE",
"453 340 OFFCURVE",
"441 250 CURVE SMOOTH",
"431 165 OFFCURVE",
"387 86 OFFCURVE",
"295 86 CURVE SMOOTH"
);
}
);
width = 610;
}
);
unicode = 0071;
userData = {
com.typemytype.robofont.layerData = {
b = {
anchors = (
);
components = (
);
contours = (
);
lib = {
};
name = q;
unicodes = (
);
width = 1254.3000;
};
};
org.robofab.postScriptHintData = {
};
};
},
{
glyphname = r;
lastChange = "2016-08-22 12:06:28 +0000";
layers = (
{
anchors = (
{
name = bot;
position = "{115, 0}";
},
{
name = top;
position = "{283, 501}";
}
);
layerId = "CAA31E91-2985-420A-82BA-6B4D8404D924";
paths = (
{
closed = 1;
nodes = (
"146 0 LINE",
"181 279 LINE SMOOTH",
"194 383 OFFCURVE",
"254 435 OFFCURVE",
"328 435 CURVE SMOOTH",
"348 435 OFFCURVE",
"367 432 OFFCURVE",
"382 427 CURVE",
"393 507 LINE",
"376 511 OFFCURVE",
"359 513 OFFCURVE",
"343 513 CURVE SMOOTH",
"286 513 OFFCURVE",
"234 482 OFFCURVE",
"198 423 CURVE",
"206 501 LINE",
"111 501 LINE SMOOTH",
"111 501 OFFCURVE",
"107 416 OFFCURVE",
"103 378 CURVE SMOOTH",
"56 0 LINE"
);
}
);
width = 392;
},
{
associatedMasterId = "CAA31E91-2985-420A-82BA-6B4D8404D924";
layerId = "F34BF3D4-8DC8-4B11-A033-C972F9F966F2";
name = b;
width = 400;
},
{
anchors = (
{
name = bot;
position = "{124, 0}";
},
{
name = top;
position = "{265, 501}";
}
);
layerId = "A678A55B-4A26-4A39-BA40-1A26897903D3";
paths = (
{
closed = 1;
nodes = (
"117 0 LINE",
"150 273 LINE SMOOTH",
"167 415 OFFCURVE",
"238 468 OFFCURVE",
"324 468 CURVE SMOOTH",
"338 468 OFFCURVE",
"354 466 OFFCURVE",
"369 463 CURVE",
"377 507 LINE",
"361 510 OFFCURVE",
"344 512 OFFCURVE",
"328 512 CURVE SMOOTH",
"263 512 OFFCURVE",
"200 485 OFFCURVE",
"168 408 CURVE",
"175 501 LINE",
"126 501 LINE SMOOTH",
"126 501 OFFCURVE",
"123 441 OFFCURVE",
"115 379 CURVE SMOOTH",
"69 0 LINE"
);
}
);
width = 375;
},
{
anchors = (
{
name = bot;
position = "{134, 0}";
},
{
name = top;
position = "{247, 501}";
}
);
layerId = "1FAC414F-D5EA-4BC8-A215-096CEB3A41C8";
paths = (
{
closed = 1;
nodes = (
"168 0 LINE",
"204 284 LINE SMOOTH",
"214 370 OFFCURVE",
"269 411 OFFCURVE",
"333 411 CURVE SMOOTH",
"350 411 OFFCURVE",
"370 408 OFFCURVE",
"391 400 CURVE",
"405 506 LINE",
"387 511 OFFCURVE",
"370 514 OFFCURVE",
"356 514 CURVE SMOOTH",
"303 514 OFFCURVE",
"263 483 OFFCURVE",
"220 435 CURVE",
"228 501 LINE",
"99 501 LINE SMOOTH",
"99 501 OFFCURVE",
"102 439 OFFCURVE",
"94 374 CURVE SMOOTH",
"47 0 LINE"
);
}
);
width = 381;
}
);
unicode = 0072;
userData = {
com.typemytype.robofont.layerData = {
b = {
anchors = (
);
components = (
);
contours = (
);
lib = {
};
name = r;
unicodes = (
);
width = 818.9000;
};
};
org.robofab.postScriptHintData = {
};
};
},
{
glyphname = s;
lastChange = "2016-08-22 12:06:28 +0000";
layers = (
{
anchors = (
{
name = bot;
position = "{226, 0}";
},
{
name = top;
position = "{269, 501}";
}
);
layerId = "CAA31E91-2985-420A-82BA-6B4D8404D924";
paths = (
{
closed = 1;
nodes = (
"308 -11 OFFCURVE",
"403 29 OFFCURVE",
"417 140 CURVE SMOOTH",
"428 232 OFFCURVE",
"370 259 OFFCURVE",
"286 290 CURVE SMOOTH",
"238 307 LINE SMOOTH",
"182 328 OFFCURVE",
"163 339 OFFCURVE",
"167 377 CURVE SMOOTH",
"172 417 OFFCURVE",
"212 440 OFFCURVE",
"276 440 CURVE SMOOTH",
"333 440 OFFCURVE",
"384 417 OFFCURVE",
"404 405 CURVE",
"437 470 LINE",
"408 490 OFFCURVE",
"355 513 OFFCURVE",
"275 513 CURVE SMOOTH",
"183 513 OFFCURVE",
"90 474 OFFCURVE",
"78 375 CURVE SMOOTH",
"68 290 OFFCURVE",
"120 260 OFFCURVE",
"190 234 CURVE SMOOTH",
"231 219 LINE SMOOTH",
"306 193 OFFCURVE",
"336 180 OFFCURVE",
"332 136 CURVE",
"324 78 OFFCURVE",
"274 63 OFFCURVE",
"223 63 CURVE SMOOTH",
"156 63 OFFCURVE",
"98 94 OFFCURVE",
"70 117 CURVE",
"37 50 LINE",
"59 30 OFFCURVE",
"122 -11 OFFCURVE",
"221 -11 CURVE SMOOTH"
);
}
);
width = 478;
},
{
associatedMasterId = "CAA31E91-2985-420A-82BA-6B4D8404D924";
layerId = "BBAF2EC2-2718-4888-9842-37686C696A8F";
name = b;
paths = (
{
closed = 1;
nodes = (
"243 -11 CURVE SMOOTH",
"138 -11 OFFCURVE",
"71 34 OFFCURVE",
"57 46 CURVE",
"78 108 LINE",
"102 92 OFFCURVE",
"170 53 OFFCURVE",
"236 53 CURVE SMOOTH",
"288 53 OFFCURVE",
"347 69 OFFCURVE",
"347 133 CURVE SMOOTH",
"347 193 OFFCURVE",
"274 208 OFFCURVE",
"201 231 CURVE",
"128 254 OFFCURVE",
"55 286 OFFCURVE",
"55 376 CURVE SMOOTH",
"55 474 OFFCURVE",
"155 513 OFFCURVE",
"238 513 CURVE SMOOTH",
"349 513 OFFCURVE",
"387 484 OFFCURVE",
"406 472 CURVE",
"383 416 LINE",
"377 419 OFFCURVE",
"326 448 OFFCURVE",
"246 448 CURVE SMOOTH",
"173 448 OFFCURVE",
"138 431 OFFCURVE",
"138 378 CURVE SMOOTH",
"138 322 OFFCURVE",
"211 307 OFFCURVE",
"284 284 CURVE SMOOTH",
"357 260 OFFCURVE",
"430 229 OFFCURVE",
"430 139 CURVE SMOOTH",
"430 30 OFFCURVE",
"334 -11 OFFCURVE"
);
}
);
width = 479;
},
{
anchors = (
{
name = bot;
position = "{214, 0}";
},
{
name = top;
position = "{258, 501}";
}
);
layerId = "A678A55B-4A26-4A39-BA40-1A26897903D3";
paths = (
{
closed = 1;
nodes = (
"299 -10 OFFCURVE",
"382 34 OFFCURVE",
"395 137 CURVE SMOOTH",
"404 209 OFFCURVE",
"368 241 OFFCURVE",
"291 267 CURVE SMOOTH",
"196 297 LINE SMOOTH",
"132 318 OFFCURVE",
"115 333 OFFCURVE",
"121 386 CURVE SMOOTH",
"128 441 OFFCURVE",
"173 474 OFFCURVE",
"268 474 CURVE SMOOTH",
"342 474 OFFCURVE",
"382 450 OFFCURVE",
"397 441 CURVE",
"417 477 LINE",
"401 488 OFFCURVE",
"362 514 OFFCURVE",
"272 514 CURVE SMOOTH",
"163 514 OFFCURVE",
"84 474 OFFCURVE",
"73 382 CURVE SMOOTH",
"64 307 OFFCURVE",
"103 277 OFFCURVE",
"173 255 CURVE SMOOTH",
"270 224 LINE SMOOTH",
"331 205 OFFCURVE",
"355 183 OFFCURVE",
"348 128 CURVE SMOOTH",
"338 46 OFFCURVE",
"263 32 OFFCURVE",
"204 32 CURVE SMOOTH",
"122 32 OFFCURVE",
"72 74 OFFCURVE",
"57 84 CURVE",
"34 47 LINE",
"49 35 OFFCURVE",
"105 -10 OFFCURVE",
"201 -10 CURVE SMOOTH"
);
}
);
width = 457;
},
{
anchors = (
{
name = bot;
position = "{226, 0}";
},
{
name = top;
position = "{278, 501}";
}
);
layerId = "1FAC414F-D5EA-4BC8-A215-096CEB3A41C8";
paths = (
{
closed = 1;
nodes = (
"313 -11 OFFCURVE",
"416 26 OFFCURVE",
"429 142 CURVE SMOOTH",
"441 231 OFFCURVE",
"401 263 OFFCURVE",
"333 287 CURVE",
"338 285 OFFCURVE",
"266 311 OFFCURVE",
"270 309 CURVE",
"192 336 OFFCURVE",
"184 345 OFFCURVE",
"188 375 CURVE SMOOTH",
"192 406 OFFCURVE",
"218 418 OFFCURVE",
"272 418 CURVE SMOOTH",
"316 418 OFFCURVE",
"372 401 OFFCURVE",
"407 381 CURVE",
"449 464 LINE",
"403 497 OFFCURVE",
"336 513 OFFCURVE",
"275 513 CURVE SMOOTH",
"176 513 OFFCURVE",
"84 473 OFFCURVE",
"71 368 CURVE SMOOTH",
"60 278 OFFCURVE",
"112 252 OFFCURVE",
"189 226 CURVE SMOOTH",
"258 203 LINE SMOOTH",
"329 178 OFFCURVE",
"321 164 OFFCURVE",
"318 142 CURVE SMOOTH",
"313 100 OFFCURVE",
"281 84 OFFCURVE",
"229 84 CURVE SMOOTH",
"171 84 OFFCURVE",
"104 107 OFFCURVE",
"68 139 CURVE",
"27 52 LINE",
"63 21 OFFCURVE",
"134 -11 OFFCURVE",
"229 -11 CURVE SMOOTH"
);
}
);
width = 482;
}
);
unicode = 0073;
userData = {
com.typemytype.robofont.layerData = {
b = {
anchors = (
);
components = (
);
contours = (
{
points = (
{
segmentType = curve;
smooth = 1;
x = 498;
y = -23;
},
{
smooth = 0;
x = 282;
y = -23;
},
{
smooth = 0;
x = 145;
y = 70;
},
{
segmentType = curve;
smooth = 0;
x = 116;
y = 94;
},
{
segmentType = line;
smooth = 0;
x = 160;
y = 222;
},
{
smooth = 0;
x = 208;
y = 189;
},
{
smooth = 0;
x = 348;
y = 109;
},
{
segmentType = curve;
smooth = 1;
x = 484;
y = 109;
},
{
smooth = 0;
x = 589;
y = 109;
},
{
smooth = 0;
x = 711;
y = 141;
},
{
segmentType = curve;
smooth = 1;
x = 711;
y = 272;
},
{
smooth = 0;
x = 711;
y = 395;
},
{
smooth = 0;
x = 561;
y = 426;
},
{
segmentType = curve;
smooth = 0;
x = 412;
y = 474;
},
{
smooth = 0;
x = 262;
y = 521;
},
{
smooth = 0;
x = 112;
y = 585;
},
{
segmentType = curve;
smooth = 1;
x = 112;
y = 771;
},
{
smooth = 0;
x = 112;
y = 970;
},
{
smooth = 0;
x = 318;
y = 1051;
},
{
segmentType = curve;
smooth = 1;
x = 488;
y = 1051;
},
{
smooth = 0;
x = 715;
y = 1051;
},
{
smooth = 0;
x = 792;
y = 991;
},
{
segmentType = curve;
smooth = 0;
x = 832;
y = 966;
},
{
segmentType = line;
smooth = 0;
x = 785;
y = 851;
},
{
smooth = 0;
x = 772;
y = 858;
},
{
smooth = 0;
x = 667;
y = 917;
},
{
segmentType = curve;
smooth = 1;
x = 504;
y = 917;
},
{
smooth = 0;
x = 355;
y = 917;
},
{
smooth = 0;
x = 283;
y = 882;
},
{
segmentType = curve;
smooth = 1;
x = 283;
y = 774;
},
{
smooth = 0;
x = 283;
y = 660;
},
{
smooth = 0;
x = 433;
y = 629;
},
{
segmentType = curve;
smooth = 1;
x = 582;
y = 581;
},
{
smooth = 0;
x = 732;
y = 533;
},
{
smooth = 0;
x = 881;
y = 468;
},
{
segmentType = curve;
smooth = 1;
x = 881;
y = 284;
},
{
smooth = 0;
x = 881;
y = 62;
},
{
smooth = 0;
x = 685;
y = -23;
}
);
}
);
lib = {
};
name = s;
unicodes = (
);
width = 981.9000;
};
};
org.robofab.postScriptHintData = {
};
};
},
{
glyphname = germandbls;
lastChange = "2016-08-22 12:06:28 +0000";
layers = (
{
layerId = "CAA31E91-2985-420A-82BA-6B4D8404D924";
paths = (
{
closed = 1;
nodes = (
"446 -12 OFFCURVE",
"538 58 OFFCURVE",
"551 167 CURVE SMOOTH",
"566 291 OFFCURVE",
"477 356 OFFCURVE",
"380 393 CURVE",
"373 396 OFFCURVE",
"355 402 OFFCURVE",
"348 404 CURVE",
"356 406 OFFCURVE",
"375 413 OFFCURVE",
"382 417 CURVE",
"467 451 OFFCURVE",
"513 500 OFFCURVE",
"522 577 CURVE SMOOTH",
"533 671 OFFCURVE",
"463 734 OFFCURVE",
"340 734 CURVE SMOOTH",
"207 734 OFFCURVE",
"117 653 OFFCURVE",
"99 501 CURVE SMOOTH",
"38 0 LINE",
"126 0 LINE",
"188 502 LINE SMOOTH",
"200 599 OFFCURVE",
"250 662 OFFCURVE",
"331 662 CURVE SMOOTH",
"396 662 OFFCURVE",
"435 627 OFFCURVE",
"428 573 CURVE SMOOTH",
"421 511 OFFCURVE",
"382 469 OFFCURVE",
"281 435 CURVE",
"272 367 LINE",
"400 310 OFFCURVE",
"466 254 OFFCURVE",
"455 162 CURVE SMOOTH",
"447 99 OFFCURVE",
"401 64 OFFCURVE",
"347 61 CURVE SMOOTH",
"290 57 OFFCURVE",
"223 85 OFFCURVE",
"214 89 CURVE",
"191 18 LINE",
"200 14 OFFCURVE",
"265 -12 OFFCURVE",
"345 -12 CURVE SMOOTH"
);
}
);
width = 611;
},
{
associatedMasterId = "CAA31E91-2985-420A-82BA-6B4D8404D924";
layerId = "293D158F-C831-41E4-96EE-41001AD70D64";
name = b;
width = 611;
},
{
layerId = "A678A55B-4A26-4A39-BA40-1A26897903D3";
paths = (
{
closed = 1;
nodes = (
"437 -14 OFFCURVE",
"523 55 OFFCURVE",
"536 161 CURVE SMOOTH",
"554 307 OFFCURVE",
"439 378 OFFCURVE",
"327 409 CURVE SMOOTH",
"310 414 LINE",
"329 418 LINE",
"444 447 OFFCURVE",
"496 488 OFFCURVE",
"509 590 CURVE SMOOTH",
"521 687 OFFCURVE",
"454 749 OFFCURVE",
"338 749 CURVE SMOOTH",
"212 749 OFFCURVE",
"135 669 OFFCURVE",
"116 519 CURVE SMOOTH",
"51 0 LINE",
"99 0 LINE",
"162 519 LINE SMOOTH",
"177 642 OFFCURVE",
"236 707 OFFCURVE",
"332 707 CURVE SMOOTH",
"421 707 OFFCURVE",
"473 661 OFFCURVE",
"464 590 CURVE SMOOTH",
"455 517 OFFCURVE",
"437 470 OFFCURVE",
"271 434 CURVE",
"265 393 LINE",
"438 337 OFFCURVE",
"501 275 OFFCURVE",
"487 161 CURVE SMOOTH",
"477 79 OFFCURVE",
"413 26 OFFCURVE",
"322 26 CURVE SMOOTH",
"284 26 OFFCURVE",
"229 39 OFFCURVE",
"182 59 CURVE",
"172 18 LINE",
"218 -1 OFFCURVE",
"274 -14 OFFCURVE",
"317 -14 CURVE SMOOTH"
);
}
);
width = 605;
},
{
layerId = "1FAC414F-D5EA-4BC8-A215-096CEB3A41C8";
paths = (
{
closed = 1;
nodes = (
"459 -11 OFFCURVE",
"548 59 OFFCURVE",
"563 173 CURVE SMOOTH",
"576 278 OFFCURVE",
"513 346 OFFCURVE",
"424 379 CURVE SMOOTH",
"405 386 OFFCURVE",
"388 392 OFFCURVE",
"368 396 CURVE",
"388 401 OFFCURVE",
"404 407 OFFCURVE",
"423 416 CURVE SMOOTH",
"488 447 OFFCURVE",
"528 510 OFFCURVE",
"535 567 CURVE SMOOTH",
"546 657 OFFCURVE",
"466 722 OFFCURVE",
"341 722 CURVE SMOOTH",
"204 722 OFFCURVE",
"105 648 OFFCURVE",
"87 488 CURVE SMOOTH",
"28 0 LINE",
"145 0 LINE",
"206 488 LINE SMOOTH",
"217 579 OFFCURVE",
"267 625 OFFCURVE",
"330 625 CURVE SMOOTH",
"370 625 OFFCURVE",
"408 602 OFFCURVE",
"402 560 CURVE SMOOTH",
"396 506 OFFCURVE",
"338 458 OFFCURVE",
"289 438 CURVE",
"277 346 LINE",
"395 283 OFFCURVE",
"436 238 OFFCURVE",
"426 164 CURVE SMOOTH",
"420 114 OFFCURVE",
"395 94 OFFCURVE",
"359 87 CURVE SMOOTH",
"304 78 OFFCURVE",
"237 112 OFFCURVE",
"237 112 CURVE",
"205 18 LINE",
"205 18 OFFCURVE",
"273 -11 OFFCURVE",
"360 -11 CURVE SMOOTH"
);
}
);
width = 618;
}
);
unicode = 00DF;
userData = {
com.typemytype.robofont.layerData = {
b = {
anchors = (
);
components = (
);
contours = (
);
lib = {
};
name = germandbls;
unicodes = (
);
width = 1250.9514;
};
};
org.robofab.postScriptHintData = {
};
};
},
{
glyphname = t;
lastChange = "2016-08-22 12:06:26 +0000";
layers = (
{
anchors = (
{
name = bot;
position = "{220, 3}";
},
{
name = caron.alt;
position = "{163, 625}";
},
{
name = mid;
position = "{170, 295}";
},
{
name = top;
position = "{201, 658}";
}
);
layerId = "CAA31E91-2985-420A-82BA-6B4D8404D924";
paths = (
{
closed = 1;
nodes = (
"304 0 LINE",
"312 70 LINE",
"199 70 OFFCURVE",
"177 83 OFFCURVE",
"188 168 CURVE SMOOTH",
"221 441 LINE",
"356 441 LINE",
"364 501 LINE",
"229 501 LINE",
"247 656 LINE",
"156 630 LINE",
"140 501 LINE",
"42 501 LINE",
"35 441 LINE",
"131 441 LINE",
"98 173 LINE SMOOTH",
"82 42 OFFCURVE",
"120 1 OFFCURVE",
"262 0 CURVE SMOOTH"
);
}
);
width = 392;
},
{
associatedMasterId = "CAA31E91-2985-420A-82BA-6B4D8404D924";
layerId = "3E22CE63-C5DA-46A3-8D9C-625C5575619D";
name = b;
width = 373;
},
{
anchors = (
{
name = bot;
position = "{172, 15}";
},
{
name = caron.alt;
position = "{181, 617}";
},
{
name = mid;
position = "{144, 294}";
},
{
name = top;
position = "{182, 640}";
}
);
layerId = "A678A55B-4A26-4A39-BA40-1A26897903D3";
paths = (
{
closed = 1;
nodes = (
"249 0 LINE",
"253 41 LINE",
"139 41 OFFCURVE",
"141 60 OFFCURVE",
"153 158 CURVE SMOOTH",
"191 469 LINE",
"305 469 LINE",
"309 501 LINE",
"195 501 LINE",
"214 659 LINE",
"165 645 LINE",
"147 501 LINE",
"48 501 LINE",
"44 469 LINE",
"143 469 LINE",
"105 159 LINE SMOOTH",
"95 73 OFFCURVE",
"77 7 OFFCURVE",
"226 0 CURVE"
);
}
);
width = 335;
},
{
anchors = (
{
name = bot;
position = "{178, 0}";
},
{
name = caron.alt;
position = "{172, 664}";
},
{
name = mid;
position = "{167, 294}";
},
{
name = top;
position = "{215, 621}";
}
);
layerId = "1FAC414F-D5EA-4BC8-A215-096CEB3A41C8";
paths = (
{
closed = 1;
nodes = (
"320 0 LINE",
"332 93 LINE",
"219 93 OFFCURVE",
"198 101 OFFCURVE",
"207 176 CURVE SMOOTH",
"237 420 LINE",
"368 420 LINE",
"378 501 LINE",
"247 501 LINE",
"266 654 LINE",
"146 618 LINE",
"131 501 LINE",
"22 501 LINE",
"12 420 LINE",
"116 420 LINE",
"87 184 LINE SMOOTH",
"68 21 OFFCURVE",
"147 0 OFFCURVE",
"271 0 CURVE SMOOTH"
);
}
);
width = 393;
}
);
unicode = 0074;
userData = {
com.typemytype.robofont.layerData = {
b = {
anchors = (
);
components = (
);
contours = (
);
lib = {
};
name = t;
unicodes = (
);
width = 763.9000;
};
};
org.robofab.postScriptHintData = {
};
};
},
{
glyphname = u;
lastChange = "2016-08-22 12:06:28 +0000";
layers = (
{
anchors = (
{
name = ogonek;
position = "{447, 0}";
},
{
name = top;
position = "{328, 501}";
}
);
layerId = "CAA31E91-2985-420A-82BA-6B4D8404D924";
paths = (
{
closed = 1;
nodes = (
"323 -11 OFFCURVE",
"378 37 OFFCURVE",
"407 81 CURVE",
"399 0 LINE",
"490 0 LINE",
"492 19 OFFCURVE",
"497 85 OFFCURVE",
"501 124 CURVE SMOOTH",
"547 501 LINE",
"458 501 LINE",
"420 197 LINE SMOOTH",
"411 120 OFFCURVE",
"354 62 OFFCURVE",
"263 62 CURVE SMOOTH",
"187 62 OFFCURVE",
"150 104 OFFCURVE",
"161 191 CURVE SMOOTH",
"199 501 LINE",
"109 501 LINE",
"71 191 LINE SMOOTH",
"57 74 OFFCURVE",
"106 -11 OFFCURVE",
"240 -11 CURVE SMOOTH"
);
}
);
width = 603;
},
{
associatedMasterId = "CAA31E91-2985-420A-82BA-6B4D8404D924";
layerId = "73C668A9-7C42-402B-BD4F-9BEAB9B7AB2D";
name = b;
width = 599;
},
{
anchors = (
{
name = ogonek;
position = "{468, 0}";
},
{
name = top;
position = "{350, 501}";
}
);
layerId = "A678A55B-4A26-4A39-BA40-1A26897903D3";
paths = (
{
closed = 1;
nodes = (
"340 -13 OFFCURVE",
"408 27 OFFCURVE",
"458 93 CURVE",
"452 0 LINE",
"495 0 LINE",
"497 26 OFFCURVE",
"499 55 OFFCURVE",
"506 110 CURVE SMOOTH",
"554 501 LINE",
"506 501 LINE",
"466 173 LINE SMOOTH",
"460 127 OFFCURVE",
"383 27 OFFCURVE",
"258 27 CURVE SMOOTH",
"165 27 OFFCURVE",
"125 87 OFFCURVE",
"139 199 CURVE SMOOTH",
"176 501 LINE",
"128 501 LINE",
"91 201 LINE SMOOTH",
"74 61 OFFCURVE",
"128 -13 OFFCURVE",
"253 -13 CURVE SMOOTH"
);
}
);
width = 627;
},
{
anchors = (
{
name = ogonek;
position = "{429, 0}";
},
{
name = top;
position = "{328, 501}";
}
);
layerId = "1FAC414F-D5EA-4BC8-A215-096CEB3A41C8";
paths = (
{
closed = 1;
nodes = (
"313 -11 OFFCURVE",
"357 50 OFFCURVE",
"366 74 CURVE",
"359 0 LINE",
"484 0 LINE",
"483 -7 OFFCURVE",
"492 108 OFFCURVE",
"495 135 CURVE SMOOTH",
"540 501 LINE",
"418 501 LINE",
"382 201 LINE SMOOTH",
"372 119 OFFCURVE",
"333 86 OFFCURVE",
"261 86 CURVE SMOOTH",
"203 86 OFFCURVE",
"167 117 OFFCURVE",
"176 186 CURVE SMOOTH",
"215 501 LINE",
"95 501 LINE",
"56 184 LINE SMOOTH",
"41 63 OFFCURVE",
"103 -11 OFFCURVE",
"225 -11 CURVE SMOOTH"
);
}
);
width = 579;
}
);
unicode = 0075;
userData = {
com.typemytype.robofont.layerData = {
b = {
anchors = (
);
components = (
);
contours = (
);
lib = {
};
name = u;
unicodes = (
);
width = 1227.2000;
};
};
org.robofab.postScriptHintData = {
};
};
},
{
glyphname = v;
lastChange = "2016-08-22 12:06:28 +0000";
layers = (
{
layerId = "CAA31E91-2985-420A-82BA-6B4D8404D924";
paths = (
{
closed = 1;
nodes = (
"271 0 LINE",
"542 501 LINE",
"446 501 LINE",
"285 184 LINE",
"242 93 LINE",
"219 184 LINE",
"134 501 LINE",
"36 501 LINE",
"185 0 LINE"
);
}
);
width = 516;
},
{
associatedMasterId = "CAA31E91-2985-420A-82BA-6B4D8404D924";
layerId = "24E20B0F-C172-43F4-A23C-E0E8E9F10F01";
name = b;
width = 516;
},
{
layerId = "A678A55B-4A26-4A39-BA40-1A26897903D3";
paths = (
{
closed = 1;
nodes = (
"230 0 LINE",
"498 501 LINE",
"449 501 LINE",
"239 103 LINE",
"208 38 LINE",
"192 103 LINE",
"81 501 LINE",
"31 501 LINE",
"176 0 LINE"
);
}
);
width = 463;
},
{
layerId = "1FAC414F-D5EA-4BC8-A215-096CEB3A41C8";
paths = (
{
closed = 1;
nodes = (
"298 0 LINE",
"573 501 LINE",
"441 501 LINE",
"320 248 LINE",
"265 135 LINE",
"236 248 LINE",
"174 501 LINE",
"39 501 LINE",
"188 0 LINE"
);
}
);
width = 550;
}
);
unicode = 0076;
userData = {
com.typemytype.robofont.layerData = {
b = {
anchors = (
);
components = (
);
contours = (
);
lib = {
};
name = v;
unicodes = (
);
width = 1056.8000;
};
};
org.robofab.postScriptHintData = {
};
};
},
{
glyphname = w;
lastChange = "2016-08-22 12:06:28 +0000";
layers = (
{
anchors = (
{
name = top;
position = "{440, 501}";
}
);
layerId = "CAA31E91-2985-420A-82BA-6B4D8404D924";
paths = (
{
closed = 1;
nodes = (
"235 0 LINE",
"389 325 LINE",
"420 392 LINE",
"434 324 LINE",
"502 0 LINE",
"586 0 LINE",
"814 501 LINE",
"727 501 LINE",
"585 159 LINE",
"563 105 LINE",
"552 160 LINE",
"482 501 LINE",
"395 501 LINE",
"239 163 LINE",
"213 105 LINE",
"202 166 LINE",
"142 501 LINE",
"46 501 LINE",
"151 0 LINE"
);
}
);
width = 799;
},
{
associatedMasterId = "CAA31E91-2985-420A-82BA-6B4D8404D924";
layerId = "F166C4E9-5AE8-4E95-9B73-02EDC99C802C";
name = b;
width = 798;
},
{
anchors = (
{
name = top;
position = "{418, 501}";
}
);
layerId = "A678A55B-4A26-4A39-BA40-1A26897903D3";
paths = (
{
closed = 1;
nodes = (
"199 0 LINE",
"383 391 LINE",
"414 458 LINE",
"427 391 LINE",
"507 0 LINE",
"570 0 LINE",
"767 501 LINE",
"714 501 LINE",
"558 89 LINE",
"543 50 LINE",
"536 89 LINE",
"448 501 LINE",
"386 501 LINE",
"194 89 LINE",
"176 50 LINE",
"170 89 LINE",
"104 501 LINE",
"52 501 LINE",
"136 0 LINE"
);
}
);
width = 758;
},
{
anchors = (
{
name = top;
position = "{454, 501}";
}
);
layerId = "1FAC414F-D5EA-4BC8-A215-096CEB3A41C8";
paths = (
{
closed = 1;
nodes = (
"259 0 LINE",
"390 272 LINE",
"422 341 LINE",
"436 273 LINE",
"494 0 LINE",
"595 0 LINE",
"847 501 LINE",
"734 501 LINE",
"603 213 LINE",
"574 148 LINE",
"560 215 LINE",
"504 501 LINE",
"399 501 LINE",
"274 229 LINE",
"237 149 LINE",
"221 232 LINE",
"167 501 LINE",
"38 501 LINE",
"158 0 LINE"
);
}
);
width = 823;
}
);
unicode = 0077;
userData = {
com.typemytype.robofont.layerData = {
b = {
anchors = (
);
components = (
);
contours = (
);
lib = {
};
name = w;
unicodes = (
);
width = 1634.1000;
};
};
org.robofab.postScriptHintData = {
};
};
},
{
glyphname = x;
lastChange = "2016-08-22 12:06:28 +0000";
layers = (
{
layerId = "CAA31E91-2985-420A-82BA-6B4D8404D924";
paths = (
{
closed = 1;
nodes = (
"86 0 LINE",
"254 191 LINE",
"369 0 LINE",
"467 0 LINE",
"311 256 LINE",
"524 501 LINE",
"430 501 LINE",
"268 315 LINE",
"162 501 LINE",
"64 501 LINE",
"211 250 LINE",
"-9 0 LINE"
);
}
);
width = 521;
},
{
associatedMasterId = "CAA31E91-2985-420A-82BA-6B4D8404D924";
layerId = "670E6FBE-1630-4442-AF2A-D9DE2F095BF9";
name = b;
width = 519;
},
{
layerId = "A678A55B-4A26-4A39-BA40-1A26897903D3";
paths = (
{
closed = 1;
nodes = (
"52 0 LINE",
"270 225 LINE",
"431 0 LINE",
"483 0 LINE",
"300 250 LINE",
"536 501 LINE",
"479 501 LINE",
"275 284 LINE",
"129 501 LINE",
"75 503 LINE",
"246 257 LINE",
"-2 0 LINE"
);
}
);
width = 544;
},
{
layerId = "1FAC414F-D5EA-4BC8-A215-096CEB3A41C8";
paths = (
{
closed = 1;
nodes = (
"102 0 LINE",
"245 166 LINE",
"337 0 LINE",
"472 0 LINE",
"326 261 LINE",
"532 501 LINE",
"407 501 LINE",
"267 339 LINE",
"179 501 LINE",
"44 501 LINE",
"186 244 LINE",
"-25 0 LINE"
);
}
);
width = 508;
}
);
unicode = 0078;
userData = {
com.fontlab.hintData = {
hhints = (
{
position = 0;
width = 21;
},
{
position = 1006;
width = 20;
}
);
};
com.typemytype.robofont.layerData = {
b = {
anchors = (
);
components = (
);
contours = (
);
lib = {
};
name = x;
unicodes = (
);
width = 1062.8500;
};
};
org.robofab.postScriptHintData = {
};
};
},
{
glyphname = y;
lastChange = "2016-08-22 12:06:28 +0000";
layers = (
{
anchors = (
{
name = top;
position = "{312, 501}";
}
);
layerId = "CAA31E91-2985-420A-82BA-6B4D8404D924";
paths = (
{
closed = 1;
nodes = (
"156 -188 OFFCURVE",
"234 -120 OFFCURVE",
"281 -26 CURVE SMOOTH",
"548 501 LINE",
"458 501 LINE",
"263 101 LINE",
"158 501 LINE",
"64 501 LINE",
"208 4 LINE",
"196 -21 LINE SMOOTH",
"174 -70 OFFCURVE",
"129 -118 OFFCURVE",
"29 -150 CURVE",
"58 -211 LINE"
);
}
);
width = 520;
},
{
associatedMasterId = "CAA31E91-2985-420A-82BA-6B4D8404D924";
layerId = "21897ED1-40DC-41AA-8223-5F0A8676AEEA";
name = b;
width = 520;
},
{
anchors = (
{
name = top;
position = "{297, 501}";
}
);
layerId = "A678A55B-4A26-4A39-BA40-1A26897903D3";
paths = (
{
closed = 1;
nodes = (
"148 -183 OFFCURVE",
"210 -97 OFFCURVE",
"246 -25 CURVE SMOOTH",
"512 501 LINE",
"465 501 LINE",
"237 47 LINE",
"125 501 LINE",
"74 501 LINE",
"206 -10 LINE",
"190 -39 LINE SMOOTH",
"167 -82 OFFCURVE",
"128 -142 OFFCURVE",
"21 -168 CURVE",
"33 -204 LINE"
);
}
);
width = 480;
},
{
anchors = (
{
name = top;
position = "{336, 501}";
}
);
layerId = "1FAC414F-D5EA-4BC8-A215-096CEB3A41C8";
paths = (
{
closed = 1;
nodes = (
"165 -192 OFFCURVE",
"254 -136 OFFCURVE",
"310 -27 CURVE SMOOTH",
"578 501 LINE",
"455 501 LINE",
"286 142 LINE",
"185 501 LINE",
"59 501 LINE",
"211 11 LINE",
"202 -13 LINE SMOOTH",
"180 -66 OFFCURVE",
"133 -100 OFFCURVE",
"39 -135 CURVE",
"80 -217 LINE"
);
}
);
width = 544;
}
);
unicode = 0079;
userData = {
com.typemytype.robofont.layerData = {
b = {
anchors = (
);
components = (
);
contours = (
);
lib = {
};
name = y;
unicodes = (
);
width = 1065.0500;
};
};
org.robofab.postScriptHintData = {
};
};
},
{
glyphname = z;
lastChange = "2016-08-22 12:06:28 +0000";
layers = (
{
anchors = (
{
name = top;
position = "{278, 501}";
}
);
layerId = "CAA31E91-2985-420A-82BA-6B4D8404D924";
paths = (
{
closed = 1;
nodes = (
"405 0 LINE",
"414 72 LINE",
"145 72 LINE",
"454 453 LINE",
"459 501 LINE",
"89 501 LINE",
"81 428 LINE",
"334 428 LINE",
"26 49 LINE",
"20 0 LINE"
);
}
);
width = 473;
},
{
associatedMasterId = "CAA31E91-2985-420A-82BA-6B4D8404D924";
layerId = "320A2442-75CE-45E1-95D0-A6BEE6C971EC";
name = b;
width = 475;
},
{
anchors = (
{
name = top;
position = "{255, 501}";
}
);
layerId = "A678A55B-4A26-4A39-BA40-1A26897903D3";
paths = (
{
closed = 1;
nodes = (
"381 0 LINE",
"386 40 LINE",
"82 40 LINE",
"445 473 LINE",
"448 501 LINE",
"87 501 LINE",
"82 461 LINE",
"382 461 LINE",
"17 29 LINE",
"13 0 LINE"
);
}
);
width = 456;
},
{
anchors = (
{
name = top;
position = "{303, 501}";
}
);
layerId = "1FAC414F-D5EA-4BC8-A215-096CEB3A41C8";
paths = (
{
closed = 1;
nodes = (
"423 0 LINE",
"435 96 LINE",
"184 96 LINE",
"464 438 LINE",
"472 501 LINE",
"90 501 LINE",
"79 404 LINE",
"302 404 LINE",
"24 64 LINE",
"17 0 LINE"
);
}
);
width = 487;
}
);
unicode = 007A;
userData = {
com.typemytype.robofont.layerData = {
b = {
anchors = (
);
components = (
);
contours = (
);
lib = {
};
name = z;
unicodes = (
);
width = 971.8500;
};
};
org.robofab.postScriptHintData = {
};
};
},
{
glyphname = f_f;
lastChange = "2016-08-22 12:06:28 +0000";
layers = (
{
layerId = "CAA31E91-2985-420A-82BA-6B4D8404D924";
paths = (
{
closed = 1;
nodes = (
"161 0 LINE",
"216 446 LINE",
"446 446 LINE",
"391 0 LINE",
"474 0 LINE",
"529 446 LINE",
"650 446 LINE",
"657 501 LINE",
"536 501 LINE",
"542 555 LINE SMOOTH",
"552 635 OFFCURVE",
"564 660 OFFCURVE",
"682 660 CURVE",
"691 725 LINE",
"668 725 LINE SMOOTH",
"502 725 OFFCURVE",
"473 669 OFFCURVE",
"458 544 CURVE SMOOTH",
"452 501 LINE",
"222 501 LINE",
"229 555 LINE SMOOTH",
"239 635 OFFCURVE",
"250 660 OFFCURVE",
"369 660 CURVE",
"377 725 LINE",
"354 725 LINE SMOOTH",
"188 725 OFFCURVE",
"159 669 OFFCURVE",
"144 544 CURVE SMOOTH",
"139 501 LINE",
"50 501 LINE",
"44 446 LINE",
"132 446 LINE",
"77 0 LINE"
);
}
);
width = 659;
},
{
anchors = (
{
name = top;
position = "{473, 711}";
}
);
layerId = "A678A55B-4A26-4A39-BA40-1A26897903D3";
paths = (
{
closed = 1;
nodes = (
"120 0 LINE",
"178 469 LINE",
"424 469 LINE",
"366 0 LINE",
"414 0 LINE",
"472 469 LINE",
"600 469 LINE",
"604 501 LINE",
"476 501 LINE",
"486 590 LINE SMOOTH",
"495 655 OFFCURVE",
"508 691 OFFCURVE",
"640 691 CURVE",
"642 732 LINE",
"622 732 LINE SMOOTH",
"482 732 OFFCURVE",
"450 681 OFFCURVE",
"437 572 CURVE SMOOTH",
"428 501 LINE",
"182 501 LINE",
"192 590 LINE SMOOTH",
"201 655 OFFCURVE",
"214 691 OFFCURVE",
"346 691 CURVE",
"348 732 LINE",
"328 732 LINE SMOOTH",
"188 732 OFFCURVE",
"156 681 OFFCURVE",
"143 572 CURVE SMOOTH",
"134 501 LINE",
"49 501 LINE",
"45 469 LINE",
"130 469 LINE",
"72 0 LINE"
);
}
);
width = 588;
},
{
layerId = "1FAC414F-D5EA-4BC8-A215-096CEB3A41C8";
paths = (
{
closed = 1;
nodes = (
"207 0 LINE",
"258 417 LINE",
"555 417 LINE",
"504 0 LINE",
"628 0 LINE",
"679 417 LINE",
"791 417 LINE",
"802 501 LINE",
"689 501 LINE",
"691 519 LINE SMOOTH",
"704 619 OFFCURVE",
"715 628 OFFCURVE",
"816 628 CURVE",
"833 725 LINE",
"806 725 LINE SMOOTH",
"609 725 OFFCURVE",
"586 663 OFFCURVE",
"568 519 CURVE SMOOTH",
"566 501 LINE",
"269 501 LINE",
"271 519 LINE SMOOTH",
"283 619 OFFCURVE",
"294 628 OFFCURVE",
"395 628 CURVE",
"412 725 LINE",
"385 725 LINE SMOOTH",
"188 725 OFFCURVE",
"165 663 OFFCURVE",
"147 519 CURVE SMOOTH",
"145 501 LINE",
"51 501 LINE",
"41 417 LINE",
"134 417 LINE",
"83 0 LINE"
);
}
);
width = 826;
}
);
userData = {
com.typemytype.robofont.layerData = {
};
org.robofab.postScriptHintData = {
};
};
},
{
glyphname = f_f_i;
lastChange = "2016-08-22 12:06:28 +0000";
layers = (
{
layerId = "CAA31E91-2985-420A-82BA-6B4D8404D924";
paths = (
{
closed = 1;
nodes = (
"161 0 LINE",
"216 446 LINE",
"437 446 LINE",
"382 0 LINE",
"466 0 LINE",
"521 446 LINE",
"736 446 LINE",
"682 0 LINE",
"764 0 LINE",
"826 501 LINE",
"527 501 LINE",
"534 554 LINE SMOOTH",
"543 635 OFFCURVE",
"555 659 OFFCURVE",
"673 659 CURVE",
"682 725 LINE",
"659 725 LINE SMOOTH",
"493 725 OFFCURVE",
"464 668 OFFCURVE",
"449 544 CURVE SMOOTH",
"444 501 LINE",
"222 501 LINE",
"229 554 LINE SMOOTH",
"239 635 OFFCURVE",
"250 659 OFFCURVE",
"369 659 CURVE",
"377 725 LINE",
"354 725 LINE SMOOTH",
"188 725 OFFCURVE",
"159 668 OFFCURVE",
"144 544 CURVE SMOOTH",
"139 501 LINE",
"50 501 LINE",
"44 446 LINE",
"132 446 LINE",
"77 0 LINE"
);
},
{
closed = 1;
nodes = (
"842 632 LINE",
"852 711 LINE",
"769 711 LINE",
"759 632 LINE"
);
}
);
width = 894;
},
{
anchors = (
{
name = top;
position = "{473, 711}";
}
);
layerId = "A678A55B-4A26-4A39-BA40-1A26897903D3";
paths = (
{
closed = 1;
nodes = (
"120 0 LINE",
"178 469 LINE",
"424 469 LINE",
"366 0 LINE",
"414 0 LINE",
"472 469 LINE",
"694 469 LINE",
"637 0 LINE",
"685 0 LINE",
"746 501 LINE",
"476 501 LINE",
"486 590 LINE SMOOTH",
"495 655 OFFCURVE",
"508 691 OFFCURVE",
"640 691 CURVE",
"642 732 LINE",
"622 732 LINE SMOOTH",
"482 732 OFFCURVE",
"450 681 OFFCURVE",
"437 572 CURVE SMOOTH",
"428 501 LINE",
"182 501 LINE",
"192 590 LINE SMOOTH",
"201 655 OFFCURVE",
"214 691 OFFCURVE",
"346 691 CURVE",
"348 732 LINE",
"328 732 LINE SMOOTH",
"188 732 OFFCURVE",
"156 681 OFFCURVE",
"143 572 CURVE SMOOTH",
"134 501 LINE",
"49 501 LINE",
"45 469 LINE",
"130 469 LINE",
"72 0 LINE"
);
},
{
closed = 1;
nodes = (
"765 657 LINE",
"772 711 LINE",
"724 711 LINE",
"717 657 LINE"
);
}
);
width = 828;
},
{
layerId = "1FAC414F-D5EA-4BC8-A215-096CEB3A41C8";
paths = (
{
closed = 1;
nodes = (
"207 0 LINE",
"258 417 LINE",
"560 417 LINE",
"509 0 LINE",
"632 0 LINE",
"683 417 LINE",
"911 417 LINE",
"860 0 LINE",
"979 0 LINE",
"1041 501 LINE",
"694 501 LINE",
"696 520 LINE SMOOTH",
"708 619 OFFCURVE",
"720 629 OFFCURVE",
"821 629 CURVE",
"837 725 LINE",
"811 725 LINE SMOOTH",
"613 725 OFFCURVE",
"590 663 OFFCURVE",
"572 519 CURVE SMOOTH",
"570 501 LINE",
"269 501 LINE",
"271 520 LINE SMOOTH",
"283 619 OFFCURVE",
"294 629 OFFCURVE",
"395 629 CURVE",
"412 725 LINE",
"385 725 LINE SMOOTH",
"188 725 OFFCURVE",
"165 663 OFFCURVE",
"147 519 CURVE SMOOTH",
"145 501 LINE",
"51 501 LINE",
"41 417 LINE",
"134 417 LINE",
"83 0 LINE"
);
},
{
closed = 1;
nodes = (
"1054 602 LINE",
"1067 711 LINE",
"947 711 LINE",
"934 602 LINE"
);
}
);
width = 1091;
}
);
userData = {
com.typemytype.robofont.layerData = {
};
org.robofab.postScriptHintData = {
};
};
},
{
glyphname = f_f_l;
lastChange = "2016-08-22 12:06:28 +0000";
layers = (
{
anchors = (
{
name = top;
position = "{217, 711}";
}
);
components = (
{
name = fl;
transform = "{1, 0, 0, 1, 274, 0}";
}
);
layerId = "CAA31E91-2985-420A-82BA-6B4D8404D924";
paths = (
{
closed = 1;
nodes = (
"168 0 LINE",
"223 446 LINE",
"342 446 LINE",
"349 501 LINE",
"229 501 LINE",
"236 549 LINE SMOOTH",
"246 633 OFFCURVE",
"257 655 OFFCURVE",
"373 655 CURVE",
"383 725 LINE",
"359 725 LINE SMOOTH",
"188 725 OFFCURVE",
"160 668 OFFCURVE",
"145 541 CURVE SMOOTH",
"140 501 LINE",
"50 501 LINE",
"44 446 LINE",
"133 446 LINE",
"78 0 LINE"
);
}
);
width = 926;
},
{
anchors = (
{
name = top;
position = "{179, 711}";
}
);
components = (
{
name = fl;
transform = "{1, 0, 0, 1, 247, 0}";
}
);
layerId = "A678A55B-4A26-4A39-BA40-1A26897903D3";
paths = (
{
closed = 1;
nodes = (
"120 0 LINE",
"178 469 LINE",
"306 469 LINE",
"310 501 LINE",
"182 501 LINE",
"192 590 LINE SMOOTH",
"201 655 OFFCURVE",
"214 691 OFFCURVE",
"346 691 CURVE",
"348 732 LINE",
"328 732 LINE SMOOTH",
"188 732 OFFCURVE",
"156 681 OFFCURVE",
"143 572 CURVE SMOOTH",
"134 501 LINE",
"49 501 LINE",
"45 469 LINE",
"130 469 LINE",
"72 0 LINE"
);
}
);
width = 837;
},
{
anchors = (
{
name = top;
position = "{228, 711}";
}
);
components = (
{
name = fl;
transform = "{1, 0, 0, 1, 360, 0}";
}
);
layerId = "1FAC414F-D5EA-4BC8-A215-096CEB3A41C8";
paths = (
{
closed = 1;
nodes = (
"204 0 LINE",
"254 417 LINE",
"451 417 LINE",
"461 501 LINE",
"265 501 LINE",
"267 522 LINE SMOOTH",
"279 620 OFFCURVE",
"291 631 OFFCURVE",
"393 631 CURVE",
"409 725 LINE",
"383 725 LINE SMOOTH",
"188 725 OFFCURVE",
"165 663 OFFCURVE",
"147 521 CURVE SMOOTH",
"145 501 LINE",
"51 501 LINE",
"41 417 LINE",
"134 417 LINE",
"83 0 LINE"
);
}
);
width = 1078;
}
);
userData = {
com.typemytype.robofont.layerData = {
};
org.robofab.postScriptHintData = {
};
};
},
{
glyphname = fi;
lastChange = "2016-08-22 12:06:28 +0000";
layers = (
{
components = (
{
name = i;
transform = "{1, 0, 0, 1, 344, 0}";
}
);
layerId = "CAA31E91-2985-420A-82BA-6B4D8404D924";
paths = (
{
closed = 1;
nodes = (
"162 0 LINE",
"217 445 LINE",
"457 445 LINE",
"463 501 LINE",
"224 501 LINE",
"230 554 LINE SMOOTH",
"240 635 OFFCURVE",
"252 659 OFFCURVE",
"370 659 CURVE",
"378 725 LINE",
"355 725 LINE SMOOTH",
"188 725 OFFCURVE",
"160 668 OFFCURVE",
"144 544 CURVE SMOOTH",
"139 501 LINE",
"50 501 LINE",
"44 445 LINE",
"132 445 LINE",
"78 0 LINE"
);
}
);
width = 598;
},
{
associatedMasterId = "CAA31E91-2985-420A-82BA-6B4D8404D924";
layerId = "C10F39BC-A377-4AB9-9961-6F6597447002";
name = b;
paths = (
{
closed = 1;
nodes = (
"122 0 LINE",
"122 449 LINE",
"33 449 LINE",
"33 501 LINE",
"122 501 LINE",
"122 550 LINE SMOOTH",
"122 673 OFFCURVE",
"144 729 OFFCURVE",
"308 729 CURVE SMOOTH",
"330 729 LINE",
"330 666 LINE",
"210 666 OFFCURVE",
"202 640 OFFCURVE",
"202 562 CURVE SMOOTH",
"202 501 LINE",
"323 501 LINE",
"323 449 LINE",
"202 449 LINE",
"202 0 LINE"
);
},
{
closed = 1;
nodes = (
"424 0 LINE",
"424 501 LINE",
"504 501 LINE",
"504 0 LINE"
);
},
{
closed = 1;
nodes = (
"424 638 LINE",
"424 714 LINE",
"504 714 LINE",
"504 638 LINE"
);
}
);
width = 604;
},
{
components = (
{
name = i;
transform = "{1, 0, 0, 1, 323, 0}";
}
);
layerId = "A678A55B-4A26-4A39-BA40-1A26897903D3";
paths = (
{
closed = 1;
nodes = (
"128 0 LINE",
"185 466 LINE",
"454 466 LINE",
"458 501 LINE",
"189 501 LINE",
"200 585 LINE SMOOTH",
"208 652 OFFCURVE",
"221 687 OFFCURVE",
"351 687 CURVE",
"354 731 LINE",
"333 731 LINE SMOOTH",
"189 731 OFFCURVE",
"157 679 OFFCURVE",
"143 568 CURVE SMOOTH",
"135 501 LINE",
"49 501 LINE",
"45 466 LINE",
"130 466 LINE",
"73 0 LINE"
);
}
);
width = 573;
},
{
components = (
{
name = i;
transform = "{1, 0, 0, 1, 371, 0}";
}
);
layerId = "1FAC414F-D5EA-4BC8-A215-096CEB3A41C8";
paths = (
{
closed = 1;
nodes = (
"207 0 LINE",
"258 417 LINE",
"458 417 LINE",
"468 501 LINE",
"269 501 LINE",
"271 519 LINE SMOOTH",
"283 619 OFFCURVE",
"294 628 OFFCURVE",
"395 628 CURVE",
"412 725 LINE",
"385 725 LINE SMOOTH",
"188 725 OFFCURVE",
"165 663 OFFCURVE",
"147 519 CURVE SMOOTH",
"145 501 LINE",
"51 501 LINE",
"41 417 LINE",
"134 417 LINE",
"83 0 LINE"
);
}
);
width = 631;
}
);
unicode = FB01;
userData = {
com.typemytype.robofont.layerData = {
b = {
anchors = (
);
components = (
);
contours = (
{
points = (
{
segmentType = line;
smooth = 0;
x = 249;
y = 0;
},
{
segmentType = line;
smooth = 0;
x = 249;
y = 919;
},
{
segmentType = line;
smooth = 0;
x = 68;
y = 919;
},
{
segmentType = line;
smooth = 0;
x = 68;
y = 1026;
},
{
segmentType = line;
smooth = 0;
x = 249;
y = 1026;
},
{
segmentType = line;
smooth = 1;
x = 249;
y = 1127;
},
{
smooth = 0;
x = 249;
y = 1378;
},
{
smooth = 0;
x = 295;
y = 1492;
},
{
segmentType = curve;
smooth = 1;
x = 630;
y = 1492;
},
{
segmentType = line;
smooth = 0;
x = 676;
y = 1492;
},
{
segmentType = line;
smooth = 0;
x = 676;
y = 1364;
},
{
smooth = 0;
x = 431;
y = 1364;
},
{
smooth = 0;
x = 413;
y = 1311;
},
{
segmentType = curve;
smooth = 1;
x = 413;
y = 1150;
},
{
segmentType = line;
smooth = 0;
x = 413;
y = 1026;
},
{
segmentType = line;
smooth = 0;
x = 662;
y = 1026;
},
{
segmentType = line;
smooth = 0;
x = 662;
y = 919;
},
{
segmentType = line;
smooth = 0;
x = 413;
y = 919;
},
{
segmentType = line;
smooth = 0;
x = 413;
y = 0;
}
);
},
{
points = (
{
segmentType = line;
smooth = 0;
x = 869;
y = 0;
},
{
segmentType = line;
smooth = 0;
x = 869;
y = 1026;
},
{
segmentType = line;
smooth = 0;
x = 1033;
y = 1026;
},
{
segmentType = line;
smooth = 0;
x = 1033;
y = 0;
}
);
},
{
points = (
{
segmentType = line;
smooth = 0;
x = 869;
y = 1307;
},
{
segmentType = line;
smooth = 0;
x = 869;
y = 1462;
},
{
segmentType = line;
smooth = 0;
x = 1033;
y = 1462;
},
{
segmentType = line;
smooth = 0;
x = 1033;
y = 1307;
}
);
}
);
lib = {
};
name = fi;
unicodes = (
);
width = 1237.6500;
};
};
org.robofab.postScriptHintData = {
};
};
},
{
glyphname = fl;
lastChange = "2016-08-22 12:06:28 +0000";
layers = (
{
layerId = "CAA31E91-2985-420A-82BA-6B4D8404D924";
paths = (
{
closed = 1;
nodes = (
"171 0 LINE",
"226 446 LINE",
"347 446 LINE",
"354 501 LINE",
"233 501 LINE",
"239 553 LINE SMOOTH",
"248 627 OFFCURVE",
"272 650 OFFCURVE",
"397 650 CURVE SMOOTH",
"485 650 LINE",
"405 0 LINE",
"490 0 LINE",
"578 716 LINE",
"403 716 LINE SMOOTH",
"218 716 OFFCURVE",
"169 666 OFFCURVE",
"153 540 CURVE SMOOTH",
"148 501 LINE",
"51 501 LINE",
"44 446 LINE",
"142 446 LINE",
"87 0 LINE"
);
}
);
width = 618;
},
{
associatedMasterId = "CAA31E91-2985-420A-82BA-6B4D8404D924";
components = (
{
name = f;
transform = "{1, 0, 0, 1, 10, 0}";
},
{
name = l;
transform = "{1, 0, 0, 1, 349, 0}";
}
);
layerId = "A1553225-FAFF-4E05-B090-88C28B2DA4ED";
name = b;
width = 612;
},
{
layerId = "A678A55B-4A26-4A39-BA40-1A26897903D3";
paths = (
{
closed = 1;
nodes = (
"146 0 LINE",
"203 469 LINE",
"330 469 LINE",
"334 501 LINE",
"207 501 LINE",
"215 567 LINE SMOOTH",
"225 650 OFFCURVE",
"250 674 OFFCURVE",
"406 674 CURVE SMOOTH",
"485 674 LINE",
"402 0 LINE",
"458 0 LINE",
"545 717 LINE",
"427 717 LINE SMOOTH",
"228 717 OFFCURVE",
"174 678 OFFCURVE",
"160 564 CURVE SMOOTH",
"152 501 LINE",
"50 501 LINE",
"46 469 LINE",
"148 469 LINE",
"91 0 LINE"
);
}
);
width = 600;
},
{
layerId = "1FAC414F-D5EA-4BC8-A215-096CEB3A41C8";
paths = (
{
closed = 1;
nodes = (
"205 0 LINE",
"256 417 LINE",
"369 417 LINE",
"379 501 LINE",
"267 501 LINE",
"271 534 LINE SMOOTH",
"278 596 OFFCURVE",
"300 618 OFFCURVE",
"387 618 CURVE SMOOTH",
"460 618 LINE",
"385 0 LINE",
"508 0 LINE",
"596 714 LINE",
"372 714 LINE SMOOTH",
"205 714 OFFCURVE",
"161 649 OFFCURVE",
"143 506 CURVE",
"143 501 LINE",
"52 501 LINE",
"42 417 LINE",
"133 417 LINE",
"81 0 LINE"
);
}
);
width = 617;
}
);
unicode = FB02;
userData = {
com.typemytype.robofont.layerData = {
b = {
anchors = (
);
components = (
{
baseGlyph = f;
transformation = (
1,
0,
0,
1,
20,
0
);
},
{
baseGlyph = l;
transformation = (
1,
0,
0,
1,
714,
0
);
}
);
contours = (
);
lib = {
};
name = fl;
unicodes = (
);
width = 1252.7000;
};
};
org.robofab.postScriptHintData = {
};
};
},
{
glyphname = ordfeminine;
lastChange = "2016-08-22 12:06:28 +0000";
layers = (
{
layerId = "CAA31E91-2985-420A-82BA-6B4D8404D924";
paths = (
{
closed = 1;
nodes = (
"193 371 OFFCURVE",
"234 397 OFFCURVE",
"254 429 CURVE",
"252 382 LINE",
"321 382 LINE",
"323 415 OFFCURVE",
"324 428 OFFCURVE",
"326 448 CURVE",
"325 443 OFFCURVE",
"345 596 OFFCURVE",
"345 600 CURVE",
"355 690 OFFCURVE",
"297 723 OFFCURVE",
"224 723 CURVE SMOOTH",
"143 723 OFFCURVE",
"80 690 OFFCURVE",
"80 690 CURVE",
"95 641 LINE",
"95 641 OFFCURVE",
"154 667 OFFCURVE",
"212 667 CURVE SMOOTH",
"261 667 OFFCURVE",
"279 646 OFFCURVE",
"272 593 CURVE SMOOTH",
"270 575 LINE",
"185 575 LINE SMOOTH",
"93 575 OFFCURVE",
"43 537 OFFCURVE",
"35 473 CURVE SMOOTH",
"27 410 OFFCURVE",
"74 371 OFFCURVE",
"141 371 CURVE SMOOTH"
);
},
{
closed = 1;
nodes = (
"121 423 OFFCURVE",
"99 441 OFFCURVE",
"103 476 CURVE SMOOTH",
"110 532 OFFCURVE",
"157 532 OFFCURVE",
"265 532 CURVE",
"264 521 LINE",
"256 463 OFFCURVE",
"212 423 OFFCURVE",
"155 423 CURVE SMOOTH"
);
}
);
width = 386;
},
{
associatedMasterId = "CAA31E91-2985-420A-82BA-6B4D8404D924";
layerId = "64ADC6EC-667D-4946-8322-32720AA02A00";
name = b;
width = 389;
},
{
layerId = "A678A55B-4A26-4A39-BA40-1A26897903D3";
paths = (
{
closed = 1;
nodes = (
"169 392 OFFCURVE",
"216 402 OFFCURVE",
"246 439 CURVE",
"238 395 LINE",
"283 395 LINE",
"287 458 OFFCURVE",
"290 475 OFFCURVE",
"288 449 CURVE",
"312 627 LINE",
"316 691 OFFCURVE",
"268 722 OFFCURVE",
"203 722 CURVE SMOOTH",
"134 722 OFFCURVE",
"73 690 OFFCURVE",
"73 690 CURVE",
"78 660 LINE",
"78 660 OFFCURVE",
"134 686 OFFCURVE",
"202 686 CURVE SMOOTH",
"270 686 OFFCURVE",
"276 658 OFFCURVE",
"268 594 CURVE SMOOTH",
"267 586 LINE",
"185 586 LINE SMOOTH",
"86 586 OFFCURVE",
"33 547 OFFCURVE",
"26 490 CURVE SMOOTH",
"19 435 OFFCURVE",
"56 392 OFFCURVE",
"132 392 CURVE SMOOTH"
);
},
{
closed = 1;
nodes = (
"92 430 OFFCURVE",
"69 451 OFFCURVE",
"74 494 CURVE SMOOTH",
"83 560 OFFCURVE",
"153 555 OFFCURVE",
"265 555 CURVE",
"263 540 LINE SMOOTH",
"257 492 OFFCURVE",
"232 430 OFFCURVE",
"145 430 CURVE SMOOTH"
);
}
);
width = 337;
},
{
layerId = "1FAC414F-D5EA-4BC8-A215-096CEB3A41C8";
paths = (
{
closed = 1;
nodes = (
"210 352 OFFCURVE",
"249 390 OFFCURVE",
"260 416 CURVE",
"263 368 LINE",
"351 368 LINE",
"350 378 OFFCURVE",
"350 388 OFFCURVE",
"355 443 CURVE SMOOTH",
"360 485 OFFCURVE",
"359 482 OFFCURVE",
"371 578 CURVE SMOOTH",
"384 687 OFFCURVE",
"318 721 OFFCURVE",
"239 721 CURVE SMOOTH",
"149 721 OFFCURVE",
"86 687 OFFCURVE",
"86 687 CURVE",
"105 616 LINE",
"105 616 OFFCURVE",
"168 642 OFFCURVE",
"218 642 CURVE SMOOTH",
"253 642 OFFCURVE",
"280 627 OFFCURVE",
"275 582 CURVE",
"272 563 LINE",
"186 563 LINE SMOOTH",
"98 563 OFFCURVE",
"51 524 OFFCURVE",
"42 457 CURVE SMOOTH",
"34 387 OFFCURVE",
"87 352 OFFCURVE",
"147 352 CURVE SMOOTH"
);
},
{
closed = 1;
nodes = (
"141 415 OFFCURVE",
"121 431 OFFCURVE",
"124 457 CURVE SMOOTH",
"130 506 OFFCURVE",
"161 509 OFFCURVE",
"265 509 CURVE",
"264 502 LINE SMOOTH",
"256 438 OFFCURVE",
"197 415 OFFCURVE",
"161 415 CURVE SMOOTH"
);
}
);
width = 424;
}
);
unicode = 00AA;
userData = {
com.typemytype.robofont.layerData = {
b = {
anchors = (
);
components = (
);
contours = (
);
lib = {
};
name = ordfeminine;
unicodes = (
);
width = 797.1000;
};
};
org.robofab.postScriptHintData = {
};
};
},
{
glyphname = ordmasculine;
lastChange = "2016-08-22 12:06:28 +0000";
layers = (
{
layerId = "CAA31E91-2985-420A-82BA-6B4D8404D924";
paths = (
{
closed = 1;
nodes = (
"311 367 OFFCURVE",
"384 445 OFFCURVE",
"396 541 CURVE SMOOTH",
"407 639 OFFCURVE",
"354 716 OFFCURVE",
"239 716 CURVE SMOOTH",
"125 716 OFFCURVE",
"50 640 OFFCURVE",
"38 542 CURVE SMOOTH",
"26 444 OFFCURVE",
"78 367 OFFCURVE",
"197 367 CURVE SMOOTH"
);
},
{
closed = 1;
nodes = (
"138 429 OFFCURVE",
"105 471 OFFCURVE",
"114 542 CURVE SMOOTH",
"123 609 OFFCURVE",
"168 652 OFFCURVE",
"231 652 CURVE SMOOTH",
"295 652 OFFCURVE",
"330 609 OFFCURVE",
"321 540 CURVE SMOOTH",
"313 473 OFFCURVE",
"268 429 OFFCURVE",
"205 429 CURVE SMOOTH"
);
}
);
width = 432;
},
{
associatedMasterId = "CAA31E91-2985-420A-82BA-6B4D8404D924";
layerId = "C2234123-F94A-47B8-8824-12B7C716B210";
name = b;
width = 434;
},
{
layerId = "A678A55B-4A26-4A39-BA40-1A26897903D3";
paths = (
{
closed = 1;
nodes = (
"295 394 OFFCURVE",
"364 470 OFFCURVE",
"375 563 CURVE SMOOTH",
"387 659 OFFCURVE",
"340 732 OFFCURVE",
"229 732 CURVE SMOOTH",
"121 732 OFFCURVE",
"51 658 OFFCURVE",
"40 564 CURVE SMOOTH",
"28 469 OFFCURVE",
"76 394 OFFCURVE",
"187 394 CURVE SMOOTH"
);
},
{
closed = 1;
nodes = (
"117 436 OFFCURVE",
"83 483 OFFCURVE",
"92 563 CURVE SMOOTH",
"102 640 OFFCURVE",
"149 688 OFFCURVE",
"222 688 CURVE SMOOTH",
"298 688 OFFCURVE",
"335 639 OFFCURVE",
"326 560 CURVE SMOOTH",
"316 484 OFFCURVE",
"267 436 OFFCURVE",
"194 436 CURVE SMOOTH"
);
}
);
width = 415;
},
{
layerId = "1FAC414F-D5EA-4BC8-A215-096CEB3A41C8";
paths = (
{
closed = 1;
nodes = (
"322 348 OFFCURVE",
"398 429 OFFCURVE",
"410 525 CURVE SMOOTH",
"422 625 OFFCURVE",
"365 705 OFFCURVE",
"245 705 CURVE SMOOTH",
"127 705 OFFCURVE",
"48 626 OFFCURVE",
"36 527 CURVE SMOOTH",
"23 425 OFFCURVE",
"78 348 OFFCURVE",
"203 348 CURVE SMOOTH"
);
},
{
closed = 1;
nodes = (
"153 426 OFFCURVE",
"122 464 OFFCURVE",
"130 526 CURVE SMOOTH",
"138 587 OFFCURVE",
"182 626 OFFCURVE",
"236 626 CURVE SMOOTH",
"291 626 OFFCURVE",
"323 589 OFFCURVE",
"316 525 CURVE SMOOTH",
"308 466 OFFCURVE",
"266 426 OFFCURVE",
"210 426 CURVE SMOOTH"
);
}
);
width = 446;
}
);
unicode = 00BA;
userData = {
com.typemytype.robofont.layerData = {
b = {
anchors = (
);
components = (
);
contours = (
);
lib = {
};
name = ordmasculine;
unicodes = (
);
width = 887.8500;
};
};
org.robofab.postScriptHintData = {
};
};
},
{
glyphname = Delta;
lastChange = "2016-08-22 12:06:28 +0000";
layers = (
{
layerId = "CAA31E91-2985-420A-82BA-6B4D8404D924";
paths = (
{
closed = 1;
nodes = (
"566 0 LINE",
"571 41 LINE",
"404 710 LINE",
"329 710 LINE",
"-11 41 LINE",
"-16 0 LINE"
);
},
{
closed = 1;
nodes = (
"352 604 LINE",
"476 69 LINE",
"89 69 LINE"
);
}
);
width = 637;
},
{
layerId = "A678A55B-4A26-4A39-BA40-1A26897903D3";
paths = (
{
closed = 1;
nodes = (
"570 0 LINE",
"573 23 LINE",
"368 708 LINE",
"353 708 LINE",
"-21 23 LINE",
"-23 0 LINE"
);
},
{
closed = 1;
nodes = (
"350 632 LINE",
"525 38 LINE",
"28 38 LINE"
);
}
);
width = 634;
},
{
layerId = "1FAC414F-D5EA-4BC8-A215-096CEB3A41C8";
paths = (
{
closed = 1;
nodes = (
"658 0 LINE",
"671 114 LINE",
"474 711 LINE",
"342 711 LINE",
"0 107 LINE",
"-14 0 LINE"
);
},
{
closed = 1;
nodes = (
"373 566 LINE",
"517 106 LINE",
"126 106 LINE"
);
}
);
width = 733;
}
);
unicode = 0394;
userData = {
org.robofab.postScriptHintData = {
};
};
},
{
glyphname = Omega;
lastChange = "2016-08-22 12:06:28 +0000";
layers = (
{
layerId = "CAA31E91-2985-420A-82BA-6B4D8404D924";
paths = (
{
closed = 1;
nodes = (
"273 0 LINE",
"281 65 LINE",
"189 130 OFFCURVE",
"137 253 OFFCURVE",
"152 381 CURVE SMOOTH",
"171 535 OFFCURVE",
"282 639 OFFCURVE",
"424 639 CURVE SMOOTH",
"579 639 OFFCURVE",
"643 519 OFFCURVE",
"626 379 CURVE SMOOTH",
"610 251 OFFCURVE",
"523 131 OFFCURVE",
"417 65 CURVE",
"410 0 LINE",
"669 0 LINE",
"685 70 LINE",
"532 70 LINE",
"619 136 OFFCURVE",
"708 253 OFFCURVE",
"724 387 CURVE SMOOTH",
"747 575 OFFCURVE",
"638 718 OFFCURVE",
"436 718 CURVE SMOOTH",
"241 718 OFFCURVE",
"80 590 OFFCURVE",
"56 390 CURVE SMOOTH",
"40 259 OFFCURVE",
"88 139 OFFCURVE",
"167 70 CURVE",
"4 70 LINE",
"5 0 LINE"
);
}
);
width = 783;
},
{
layerId = "A678A55B-4A26-4A39-BA40-1A26897903D3";
paths = (
{
closed = 1;
nodes = (
"260 0 LINE",
"265 42 LINE",
"166 111 OFFCURVE",
"107 215 OFFCURVE",
"125 357 CURVE SMOOTH",
"146 532 OFFCURVE",
"273 650 OFFCURVE",
"438 650 CURVE SMOOTH",
"621 650 OFFCURVE",
"696 512 OFFCURVE",
"677 354 CURVE SMOOTH",
"659 211 OFFCURVE",
"570 111 OFFCURVE",
"457 42 CURVE",
"453 0 LINE",
"688 0 LINE",
"698 44 LINE",
"503 44 LINE",
"604 110 OFFCURVE",
"714 210 OFFCURVE",
"732 365 CURVE SMOOTH",
"755 552 OFFCURVE",
"648 695 OFFCURVE",
"448 695 CURVE SMOOTH",
"255 695 OFFCURVE",
"95 566 OFFCURVE",
"70 365 CURVE SMOOTH",
"52 214 OFFCURVE",
"119 111 OFFCURVE",
"219 44 CURVE",
"28 44 LINE",
"28 0 LINE"
);
}
);
width = 783;
},
{
layerId = "1FAC414F-D5EA-4BC8-A215-096CEB3A41C8";
paths = (
{
closed = 1;
nodes = (
"292 0 LINE",
"302 83 LINE",
"219 141 OFFCURVE",
"160 241 OFFCURVE",
"176 375 CURVE SMOOTH",
"185 447 OFFCURVE",
"228 622 OFFCURVE",
"422 622 CURVE SMOOTH",
"610 622 OFFCURVE",
"618 453 OFFCURVE",
"608 375 CURVE SMOOTH",
"592 242 OFFCURVE",
"510 140 OFFCURVE",
"413 83 CURVE",
"402 0 LINE",
"708 0 LINE",
"733 103 LINE",
"573 102 LINE",
"685 180 OFFCURVE",
"726 271 OFFCURVE",
"741 397 CURVE SMOOTH",
"766 601 OFFCURVE",
"628 722 OFFCURVE",
"433 722 CURVE SMOOTH",
"235 722 OFFCURVE",
"74 595 OFFCURVE",
"49 396 CURVE SMOOTH",
"34 268 OFFCURVE",
"57 178 OFFCURVE",
"146 102 CURVE",
"-8 103 LINE",
"-10 0 LINE"
);
}
);
width = 783;
}
);
unicode = 03A9;
userData = {
com.typemytype.robofont.layerData = {
};
org.robofab.postScriptHintData = {
};
};
},
{
glyphname = mu;
lastChange = "2016-08-22 12:06:28 +0000";
layers = (
{
layerId = "CAA31E91-2985-420A-82BA-6B4D8404D924";
paths = (
{
closed = 1;
nodes = (
"128 -135 LINE",
"147 15 LINE",
"172 -2 OFFCURVE",
"205 -11 OFFCURVE",
"247 -11 CURVE SMOOTH",
"331 -11 OFFCURVE",
"385 37 OFFCURVE",
"414 81 CURVE",
"407 0 LINE",
"498 0 LINE",
"499 19 OFFCURVE",
"504 85 OFFCURVE",
"509 124 CURVE SMOOTH",
"555 501 LINE",
"465 501 LINE",
"428 197 LINE SMOOTH",
"418 120 OFFCURVE",
"362 62 OFFCURVE",
"271 62 CURVE SMOOTH",
"195 62 OFFCURVE",
"158 104 OFFCURVE",
"168 191 CURVE SMOOTH",
"207 501 LINE",
"117 501 LINE",
"39 -135 LINE"
);
}
);
width = 603;
},
{
anchors = (
{
name = ogonek;
position = "{477, 0}";
},
{
name = top;
position = "{359, 501}";
}
);
layerId = "A678A55B-4A26-4A39-BA40-1A26897903D3";
paths = (
{
closed = 1;
nodes = (
"129 41 LINE",
"156 5 OFFCURVE",
"201 -13 OFFCURVE",
"263 -13 CURVE SMOOTH",
"349 -13 OFFCURVE",
"417 27 OFFCURVE",
"468 93 CURVE",
"460 0 LINE",
"504 0 LINE",
"506 26 OFFCURVE",
"508 55 OFFCURVE",
"515 110 CURVE SMOOTH",
"563 501 LINE",
"515 501 LINE",
"475 173 LINE SMOOTH",
"469 127 OFFCURVE",
"392 27 OFFCURVE",
"268 27 CURVE SMOOTH",
"174 27 OFFCURVE",
"134 87 OFFCURVE",
"148 199 CURVE SMOOTH",
"185 501 LINE",
"137 501 LINE",
"56 -160 LINE",
"104 -162 LINE"
);
}
);
width = 627;
},
{
layerId = "1FAC414F-D5EA-4BC8-A215-096CEB3A41C8";
paths = (
{
closed = 1;
nodes = (
"148 -104 LINE",
"162 13 LINE",
"173 -1 OFFCURVE",
"204 -11 OFFCURVE",
"230 -11 CURVE SMOOTH",
"269 -11 OFFCURVE",
"335 3 OFFCURVE",
"370 73 CURVE",
"363 0 LINE",
"489 0 LINE",
"489 56 OFFCURVE",
"491 76 OFFCURVE",
"497 128 CURVE SMOOTH",
"543 501 LINE",
"420 501 LINE",
"385 208 LINE SMOOTH",
"372 108 OFFCURVE",
"328 86 OFFCURVE",
"257 86 CURVE SMOOTH",
"187 86 OFFCURVE",
"174 139 OFFCURVE",
"185 228 CURVE SMOOTH",
"216 501 LINE",
"98 501 LINE",
"24 -104 LINE"
);
}
);
width = 576;
}
);
unicode = 03BC;
userData = {
org.robofab.postScriptHintData = {
};
};
},
{
glyphname = pi;
lastChange = "2016-08-22 12:06:28 +0000";
layers = (
{
layerId = "CAA31E91-2985-420A-82BA-6B4D8404D924";
paths = (
{
closed = 1;
nodes = (
"502 -6 OFFCURVE",
"525 -4 OFFCURVE",
"547 0 CURVE",
"555 71 LINE",
"539 67 OFFCURVE",
"526 65 OFFCURVE",
"517 65 CURVE SMOOTH",
"469 65 OFFCURVE",
"472 105 OFFCURVE",
"476 139 CURVE SMOOTH",
"512 432 LINE",
"608 432 LINE",
"616 501 LINE",
"208 501 LINE SMOOTH",
"140 501 OFFCURVE",
"94 490 OFFCURVE",
"63 470 CURVE",
"63 402 LINE",
"95 421 OFFCURVE",
"137 431 OFFCURVE",
"189 432 CURVE",
"161 265 OFFCURVE",
"128 89 OFFCURVE",
"58 0 CURVE",
"150 0 LINE",
"213 78 OFFCURVE",
"265 386 OFFCURVE",
"272 432 CURVE",
"427 432 LINE",
"390 130 LINE SMOOTH",
"378 30 OFFCURVE",
"414 -6 OFFCURVE",
"484 -6 CURVE SMOOTH"
);
}
);
width = 629;
},
{
associatedMasterId = "CAA31E91-2985-420A-82BA-6B4D8404D924";
layerId = "502DC138-FEED-4DCA-8066-10BA27319E6A";
name = b;
width = 629;
},
{
layerId = "A678A55B-4A26-4A39-BA40-1A26897903D3";
paths = (
{
closed = 1;
nodes = (
"496 -4 OFFCURVE",
"511 -2 OFFCURVE",
"525 0 CURVE",
"526 37 LINE",
"518 36 OFFCURVE",
"511 35 OFFCURVE",
"504 35 CURVE SMOOTH",
"454 35 OFFCURVE",
"447 68 OFFCURVE",
"453 122 CURVE SMOOTH",
"495 459 LINE",
"580 459 LINE",
"585 501 LINE",
"220 501 LINE SMOOTH",
"181 501 OFFCURVE",
"148 493 OFFCURVE",
"101 470 CURVE",
"104 431 LINE",
"154 457 OFFCURVE",
"187 459 OFFCURVE",
"213 459 CURVE",
"174 234 OFFCURVE",
"169 126 OFFCURVE",
"58 0 CURVE",
"118 0 LINE",
"206 106 OFFCURVE",
"224 228 OFFCURVE",
"262 459 CURVE",
"447 459 LINE",
"406 122 LINE SMOOTH",
"393 18 OFFCURVE",
"432 -4 OFFCURVE",
"482 -4 CURVE SMOOTH"
);
}
);
width = 629;
},
{
layerId = "1FAC414F-D5EA-4BC8-A215-096CEB3A41C8";
paths = (
{
closed = 1;
nodes = (
"500 -10 OFFCURVE",
"533 -7 OFFCURVE",
"557 -3 CURVE",
"569 93 LINE",
"549 89 OFFCURVE",
"532 87 OFFCURVE",
"521 87 CURVE SMOOTH",
"474 87 OFFCURVE",
"479 129 OFFCURVE",
"482 159 CURVE SMOOTH",
"513 413 LINE",
"613 413 LINE",
"624 501 LINE",
"177 501 LINE SMOOTH",
"113 501 OFFCURVE",
"64 484 OFFCURVE",
"47 470 CURVE",
"44 383 LINE",
"60 396 OFFCURVE",
"100 412 OFFCURVE",
"159 413 CURVE",
"139 275 OFFCURVE",
"107 89 OFFCURVE",
"48 0 CURVE",
"169 0 LINE",
"225 87 OFFCURVE",
"269 413 OFFCURVE",
"269 413 CURVE",
"401 413 LINE",
"366 131 LINE SMOOTH",
"354 30 OFFCURVE",
"404 -10 OFFCURVE",
"481 -10 CURVE SMOOTH"
);
}
);
width = 629;
}
);
unicode = 03C0;
userData = {
com.typemytype.robofont.layerData = {
b = {
anchors = (
);
components = (
);
contours = (
);
lib = {
};
name = pi;
unicodes = (
);
width = 1288;
};
};
org.robofab.postScriptHintData = {
};
};
},
